<?xml version="1.0" encoding="UTF-8" standalone="no"?>
<svg
   data-name="Layer 1"
   viewBox="0 0 98.553673 78.915252"
   x="0px"
   y="0px"
   version="1.1"
   id="svg18"
   sodipodi:docname="camera_gr.svg"
   width="98.553673"
   height="78.915253"
   inkscape:version="1.2.1 (9c6d41e410, 2022-07-14)"
   xmlns:inkscape="http://www.inkscape.org/namespaces/inkscape"
   xmlns:sodipodi="http://sodipodi.sourceforge.net/DTD/sodipodi-0.dtd"
   xmlns="http://www.w3.org/2000/svg"
   xmlns:svg="http://www.w3.org/2000/svg"
   xmlns:rdf="http://www.w3.org/1999/02/22-rdf-syntax-ns#"
   xmlns:cc="http://creativecommons.org/ns#"
   xmlns:dc="http://purl.org/dc/elements/1.1/">
  <metadata
     id="metadata24">
    <rdf:RDF>
      <cc:Work
         rdf:about="">
        <dc:format>image/svg+xml</dc:format>
        <dc:type
           rdf:resource="http://purl.org/dc/dcmitype/StillImage" />
        <dc:title>Appliances</dc:title>
      </cc:Work>
    </rdf:RDF>
  </metadata>
  <defs
     id="defs22" />
  <sodipodi:namedview
     pagecolor="#ffffff"
     bordercolor="#666666"
     borderopacity="1"
     objecttolerance="10"
     gridtolerance="10"
     guidetolerance="10"
     inkscape:pageopacity="0"
     inkscape:pageshadow="2"
     inkscape:window-width="1276"
     inkscape:window-height="776"
     id="namedview20"
     showgrid="false"
     fit-margin-top="10"
     fit-margin-left="10"
     fit-margin-right="10"
     fit-margin-bottom="10"
     inkscape:zoom="4.17193"
     inkscape:cx="66.875523"
     inkscape:cy="37.752311"
     inkscape:window-x="0"
     inkscape:window-y="20"
     inkscape:window-maximized="0"
     inkscape:current-layer="svg18"
     inkscape:showpageshadow="2"
     inkscape:pagecheckerboard="0"
     inkscape:deskcolor="#d1d1d1" />
  <title
     id="title2">Appliances</title>
  <path
     d="m 84.871467,19.819208 h -9.05822 L 70.903643,10 H 52.198049 l -4.909604,9.819208 H 29.638418 V 14.909604 H 17.364406 v 4.909604 H 13.682204 A 3.6822034,3.6822034 0 0 0 10,23.501412 v 41.731639 a 3.6822034,3.6822034 0 0 0 3.682204,3.682204 h 71.189263 a 3.6822034,3.6822034 0 0 0 3.682204,-3.682204 V 23.501412 A 3.6822034,3.6822034 0 0 0 84.871467,19.819208 Z M 19.819208,17.364406 h 7.364408 v 2.454802 h -7.364408 z m 66.279661,47.868645 a 1.2274011,1.2274011 0 0 1 -1.227402,1.227402 H 13.682204 A 1.2274011,1.2274011 0 0 1 12.454802,65.233051 V 23.501412 a 1.2274011,1.2274011 0 0 1 1.227402,-1.2274 h 35.128218 l 4.909605,-9.81921 h 15.661638 l 4.909604,9.81921 h 10.580198 a 1.2274011,1.2274011 0 0 1 1.227402,1.2274 z"
     id="path4"
     inkscape:connector-curvature="0"
     style="stroke-width:2.45480227;fill:#808080" />
  <rect
     x="27.183617"
     y="24.728815"
     width="2.4548023"
     height="39.276836"
     id="rect6"
     style="stroke-width:2.45480227;fill:#808080" />
  <path
     d="M 61.550847,24.728814 A 19.638418,19.638418 0 1 0 81.189265,44.367232 19.638418,19.638418 0 0 0 61.550847,24.728814 Z m 0,36.822034 A 17.183616,17.183616 0 1 1 78.734463,44.367232 17.183616,17.183616 0 0 1 61.550847,61.550848 Z"
     id="path8"
     inkscape:connector-curvature="0"
     style="stroke-width:2.45480227;fill:#666666" />
  <path
     d="M 61.550847,32.09322 A 12.274011,12.274011 0 1 0 73.824857,44.367232 12.274011,12.274011 0 0 0 61.550847,32.09322 Z m 0,22.093221 a 9.8192089,9.8192089 0 1 1 9.819208,-9.819209 9.8192089,9.8192089 0 0 1 -9.819208,9.819209 z"
     id="path10"
     inkscape:connector-curvature="0"
     style="stroke-width:2.45480227;fill:#666666" />
  <circle
     cx="41.91243"
     cy="27.183617"
     r="2.4548023"
     id="circle12"
     style="stroke-width:2.45480227;fill:#666666" />
  <path
     style="fill:#cccccc;stroke-width:0.239697"
     d="m 12.87174,65.988643 c -0.219395,-0.219395 -0.287636,-5.333452 -0.287636,-21.555628 0,-19.014941 0.0399,-21.307894 0.376667,-21.644658 0.335655,-0.335655 2.31291,-0.376667 18.159779,-0.376667 h 17.783113 l 2.453426,-4.913793 2.453426,-4.913793 h 7.733706 7.733706 l 2.453425,4.913793 2.453426,4.913793 h 5.5857 c 4.024837,0 5.666078,0.08038 5.873337,0.287636 0.416915,0.416916 0.416915,42.872402 0,43.289317 -0.418142,0.418142 -72.353933,0.418142 -72.772075,0 z M 29.842303,44.343985 V 24.568964 H 28.40412 26.965937 v 19.775021 19.77502 h 1.438183 1.438183 z M 64.598399,63.869629 C 70.030693,63.012766 74.895168,59.910281 77.88617,55.394901 80.265798,51.80248 81.205003,48.727325 81.224709,44.463833 81.240697,41.005791 80.764227,38.9269 79.219517,35.714885 74.756774,26.43521 64.037345,22.263161 54.302812,26.017194 c -5.719403,2.205636 -10.212468,7.268737 -11.90288,13.412998 -0.66713,2.424863 -0.621089,7.683412 0.08874,10.135707 1.656569,5.72303 5.441364,10.192187 10.719094,12.657305 3.667631,1.713072 7.47717,2.263712 11.390629,1.646425 z M 43.455818,29.214291 c 1.138365,-0.736495 1.333133,-2.544284 0.394323,-3.659996 -1.527144,-1.814907 -4.419949,-0.79502 -4.419949,1.558297 0,2.213349 2.132349,3.326607 4.025626,2.101699 z"
     id="path544" />
  <path
     style="fill:#e6e6e6;stroke-width:0.239697"
     d="m 58.874616,61.212132 c -1.813894,-0.301283 -4.385408,-1.234036 -5.981735,-2.169725 -0.746889,-0.437792 -2.276956,-1.712826 -3.400149,-2.83341 -3.053711,-3.046619 -4.599107,-6.416809 -4.947677,-10.789867 -0.522279,-6.552352 3.346307,-13.226501 9.386818,-16.194298 2.854471,-1.402446 4.713739,-1.849806 7.670311,-1.845562 2.857789,0.0041 4.758188,0.450743 7.430614,1.746377 4.480624,2.172277 7.976627,6.501756 9.095009,11.263334 0.525234,2.236217 0.480015,5.976835 -0.09965,8.243311 -2.150401,8.407984 -10.652205,13.99188 -19.153539,12.57984 z m 5.833672,-4.890763 c 5.741875,-1.495569 9.65837,-7.006848 9.160353,-12.890422 -0.280997,-3.319702 -1.540704,-5.882981 -4.01855,-8.177029 -6.745805,-6.245427 -17.876638,-3.009314 -20.244121,5.885656 -0.398886,1.498673 -0.444451,4.653392 -0.08946,6.193961 0.948251,4.115183 4.585029,7.843136 8.774917,8.994905 1.590358,0.437179 4.724534,0.433725 6.416863,-0.0071 z"
     id="path684" />
  <path
     style="fill:#cccccc;stroke-width:0.239697"
     d="m 20.014717,18.576534 v -1.198486 h 3.47561 3.47561 v 1.198486 1.198486 h -3.47561 -3.47561 z"
     id="path755" />
  <path
     style="fill:#ececec;stroke-width:0.239697"
     d="m 59.264159,53.805379 c -2.69894,-0.677751 -5.233189,-2.807192 -6.484478,-5.448683 -0.702307,-1.48258 -0.765385,-1.813698 -0.765385,-4.017751 0,-2.237008 0.05478,-2.513299 0.797532,-4.022031 1.476702,-2.999607 4.071302,-4.949169 7.32941,-5.507259 6.196931,-1.061489 12.086545,4.882789 10.949908,11.051539 -0.598883,3.250252 -3.093006,6.389528 -5.945139,7.482962 -1.55329,0.595491 -4.444382,0.822195 -5.881848,0.461223 z"
     id="path895" />
</svg>
