<?xml version="1.0" encoding="UTF-8" standalone="no"?>
<svg
   data-name="Layer 1"
   viewBox="0 0 98.553673 78.915252"
   x="0px"
   y="0px"
   version="1.1"
   id="svg18"
   width="98.553673"
   height="78.915253"
   inkscape:version="1.2.1 (9c6d41e410, 2022-07-14)"
   sodipodi:docname="camera.svg"
   xmlns:inkscape="http://www.inkscape.org/namespaces/inkscape"
   xmlns:sodipodi="http://sodipodi.sourceforge.net/DTD/sodipodi-0.dtd"
   xmlns="http://www.w3.org/2000/svg"
   xmlns:svg="http://www.w3.org/2000/svg"
   xmlns:rdf="http://www.w3.org/1999/02/22-rdf-syntax-ns#"
   xmlns:cc="http://creativecommons.org/ns#"
   xmlns:dc="http://purl.org/dc/elements/1.1/">
  <metadata
     id="metadata24">
    <rdf:RDF>
      <cc:Work
         rdf:about="">
        <dc:format>image/svg+xml</dc:format>
        <dc:type />
        <dc:title>Appliances</dc:title>
      </cc:Work>
    </rdf:RDF>
  </metadata>
  <defs
     id="defs22" />
  <sodipodi:namedview
     pagecolor="#ffffff"
     bordercolor="#666666"
     borderopacity="1"
     objecttolerance="10"
     gridtolerance="10"
     guidetolerance="10"
     inkscape:pageopacity="0"
     inkscape:pageshadow="2"
     inkscape:window-width="1276"
     inkscape:window-height="776"
     id="namedview20"
     showgrid="false"
     fit-margin-top="10"
     fit-margin-left="10"
     fit-margin-right="10"
     fit-margin-bottom="10"
     inkscape:zoom="5.9"
     inkscape:cx="66.440678"
     inkscape:cy="42.79661"
     inkscape:window-x="0"
     inkscape:window-y="20"
     inkscape:window-maximized="0"
     inkscape:current-layer="svg18"
     inkscape:showpageshadow="2"
     inkscape:pagecheckerboard="0"
     inkscape:deskcolor="#d1d1d1" />
  <title
     id="title2">Appliances</title>
  <path
     d="m 84.871467,19.819208 h -9.05822 L 70.903643,10 H 52.198049 l -4.909604,9.819208 H 29.638418 V 14.909604 H 17.364406 v 4.909604 H 13.682204 A 3.6822034,3.6822034 0 0 0 10,23.501412 v 41.731639 a 3.6822034,3.6822034 0 0 0 3.682204,3.682204 h 71.189263 a 3.6822034,3.6822034 0 0 0 3.682204,-3.682204 V 23.501412 A 3.6822034,3.6822034 0 0 0 84.871467,19.819208 Z M 19.819208,17.364406 h 7.364408 v 2.454802 h -7.364408 z m 66.279661,47.868645 a 1.2274011,1.2274011 0 0 1 -1.227402,1.227402 H 13.682204 A 1.2274011,1.2274011 0 0 1 12.454802,65.233051 V 23.501412 a 1.2274011,1.2274011 0 0 1 1.227402,-1.2274 h 35.128218 l 4.909605,-9.81921 h 15.661638 l 4.909604,9.81921 h 10.580198 a 1.2274011,1.2274011 0 0 1 1.227402,1.2274 z"
     id="path4"
     inkscape:connector-curvature="0"
     style="stroke-width:2.45480227" />
  <rect
     x="27.183617"
     y="24.728815"
     width="2.4548023"
     height="39.276836"
     id="rect6"
     style="stroke-width:2.45480227" />
  <path
     d="M 61.550847,24.728814 A 19.638418,19.638418 0 1 0 81.189265,44.367232 19.638418,19.638418 0 0 0 61.550847,24.728814 Z m 0,36.822034 A 17.183616,17.183616 0 1 1 78.734463,44.367232 17.183616,17.183616 0 0 1 61.550847,61.550848 Z"
     id="path8"
     inkscape:connector-curvature="0"
     style="stroke-width:2.45480227" />
  <path
     d="M 61.550847,32.09322 A 12.274011,12.274011 0 1 0 73.824857,44.367232 12.274011,12.274011 0 0 0 61.550847,32.09322 Z m 0,22.093221 a 9.8192089,9.8192089 0 1 1 9.819208,-9.819209 9.8192089,9.8192089 0 0 1 -9.819208,9.819209 z"
     id="path10"
     inkscape:connector-curvature="0"
     style="stroke-width:2.45480227" />
  <circle
     cx="41.91243"
     cy="27.183617"
     r="2.4548023"
     id="circle12"
     style="stroke-width:2.45480227" />
  <path
     style="fill:#808080;stroke-width:0.169492"
     d="M 12.942506,66.031931 12.542373,65.707927 V 44.407092 23.106256 l 0.475553,-0.40906 0.475553,-0.40906 h 17.701848 17.701848 l 2.458757,-4.915255 2.458758,-4.915254 h 7.710734 7.710734 l 2.455461,4.908665 2.455461,4.908664 5.611098,0.04896 5.6111,0.04896 0.323836,0.400133 c 0.314932,0.389132 0.323835,0.983636 0.323835,21.622998 V 65.618871 L 85.624669,65.9874 85.23239,66.355927 H 49.287514 c -35.138341,0 -35.953854,-0.0073 -36.345008,-0.324001 z M 29.745763,44.40678 V 24.661017 H 28.389831 27.033898 V 44.40678 64.152542 h 1.355933 1.355932 z m 35.52052,19.312569 c 7.222064,-1.289946 13.50882,-7.119052 15.321366,-14.206039 2.00899,-7.855073 -0.752,-16.026773 -7.028327,-20.801747 -9.077058,-6.905746 -22.14461,-4.730715 -28.397081,4.726556 -5.205178,7.873169 -4.214188,18.182742 2.381945,24.780132 4.719517,4.720415 11.065046,6.690125 17.722097,5.501098 z M 43.071893,29.396592 c 0.52368,-0.25351 0.816953,-0.546781 1.070461,-1.070462 0.446243,-0.921812 0.439802,-1.382642 -0.03218,-2.303099 -0.884208,-1.724363 -3.225923,-1.819232 -4.333752,-0.175573 -0.328448,0.48731 -0.386978,0.75334 -0.327834,1.490079 0.08275,1.030796 0.463866,1.636914 1.316939,2.094422 0.758539,0.406809 1.413712,0.396761 2.306371,-0.03537 z"
     id="path239" />
  <path
     style="fill:#666666;stroke-width:0.169492"
     d="m 58.615955,61.200175 c -8.258437,-1.569631 -14.12443,-8.579263 -14.12443,-16.878141 0,-11.297215 10.934286,-19.494047 21.802912,-16.344442 6.057905,1.755512 10.738856,6.858135 12.003856,13.085196 0.330648,1.62764 0.377585,4.545476 0.09878,6.140602 -0.793083,4.537454 -3.451395,8.689349 -7.189849,11.229502 -1.435707,0.975513 -3.864559,2.078125 -5.529256,2.510086 -1.816586,0.471371 -5.272863,0.597249 -7.062011,0.257197 z m 5.50136,-4.774568 c 2.293841,-0.472861 4.515741,-1.676202 6.194216,-3.354676 3.120371,-3.12037 4.324488,-7.941595 3.068745,-12.287105 -0.843383,-2.918541 -3.268184,-5.887952 -5.93224,-7.264622 -2.012524,-1.039987 -3.680994,-1.45416 -5.837867,-1.449164 -2.086534,0.0048 -3.587777,0.322976 -5.308314,1.124937 -4.207044,1.96095 -6.81048,5.871879 -7.023847,10.551351 -0.109293,2.396987 0.215639,3.979757 1.265334,6.163533 0.661417,1.376007 0.991775,1.823768 2.317409,3.140976 1.957337,1.944894 3.826334,2.956956 6.389281,3.459797 1.230767,0.241471 3.473495,0.202293 4.867283,-0.08503 z"
     id="path379" />
  <path
     style="fill:#e6e6e6;stroke-width:0.169492"
     d="m 19.915254,18.559322 v -1.186441 h 3.559322 3.559322 v 1.186441 1.186441 h -3.559322 -3.559322 z"
     id="path383" />
  <path
     style="fill:#e6e6e6;stroke-width:0.169492"
     d="m 59.974015,53.976737 c -3.965833,-0.706825 -7.11718,-3.791814 -7.957865,-7.790296 -0.965183,-4.590618 1.850973,-9.423226 6.420667,-11.018058 1.456927,-0.50847 3.752672,-0.624933 5.272797,-0.267489 4.354678,1.023967 7.561572,5.047492 7.561572,9.487116 0,4.179963 -2.979138,8.096317 -7.086291,9.315587 -1.162185,0.345011 -3.101734,0.470822 -4.21088,0.27314 z"
     id="path385" />
</svg>
