<?xml version="1.0" encoding="UTF-8"?>
<svg xmlns="http://www.w3.org/2000/svg" xmlns:xlink="http://www.w3.org/1999/xlink" width="400" height="400" viewBox="0 0 400 400">
<path fill="none" stroke-width="4" stroke-linecap="butt" stroke-linejoin="miter" stroke="rgb(100%, 100%, 87.843137%)" stroke-opacity="1" stroke-miterlimit="10" d="M 210.191406 314.414062 L 135.585938 129.289062 M 135.585938 129.289062 L 330.902344 156.296875 M 330.902344 156.296875 L 210.191406 314.414062 M 210.191406 314.414062 L 330.902344 156.296875 M 330.902344 156.296875 L 351.613281 314.414062 M 351.613281 314.414062 L 210.191406 314.414062 M 210.191406 314.414062 L 351.613281 314.414062 M 351.613281 314.414062 L 169.097656 385.121094 M 169.097656 385.121094 L 210.191406 314.414062 M 210.191406 314.414062 L 169.097656 385.121094 M 169.097656 385.121094 L 35.585938 270.710938 M 35.585938 270.710938 L 210.191406 314.414062 M 210.191406 314.414062 L 35.585938 270.710938 M 35.585938 270.710938 L 135.585938 129.289062 M 135.585938 129.289062 L 210.191406 314.414062 M 135.585938 129.289062 L 35.585938 270.710938 M 35.585938 270.710938 L 48.386719 85.585938 M 48.386719 85.585938 L 135.585938 129.289062 M 330.902344 156.296875 L 135.585938 129.289062 M 135.585938 129.289062 L 230.902344 14.878906 M 230.902344 14.878906 L 330.902344 156.296875 M 351.613281 314.414062 L 330.902344 156.296875 M 330.902344 156.296875 L 364.414062 129.289062 M 364.414062 129.289062 L 351.613281 314.414062 M 169.097656 385.121094 L 351.613281 314.414062 M 351.613281 314.414062 L 264.414062 270.710938 M 264.414062 270.710938 L 169.097656 385.121094 M 35.585938 270.710938 L 169.097656 385.121094 M 169.097656 385.121094 L 69.097656 243.703125 M 69.097656 243.703125 L 35.585938 270.710938 M 189.808594 85.585938 L 364.414062 129.289062 M 364.414062 129.289062 L 230.902344 14.878906 M 230.902344 14.878906 L 189.808594 85.585938 M 189.808594 85.585938 L 230.902344 14.878906 M 230.902344 14.878906 L 48.386719 85.585938 M 48.386719 85.585938 L 189.808594 85.585938 M 189.808594 85.585938 L 48.386719 85.585938 M 48.386719 85.585938 L 69.097656 243.703125 M 69.097656 243.703125 L 189.808594 85.585938 M 189.808594 85.585938 L 69.097656 243.703125 M 69.097656 243.703125 L 264.414062 270.710938 M 264.414062 270.710938 L 189.808594 85.585938 M 189.808594 85.585938 L 264.414062 270.710938 M 264.414062 270.710938 L 364.414062 129.289062 M 364.414062 129.289062 L 189.808594 85.585938 M 364.414062 129.289062 L 264.414062 270.710938 M 264.414062 270.710938 L 351.613281 314.414062 M 351.613281 314.414062 L 364.414062 129.289062 M 230.902344 14.878906 L 364.414062 129.289062 M 364.414062 129.289062 L 330.902344 156.296875 M 330.902344 156.296875 L 230.902344 14.878906 M 48.386719 85.585938 L 230.902344 14.878906 M 230.902344 14.878906 L 135.585938 129.289062 M 135.585938 129.289062 L 48.386719 85.585938 M 69.097656 243.703125 L 48.386719 85.585938 M 48.386719 85.585938 L 35.585938 270.710938 M 35.585938 270.710938 L 69.097656 243.703125 M 264.414062 270.710938 L 69.097656 243.703125 M 69.097656 243.703125 L 169.097656 385.121094 M 169.097656 385.121094 L 264.414062 270.710938 "/>
</svg>
