<?xml version="1.0" standalone="no"?>
<svg id="SvgjsSvg1001" width="600" height="600" xmlns="http://www.w3.org/2000/svg" version="1.1" xmlns:xlink="http://www.w3.org/1999/xlink" xmlns:svgjs="http://svgjs.com/svgjs" class="svg-paper" viewBox="0 0 600 600"><title id="SvgjsTitle5294">x=cos(sqrt(x*x + y*y))|y=(y*log(abs(cos(sin(min((y-sqrt(x*x + y*y)),cos(cos(x)*y))))))+x)|dTest=0.0|sd=0.3|sm=0.25|ts=0.01 | generated with FlowLines</title><rect id="SvgjsRect5295" width="600" height="600" fill="#ffffff00"/><g id="SvgjsG5296"><polyline id="SvgjsPolyline5297" points="0.1,444.26 7.32,478.3 16.53,524.8 19.53,537.66 22.64,548.62 26.8,559.87 30.98,568.51 34.91,575.25 45.39,591.33 50.1,599.69" fill="none" stroke="#ffffe0" stroke-width="2"/><polyline id="SvgjsPolyline5298" points="0.02,165.3 3.85,198.07 6.57,234.57 8.1,269.34 10.71,352.7 12.91,394.64 15.56,424.52 19.07,448.86 35.03,530.72 38.63,545.9 42.38,557.92 47.48,569.43 53.28,578.53 60.68,587.19 73.65,599.67" fill="none" stroke="#ffffe0" stroke-width="2"/><polyline id="SvgjsPolyline5299" points="0.01,533.46 2.94,543.86 6.05,552.94 9.94,562.37 20.18,584.73 25.22,599.49" fill="none" stroke="#ffffe0" stroke-width="2"/><polyline id="SvgjsPolyline5300" points="0.04,47.82 10.95,112.3 14.41,134.84 17.73,161.63 20.07,189.13 21.26,214.3 21.73,240.7 20.85,337.89 21.19,376.89 23,417.65 24.35,433.19 26.21,448.07 29.12,465.22 41.99,532.4 45.7,548.17 49.48,560.18 54.72,571.63 58.25,577.2 61.56,581.47 66.05,586.3 70.48,590.35 76.12,594.82 83.54,599.92" fill="none" stroke="#ffffe0" stroke-width="2"/><polyline id="SvgjsPolyline5301" points="0,583.57 3.48,600" fill="none" stroke="#ffffe0" stroke-width="2"/><polyline id="SvgjsPolyline5302" points="11.86,0.45 15.97,32.59 28.65,116.84 31.79,145.46 33.61,172.4 34.28,198.79 33.94,228.19 29.37,330.68 28.34,371.47 28.51,397.27 29.15,416.45 30.31,434.42 31.96,449.93 35.07,469.48 47.13,533.76 51.45,551.85 55.45,563.79 58.44,570.33 61.45,575.52 64.96,580.38 68.96,584.85 73.38,588.91 78.63,592.91 84.73,596.73 91.15,599.98" fill="none" stroke="#ffffe0" stroke-width="2"/><polyline id="SvgjsPolyline5303" points="29.95,0.26 40.74,77.51 44.03,104.31 46.67,134.79 47.81,164.77 47.63,188.77 46.39,216.34 37.26,329.97 35.11,367.71 34.6,389.3 34.73,413.3 35.48,432.48 37.03,451.02 39.86,470.61 51.3,533.17 55.46,551.3 59.94,564.97 62.68,570.98 66.01,576.67 70,581.93 74.6,586.65 79.73,590.79 85.8,594.66 91.72,597.58 97.91,599.85" fill="none" stroke="#ffffe0" stroke-width="2"/><polyline id="SvgjsPolyline5304" points="48.11,0.44 56.06,57.49 59.81,90.28 62.11,123.79 62.5,155.59 61.45,181.96 59.42,207.08 46.28,317.9 41.99,362.69 40.77,384.86 40.25,408.85 40.56,431.05 41.86,452.01 44.58,472.82 55.55,534.25 59.98,553.55 64.6,567.17 67.75,573.64 71.67,579.68 75.99,584.66 80.46,588.66 86.39,592.74 92.79,596.03 99.55,598.49 105.98,599.97" fill="none" stroke="#ffffe0" stroke-width="2"/><polyline id="SvgjsPolyline5305" points="66.26,0.41 72.92,46.73 76.6,81.33 78.26,114.29 78.33,129.89 77.86,147.28 76.08,173.62 72.48,204.61 55.89,308.89 51.73,338 49,360.63 46.86,386.34 45.86,410.32 45.82,434.32 46.72,453.49 49.41,476.13 59.71,535.24 64.41,555.7 66.95,563.7 69.67,570.37 73.09,576.7 77.36,582.49 82.02,587.15 87.8,591.44 94.13,594.85 100.86,597.39 107.86,599.05 116.21,599.98" fill="none" stroke="#ffffe0" stroke-width="2"/><polyline id="SvgjsPolyline5306" points="84.42,0.15 90.59,41.08 93.73,72.12 94.56,87.1 94.91,102.69 94.71,119.49 93.97,135.67 91.37,164.95 87.12,195.25 82.29,221.82 71.29,275.3 65.16,307.11 58.43,345.53 54.87,370.47 52.41,396.75 51.18,425.52 51.47,451.32 53.11,471.05 61.83,524.94 67.01,550.82 69.53,560.09 72.78,569.11 76.26,576.09 79.98,581.53 85.37,587.16 91.16,591.42 97.55,594.74 105.49,597.44 112.55,598.82 119.72,599.51 156.31,600" fill="none" stroke="#ffffe0" stroke-width="2"/><polyline id="SvgjsPolyline5307" points="102.67,0.21 108.37,35.76 110.08,50.66 111.33,66.81 111.88,81.2 111.85,98 111.18,114.18 109.89,130.93 105.97,163.09 99.77,198.55 94.16,224.34 81.01,278.57 74.62,306.65 66.61,344.82 62.03,370.21 58.76,396.4 57,421.54 56.49,447.93 57.55,469.5 59.37,484.39 63.9,512.83 67.64,534.71 70.89,550.58 73.31,559.87 76.43,568.94 79.49,575.46 83.4,581.49 88.27,586.78 94.52,591.44 101.49,594.91 108.34,597.11 115.41,598.47 123.17,599.22 156.76,600" fill="none" stroke="#ffffe0" stroke-width="2"/><polyline id="SvgjsPolyline5308" points="120.91,0 124.4,18.88 126.52,33.13 128.02,46.84 129.04,63.01 129.23,78.61 128.78,92.4 127.65,107.96 125.89,124.06 123.19,143.07 119.97,162 111.87,201.37 105.14,228.75 90.6,282 83.4,309.89 73.58,350.73 68.54,374.8 65.21,396.75 62.93,420.64 61.78,447.01 62.18,468 63.16,479.36 65.07,493.63 71.02,530.96 74.27,548.05 76.64,557.97 79.69,567.7 83.06,575.39 86.51,581.01 91.22,586.44 96.37,590.55 103.78,594.48 110.61,596.75 117.07,598.07 125.42,598.98 157.2,599.99" fill="none" stroke="#ffffe0" stroke-width="2"/><polyline id="SvgjsPolyline5309" points="139.27,0.08 142.03,13.61 144.32,27.82 145.63,40.35 146.37,54.13 146.42,69.13 145.88,81.72 144.51,97.25 142.6,111.53 138.71,133.99 134.55,154.57 122.91,204.84 114.68,235.56 91.17,316.2 79.53,359.66 75.11,378.35 71.34,399.61 68.99,419.27 67.23,444.41 66.95,466.6 67.71,479.78 69.22,492.89 73.66,522.56 77.56,545.02 80.15,556.74 82.99,566.53 86.11,574.33 89.65,580.59 94.2,586.15 99.27,590.37 105,593.63 111.73,596.15 118.75,597.75 127.08,598.78 157.66,600" fill="none" stroke="#ffffe0" stroke-width="2"/><polyline id="SvgjsPolyline5310" points="157.77,0.48 159.95,14.71 161.34,27.23 162.28,41 162.55,52.4 162.29,64.39 161.5,75.76 160.19,87.09 158.08,100.12 154.14,119.52 148.96,141.72 130.03,215.53 120.9,247.24 100.48,313.15 85.96,362.67 81.03,381.22 77.18,400.03 74.17,421.42 72.05,445.92 71.37,465.11 71.7,478.3 72.89,491.45 76.16,515.22 80.25,540.69 82.97,554.22 85.9,565.24 89.02,573.67 92.69,580.55 96.74,585.75 101.68,590.1 107.36,593.46 114.08,596.03 120.5,597.55 128.82,598.66 157.58,599.98" fill="none" stroke="#ffffe0" stroke-width="2"/><polyline id="SvgjsPolyline5311" points="176.04,0.48 180.13,24.12 181.06,34.28 181.32,42.07 181.08,52.27 180.15,63.02 178.52,74.31 176.35,85.5 168.52,116.31 133.16,239.75 92.74,366.66 86.97,386.23 82.78,404.96 79.87,423.33 77.66,443.61 76.3,465.76 76.33,480.16 77.31,493.32 80.06,514.75 83.89,539.65 86.48,553.21 89.57,565.42 92.61,573.89 96.19,580.8 100.19,586.04 104.64,590.05 109.74,593.2 116.42,595.87 124.01,597.66 131.14,598.61 158.1,599.99" fill="none" stroke="#ffffe0" stroke-width="2"/><polyline id="SvgjsPolyline5312" points="194.24,0.01 196.68,9.92 198.16,18.18 199.09,26.53 199.44,34.92 199.21,43.32 198.28,52.87 196.72,62.34 194.65,71.71 187.4,96.47 169.56,148.07 160.48,176.03 141.24,241.67 133.43,266.89 92.91,388.72 89.16,403.24 85.96,419.73 83.58,436.36 81.57,456.06 80.69,470.43 80.57,481.83 81.04,491.42 82.6,506.33 86.42,533.67 89.4,550.81 93.04,565.97 96.52,575.55 99.93,581.89 103.61,586.61 108.1,590.58 113.26,593.64 118.83,595.83 125.82,597.55 134.14,598.68 146.12,599.48" fill="none" stroke="#ffffe0" stroke-width="2"/><polyline id="SvgjsPolyline5313" points="364.81,599.95 367.34,585.17 368.05,575 367.32,563.63 364.57,544.02 361.7,528.08 358.26,515.34 354.13,506.03 348.93,498.71 341.86,492.23 333.26,486.77 323.01,481.79 294.16,469.9 280.04,463.29 268.55,456.8 249.54,444.21 241.24,439.39 235.76,436.96 230.03,435.18 225.31,434.31 219.93,433.95 212.17,434.67 204.18,437.19 197.51,441.2 191.85,446.56 187.49,452.28 183.46,458.95 170.59,486.04 165.63,494.95 162.47,499.33 159.26,502.89 149.7,511.09 147.2,513.68 144.91,517.19 143.6,520.54 142.64,525.24 142.19,531.22 142.3,540.22 143,550.39 144.38,562.31 145.77,570.59 147.39,577.61 149.22,583.32 150.88,587.18 153.02,590.78 154.93,593.1 157.65,595.44 160.24,596.96 164.16,598.46 172.41,599.98" fill="none" stroke="#ffffe0" stroke-width="2"/><polyline id="SvgjsPolyline5314" points="212.93,0.31 214.95,7.84 216.33,14.91 217.2,22.05 217.5,28.64 217.25,36.44 216.47,43.59 215.09,51.27 213.09,59.43 209.91,69.75 205.61,81.59 182.27,138.16 170.77,169.09 161.35,198.2 145.69,251.76 137.8,276.95 115.08,344.64 98.53,390.33 94.55,404.17 91.31,418.81 88.38,436.57 85.96,456.83 84.8,471.18 84.43,484.37 84.89,495.16 86.27,508.89 90.01,536.23 93.26,554.55 96.27,566.78 100.26,577.45 103.53,583.17 107.35,587.78 111.99,591.57 117.82,594.64 124.09,596.7 131.75,598.17 140.7,599.08 153.88,599.79" fill="none" stroke="#ffffe0" stroke-width="2"/><polyline id="SvgjsPolyline5315" points="346.51,599.69 349.4,583.15 349.61,577.16 349.03,569.98 345.31,548.1 342,531.63 339.32,521.79 336.48,514.53 333.58,509.29 330.3,505 326.37,501.3 321.91,498.28 317.04,495.95 310.75,493.98 304.24,492.88 297.65,492.57 289.88,493.12 281.62,494.63 251.67,503.37 237.03,506.61 226.94,508.11 215.6,509.25 181.46,511.18 170.1,512.18 164.18,513.13 159.54,514.35 156.21,515.72 153.2,517.67 150.46,520.83 148.77,524.67 147.8,529.36 147.35,535.94 147.61,546.74 148.63,558.69 150.33,570.57 152.13,578.77 155.38,587.79 157.53,591.39 159.88,594.11 162.73,596.31 165.94,597.91 169.96,599.13 174.69,599.95" fill="none" stroke="#ffffe0" stroke-width="2"/><polyline id="SvgjsPolyline5316" points="383.17,599.65 386.5,578.31 386.95,570.52 386.81,563.33 385.62,549.58 383.28,531.73 381.04,519.34 378.44,509.48 374.62,500.03 369.96,492.34 364.65,485.84 349.38,469.73 345.02,464 340.95,457.35 336.57,448.15 325.98,420.08 317.45,400.89 316.15,396.9 315.67,393.34 316.09,389.17 317.69,384.02 327,363.88 338.2,341.97 360.04,304.01 365.01,293.76 369.64,282.04 373.78,267.01 375.79,252.76 376.1,245.57 375.91,237.77 374.03,222.9 371.5,212.41 368.03,202.18 363.11,191.24 357.43,181.36 350.39,171.66 343.09,163.7 337.02,158.83 331.06,156.03 325.16,155.06 318.61,155.75 310.69,158.5 302.78,162.79 291.98,170.36 281.02,179.69 274.49,186.72 269.86,193.71 267.08,200.34 265.43,207.96 265.32,215.74 266.84,223.38 270.04,230.47 274.4,236.18 279.91,240.79 286.28,244.13 293.19,246.11 300.35,246.73 307.5,245.98 313.82,244.09 319.68,241.08 325.29,236.58 329.13,231.99 332.54,225.66 334.61,218.16 335.02,210.98 333.92,203.27 331.09,195.38 326.7,188.23 321.63,183.15 319.12,181.51 315.83,180.06 309.94,179.09 306.35,179.34 301.68,180.45 297.24,182.25 293.55,184.27 289.61,187 286.02,190.18 282.89,193.81 280.95,196.84 279.24,200.68 278.22,204.74 277.94,208.33 278.22,211.91 279.08,215.41 280.81,219.23 282.87,222.17 285.41,224.71 288.87,227.09 293.28,228.95 297.99,229.85 302.78,229.77 306.89,228.9 311.29,227.01 315.17,224.21 317.99,221.1 320.36,216.94 321.84,211.76 322.01,206.38 320.92,201.1 318.68,196.2 315.31,192 311.92,189.54 307.41,187.97 302.03,187.94 296.86,189.45 292.19,192.14 287.52,196.77 284.98,201.51 284,206.8 284.8,212.12 286.99,216.36 289.44,218.99 291.9,220.7 294.64,221.92 298.15,222.7 301.74,222.71 305.25,221.96 308.52,220.45 310.92,218.67 313.62,215.47 315.17,212.23 315.98,208.12 315.8,204.53 314.63,200.51 312.85,197.39 309.89,194.44 306.71,192.78 303.18,192.13 299.02,192.61 294.64,194.52 291.39,197.17 288.96,200.58 287.75,203.96 287.57,208.13 288.53,211.59 290.07,214.15 291.73,215.88 294.23,217.54 296.46,218.4 298.82,218.84 301.81,218.77 304.71,218.01 307.35,216.6 309.95,214.13 311.49,211.56 312.35,208.69 312.49,205.71 311.94,202.76 310.4,199.52 308.43,197.28 305.91,195.66 303.03,194.85 300.04,194.9 297.17,195.72 294.09,197.57 291.65,200.2 290.31,202.87 289.74,205.81 290.03,208.78 290.88,211.02 292.24,212.99 294.03,214.58 296.14,215.71 298.46,216.32 300.85,216.4 304.86,215.25 306.84,213.9 308.45,212.13 309.58,210.02 310.25,207.11 310.15,204.71 309.28,201.85 307.61,199.37 305.77,197.85 303.58,196.88 301.21,196.56 298.83,196.86 296.08,198.02 293.77,199.92 292.39,201.88 291.41,204.7 291.34,207.09 291.72,208.85 292.78,210.99 294.39,212.76 295.89,213.75 299.33,214.73 303.44,214.06 305.5,212.85 306.78,211.59 308.02,209.54 308.64,207.23 308.61,204.84 307.94,202.54 306.66,200.52 305.35,199.3 303.78,198.41 301.46,197.86 299.07,198.05 296.84,198.9 294.92,200.33 293.46,202.22 292.61,204.46 292.45,206.25 293.38,209.69 295.82,212.29 299.18,213.48 302.72,213.03 304.8,211.85 306.05,210.56 307.46,207.28 307.54,205.49 306.99,203.16 304.88,200.29 301.62,198.87 299.82,198.86 297.53,199.54 295.56,200.89 294.42,202.28 293.33,205.67 294.12,209.14 296.1,211.36 299.44,212.57 302.39,212.16 305.27,210.06 306.53,207.37 306.31,203.82 304.3,200.9 301.6,199.66 299.81,199.61 298.07,200.06 295.27,202.25 294.41,203.83 294.04,205.58 294.6,208.49 296.52,210.76 299.29,211.82 302.24,211.43 304.64,209.69 305.55,208.14 305.96,206.4 305.44,203.47 303.57,201.17 300.78,200.18 297.87,200.77 295.62,202.7 294.61,205.49 294.95,207.85 296.75,210.2 299.52,211.25 301.88,210.94 304.28,209.2 305.29,207.04 305.09,204.09 303.36,201.69" fill="none" stroke="#ffffe0" stroke-width="2"/><polyline id="SvgjsPolyline5317" points="374.25,599.48 376.65,585.28 377.38,578.72 377.61,570.93 377.08,561.95 374.82,543.49 372.09,526.91 369.1,514.68 365.93,506.26 361.14,497.96 355.71,491.55 349.94,486.32 333.01,472.91 325.1,464.72 320.53,458.4 317.21,452.7 305.54,427.03 300.16,417.68 297.11,413.98 293.89,411.29 290.08,409.58 286.52,409.13 279.4,410.14 252.66,416.93 214.9,423.89 202.78,427.32 194.6,431.04 188.19,435.47 182.68,440.98 177.13,448.8 170.82,461.06 161.8,482.65 157.21,492.42 152.48,500.08 144.05,510.23 141.17,514.78 139.26,520.46 138.38,528.2 138.74,543.19 140.78,562.27 143.39,575.82 146.64,585.47 150.37,591.61 152.44,593.77 155.34,595.9 158.57,597.48 162,598.58 170.27,599.96" fill="none" stroke="#ffffe0" stroke-width="2"/><polyline id="SvgjsPolyline5318" points="368.37,599.76 370.62,586.75 371.52,578.4 371.59,571.21 370.84,561.64 367.77,539.65 364.88,524.33 361.54,512.81 357.49,504.12 355.21,500.59 351.81,496.4 345.17,490.33 337.27,484.9 316.69,472.56 310.9,468.28 306.01,463.86 298.74,455.09 294.24,448 284.73,431.32 280.89,425.96 277.56,422.5 274.17,420.04 270.34,418.35 266.23,417.47 261.44,417.24 253.67,417.8 239.99,419.67 222.81,422.42 211.07,424.88 204.16,426.9 197.49,429.6 192.77,432.21 188.4,435.38 182.48,441.32 176.67,449.7 171.45,459.82 161.69,483.05 157.06,492.81 152.28,500.43 143.83,510.56 141.28,514.62 139.61,519.11 138.74,523.83 138.34,530.41 138.6,540.61 139.52,551.97 141.14,564.46 142.81,573.31 144.86,580.83 146.59,585.31 148.86,589.53 151.05,592.38 153.71,594.8 156.78,596.68 160.69,598.2 170.71,600" fill="none" stroke="#ffffe0" stroke-width="2"/><polyline id="SvgjsPolyline5319" points="362.8,599.97 365.09,586.97 365.87,579.81 365.92,572.02 365.05,562.46 361.77,540.5 358.76,525.2 355.28,513.73 351.04,505.13 346.73,499.37 341.49,494.44 335.58,490.34 327.06,485.93 317,482 305.5,478.61 294.31,476.46 285.33,475.91 280.55,476.24 275.82,477.09 271.24,478.49 266.27,480.62 258.56,485.24 238.68,499.72 232.36,503.15 225.66,505.78 218.12,507.74 209.23,509.13 175.72,511.57 165.6,512.84 157.53,515.1 154.36,516.79 152.07,518.72 149.72,522.18 148.37,526.15 147.52,532.08 147.33,539.28 147.82,550.07 149.02,562 150.72,572.67 152.53,580.25 155.81,588.62 158.09,592.14 160.57,594.74 163.53,596.78 166.82,598.24 175.01,599.99" fill="none" stroke="#ffffe0" stroke-width="2"/><polyline id="SvgjsPolyline5320" points="364.31,599.65 366.66,586.05 367.47,576.49 367.12,567.51 365.61,555 361.96,532.49 358.97,519.64 354.98,508.98 350.3,501.31 345.47,495.97 338.88,490.79 331.1,486.26 320.73,481.54 303.87,475.25 285.01,469.23 273.34,466.46 263.19,465.53 258.41,465.91 253.17,467.17 248.73,468.99 244.1,471.77 240.34,474.74 236.01,478.89 224.09,492.38 218.61,497.93 213.46,502.05 208.28,505.06 202.13,507.43 194.53,509.18 168.91,512.18 161.27,513.72 157.31,515.1 154.66,516.5 152.31,518.37 150.44,520.7 148.73,524.53 147.83,528.63 147.34,534 147.34,542.4 148.12,554.37 149.3,564.5 151.05,574.55 152.68,580.94 156.1,589.25 157.74,591.76 160.16,594.42 162.55,596.23 165.75,597.86 169.76,599.1 174.49,599.93" fill="none" stroke="#ffffe0" stroke-width="2"/><polyline id="SvgjsPolyline5321" points="364.65,599.5 367.15,584.71 367.79,575.74 367.14,564.37 364.69,546.53 361.45,528.22 358.4,516.62 354.47,507.22 349.48,499.75 344.44,494.62 338.18,489.97 330.36,485.53 320.53,481.05 263.93,459.42 252.4,456.11 247.67,455.32 242.88,455.04 236.92,455.64 231.76,457.19 226.97,459.67 222.24,463.36 218.49,467.24 214.75,471.93 198.84,495.2 194.4,500.08 190.24,503.51 186.12,505.97 180.57,508.24 163.1,512.52 156.86,514.67 154.24,516.11 151.9,517.99 149.18,521.91 147.84,525.89 147.05,531.22 147.08,546.21 149.18,566.5 150.57,574.17 152.53,581.72 154.45,586.76 156.14,589.94 158.26,592.84 160.41,594.93 162.87,596.63 166.14,598.12 174.33,599.94" fill="none" stroke="#ffffe0" stroke-width="2"/><polyline id="SvgjsPolyline5322" points="231.65,0.4 233.68,12.22 234.43,25.39 233.53,37.95 231.02,49.06 227,60.37 222,71.93 199.65,117.1 189.54,138.87 180.35,161.03 173.72,179.05 165.73,203.58 149.15,260.62 140.11,289.22 120.42,347.17 104.9,387.48 100.48,400.55 97.48,411.55 94.67,424.45 90.28,452.91 88.68,467.82 87.75,482.79 87.83,492.99 88.6,503.76 91.72,529.36 95.58,553.05 98.9,567.06 102.82,577.75 106.41,583.98 110.31,588.53 115.04,592.2 120.39,594.9 127.26,597.03 134.94,598.38 158.88,599.98" fill="none" stroke="#ffffe0" stroke-width="2"/><polyline id="SvgjsPolyline5323" points="328.01,599.67 331.19,585.02 331.43,580.23 331,575.45 321.88,534.46 319.92,527.53 317.19,520.23 314.4,514.92 311.59,511.04 308.2,507.65 304.27,504.9 299.94,502.85 295.35,501.46 290.62,500.64 284.03,500.28 271.48,501.27 243.1,506.17 227.04,508.3 210.9,509.65 178.55,511.38 168.4,512.41 163.09,513.37 158.49,514.72 155.23,516.25 152.81,518.01 150.2,521.28 148.63,525.16 147.67,530.47 147.34,537.06 147.64,547.25 148.62,558.61 150.21,569.9 152.26,579.27 155.62,588.25 157.84,591.81 160.26,594.46 163.17,596.57 166.43,598.1 174.61,599.94" fill="none" stroke="#ffffe0" stroke-width="2"/><polyline id="SvgjsPolyline5324" points="293.12,599.83 295.99,594.57 302.5,586.73 303.79,584.05 303.71,582.27 302.92,580.66 301.27,578.92 298.83,577.19 294.03,574.72 286.23,571.61 241.75,557.05 218.74,548.37 210.59,544.56 203.38,540.26 198.13,536.27 185.84,525.71 179.32,521.44 174.93,519.53 170.87,518.44 166.7,517.98 162.52,518.28 158.53,519.55 155.22,522.09 153.06,525.67 151.81,530.29 151.15,538.06 151.42,549.45 152.41,560.81 153.95,571.5 155.45,578.54 157.38,584.84 159.35,589.22 161.67,592.71 164.2,595.26 167.74,597.5 171.68,598.94 176.98,599.98" fill="none" stroke="#ffffe0" stroke-width="2"/><polyline id="SvgjsPolyline5325" points="401.41,599.76 405.25,575.47 405.88,567.69 405.98,559.29 405.21,545.52 403.62,530 401.72,516.94 399.76,507.54 396.99,498.36 393.14,489.57 388.91,482.32 376.24,463.36 372.25,455.97 368.85,448.29 364.59,436.44 352.6,399.33 350.55,391.19 349.65,384.65 349.54,377.46 350.11,370.88 351.46,362.59 353.54,353.22 359.13,333.61 372.57,293.82 375.85,281.65 378.05,270.47 379.49,257.36 379.62,244.76 378.41,231.62 375.84,218.68 372.16,206.63 367.6,195.54 361.71,184.41 355.41,174.91 348.58,166.55 343.98,161.82 340.34,158.7 336.85,156.36 333.61,154.8 327.2,153.33 320.63,153.76 313.75,155.84 305.71,159.87 297.19,165.47 285.89,174.39 277.17,182.63 271.52,189.62 267.78,196.45 265.97,201.53 264.73,207.4 264.37,212.78 264.67,217.57 265.59,222.28 267.36,227.38 269.58,231.62 272.4,235.51 276.19,239.34 280.04,242.2 284.8,244.74 289.89,246.54 294.59,247.51 299.97,247.89 305.95,247.43 310.63,246.39 315.69,244.52 319.91,242.25 323.79,239.42 327.23,236.08 330.16,232.28 332.77,227.56 334.43,223.06 335.55,217.78 335.87,212.4 335.52,207.61 334.44,202.32 332.45,196.67 329.68,191.35 326.93,187.43 324.08,184.34 320.27,181.43 315.92,179.45 311.2,178.6 306.42,178.85 300.63,180.39 294.67,183.21 289.69,186.55 285.65,190.12 281.53,195.27 278.73,201.22 277.61,207.71 278.2,213.66 279.09,216.52 280.68,219.75 282.78,222.66 284.89,224.79 289.89,228.08 296.17,230.04 302.75,230.19 308.56,228.75 314.27,225.49 318.41,221.17 320.25,218.09 321.37,215.31 322.42,209.42 321.76,202.87 319.36,196.75 317.35,193.76 315.29,191.58 311.86,189.19 308.49,187.93 304.92,187.5 300.76,187.96 296.78,189.28 293.1,191.3 289.82,193.92 286.75,197.59 284.66,201.9 283.86,206.01 284.1,210.19 285.7,214.7 288.6,218.5 291.98,220.97 296.46,222.63 301.24,222.96 305.35,222.14 309.61,219.98 313.05,216.65 315.09,213 316.15,208.34 315.92,204.15 314.4,199.62 311.63,195.72 309.3,193.85 306.58,192.58 303.65,192.01 300.06,192.24 296.64,193.33 294.03,194.8 291.29,197.13 289.46,199.49 287.95,202.75 287.37,206.3 287.79,209.86 289.22,213.15 291.1,215.47 294.02,217.57 297.4,218.76 300.99,218.98 304.49,218.22 307.66,216.52 310.2,214 311.68,211.4 312.57,207.92 312.43,204.33 311.32,200.92 309.29,197.97 307.47,196.41 305.34,195.32 303.01,194.76 300.02,194.82 297.14,195.65 294.54,197.13 292.35,199.17 290.99,201.14 289.92,203.94 289.67,206.91 290.08,209.27 291.36,211.98 293.37,214.18 295.39,215.47 298.24,216.37 301.23,216.45 304.12,215.69 306.21,214.51 308.34,212.41 309.53,210.34 310.21,208.04 310.27,205.05 309.5,202.16 307.93,199.62 304.57,197.16 302.26,196.56 299.86,196.59 297.55,197.22 295.45,198.37 293.66,199.96 292.3,201.93 291.46,204.17 291.25,206.56 291.68,208.91 292.75,211.05 294.37,212.81 296.41,214.06 298.71,214.72 301.1,214.74 303.42,214.13 305.48,212.93 307.14,211.21 308.26,209.09 308.74,206.75 308.58,204.36 306.8,200.6 303.96,198.44 302.24,197.91 299.85,197.86 295.98,199.39 294.23,201.02 293.25,202.53 292.63,204.21 292.42,206.59 293.51,209.99 295.07,211.79 296.58,212.77 298.27,213.37 300.66,213.54 304.05,212.43 305.86,210.87 306.84,209.36 307.43,207.67 307.56,205.28 306.95,202.97 306.03,201.42 303.21,199.26 299.67,198.85 297.94,199.32 295.89,200.56 293.79,203.44 293.37,206.97 294.82,210.22 297.74,212.24 301.29,212.5" fill="none" stroke="#ffffe0" stroke-width="2"/><polyline id="SvgjsPolyline5326" points="338.06,0.13 340.24,3.7 341.85,8.85 342.81,15.37 342.9,23.16 342.1,30.31 340.49,37.33 338.13,44.13 335.39,50.13 331.87,56.41 326.51,64.37 300.52,97.36 273.64,134.93 265.11,144.99 248.73,161.7 243.49,168.26 239.43,174.2 235.46,180.92 231.95,187.88 226.63,201.26 222.37,216.88 219.89,232.27 218.97,244.84 218.91,256.23 219.7,269.41 221.27,281.91 223.88,295.46 227.11,307.63 230.6,317.85 235.38,328.85 239.37,336.24 244.26,343.8 249.39,350.44 254.6,356.25 259.73,361.3 267.42,367.99 293.89,388.68 297.32,392.03 298.3,393.54 298.37,394.71 297.43,396.23 294.85,398.74 288.1,403.73 281.3,407.54 272.47,411.3 262.75,414.39 252.85,416.81 220.39,422.75 209.27,425.27 199.07,428.8 194.78,430.93 190.73,433.5 186.11,437.33 182.43,441.28 178.85,446.09 175.72,451.21 170.41,461.96 159.69,487.39 153.96,497.92" fill="none" stroke="#ffffe0" stroke-width="2"/><polyline id="SvgjsPolyline5327" points="338.3,0.4 340.6,4.58 342.17,10.37 342.92,16.92 342.89,23.52 342.05,30.66 340.4,37.67 338.23,43.9 335.24,50.45 331.38,57.22 327.02,63.69 300.68,97.16 273.8,134.73 264.88,145.25 248.9,161.51 244.36,167.1 239.89,173.49 233.1,185.5 227.31,199.32 223.23,213.13 220.29,229.05 219.13,241.59 218.87,253.59 219.53,267.37 220.89,279.29 223.2,292.29 226.22,304.52 229.91,315.93 234.02,325.92 238.68,334.98 243.82,343.09 250.08,351.14 257.5,358.98 266.07,366.49 276.32,373.82 283.75,377.71 286.6,378.62 289.57,379.04 293.71,378.5 297.53,376.77 301.81,373.49 306.42,368.78 312.44,361.3 326.74,342.02 344.97,318.96 354.99,304.74 362.96,290.64 366.63,282.43 368.92,276.24 371,269.35 372.73,261.74 373.89,254.03 374.45,246.86 374.24,234.26 372.56,221.78 369.67,210.14 365.12,197.76 359.48,186.5 352.96,176.43 344.48,166.33 337.24,160.05 333.59,157.97 330.23,156.7 326.7,155.99 322.51,155.9 314.89,157.46 310.42,159.21 305.08,161.94 298.47,166.08 291.68,171.02 284.72,176.73 279.46,181.64 275.41,186.07 272.19,190.39 269.78,194.55 267.89,198.96 266.54,203.56 265.74,208.29 265.53,212.48 265.87,217.27 266.84,221.96 268.22,225.93 270.4,230.2 273.18,234.11 276.07,237.15 280.32,240.47 283.97,242.55 287.84,244.17 291.88,245.32 296.62,246.06 301.41,246.19 306.18,245.7 313.12,243.82 319.03,240.9 324.27,236.9 328.6,231.94 331.6,226.75 333.87,219.93 334.68,212.79 334.07,205.62 331.94,198.13 328.41,191.19 323.94,185.56 318.69,181.61 313.64,179.75 307.67,179.41 301.23,180.8 294.69,183.77 287.41,189.04 282.3,194.9 280.5,198.02 279.17,201.36 278.1,207.85 278.31,211.44 279.1,214.95 280.48,218.27 282.05,220.82 284.4,223.55 287.18,225.83 290.3,227.61 293.67,228.87 298.39,229.69 303.18,229.53 307.83,228.39 312.14,226.28 315.87,223.29 318.51,220.03 320.65,215.75 321.77,211.09 321.79,205.7 320.75,201.02 318.79,196.65 315.51,192.38 312.18,189.84 308.3,188.28 304.13,187.85 299.41,188.62 294.46,190.75 290.13,193.96 286.71,198.12 284.59,203.06 284.1,207.82 285.03,212.51 287.35,216.69 290.85,219.94 294.04,221.6 297.51,222.52 301.7,222.62 305.21,221.87 308.48,220.37 311.32,218.17 313.57,215.38 315.29,211.56 315.93,207.42 315.6,203.84 314.26,199.87 312.32,196.84 309.7,194.39 306.5,192.78 303.56,192.21 299.98,192.44 296.56,193.55 293,195.75 290.11,198.79 288.4,201.95 287.54,206.04 287.9,209.61 289.28,212.92 291.58,215.67 294.04,217.38 297.42,218.58 300.4,218.83 303.36,218.39 306.66,216.98 309.01,215.12 310.82,212.74 312,209.99 312.47,207.03 312.09,203.46 310.73,200.14 308.9,197.78 306.5,196 303.68,195 300.69,194.86 297.77,195.52" fill="none" stroke="#ffffe0" stroke-width="2"/><polyline id="SvgjsPolyline5328" points="326.59,18.75 325.97,19.76 325.39,19.88 325.14,18.2 325.67,17.13 326.66,16.6 327.21,17.62 326.98,19.39 326.18,21 324.9,22.24 323.17,22.54 321.83,21.41 321.28,19.71 321.3,17.31 323.19,11.65 325.75,7.59 329.08,4.16 332.31,2.65 334.62,3.09 337.04,5.69 338.87,10.75 339.67,16.69 339.56,23.89 338.74,29.83 336.97,36.8 334.66,42.98 331.48,49.44 328.07,55.09 323.58,61.46 299.84,91.64 279.21,121.87 271.12,133.05 262.16,143.54 247.39,158.45 239.61,168.36 233.55,178.01 229.15,186.54 224.32,198.17 221.17,207.87 218.53,218.34 216.31,230.74 214.99,242.67 214.33,257.05 214.69,273.85 216.09,290.58 218.36,307.23 223.81,338.56 225.17,352.28 225.08,363.08 224.17,372.03 222.09,382.62 219.23,391.78 217.1,396.74 214.5,401.47 211.74,405.4 208.16,409.44 201.7,414.79 187.53,423.81 182.24,427.75 177.02,432.7 171.82,439.29 167.79,445.97 163.85,454.06 149.27,490.86 145.68,497.79 138.37,509.49 135.88,515.59 134.85,520.88 134.45,526.87 134.59,535.86 135.3,546.04 138.14,567.44 140.1,576.22 142.12,582.51 144.09,586.88 146.33,590.42 148.73,593.11 151.56,595.32 154.74,596.99 158.72,598.35 168.77,599.97" fill="none" stroke="#ffffe0" stroke-width="2"/><polyline id="SvgjsPolyline5329" points="250.07,0.5 251.31,16.65 250.94,33.44 250.09,41.79 248.66,50.68 245.03,64.6 242.65,70.76 239.06,77.68 220.1,105.41 212.17,118.14 205.3,130.11 194.18,152.05 183.89,176.35 178.37,191.58 173.01,208.14 153.85,275.67 141.02,315.66 127.13,355.29 111.15,393.48 106.48,406.46 103.64,416.26 101.01,427.35 96.69,451.56 94.11,471.19 92.95,484.34 92.72,493.34 93.2,504.12 95.72,527.39 99.31,551.11 102.65,566.35 106.32,577.13 109.68,583.49 113.39,588.19 117.99,592.03 123.27,594.86 129.53,596.92 136.6,598.28 146.15,599.26 159.33,599.98" fill="none" stroke="#ffffe0" stroke-width="2"/><polyline id="SvgjsPolyline5330" points="310.98,599.86 315.15,586.72 315.59,583.15 315.35,580.16 308.74,558.99 301.92,533.48 297.95,522.81 295.35,518.08 292.46,514.25 289.43,511.36 285.95,509 282.14,507.24 276.95,505.78 272.2,505.11 266.21,504.86 255.43,505.43 218.42,509.18 181.87,511.16 170.52,512.13 164,513.17 158.8,514.61 155,516.39 152.19,518.62 150.07,521.51 148.41,526 147.54,531.93 147.34,539.13 147.82,549.92 149.01,561.86 150.7,572.52 152.5,580.11 155.74,588.49 158,592.02 160.47,594.64 163.4,596.71 166.68,598.19 174.87,599.97" fill="none" stroke="#ffffe0" stroke-width="2"/><polyline id="SvgjsPolyline5331" points="296.47,575.89 291.55,573.67 284.21,571.04 280.14,570.01 277.15,569.85 275.43,570.35 273.66,571.93 272.42,574.65 271.77,578.19 272.05,585.36 272.81,588.26 273.88,590.4 275.07,591.74 277.13,592.96 281.26,593.5 287.15,592.44 293.44,590.43 298.34,588.18 301.72,585.71 302.99,583.69 302.83,581.35 300.95,579.05 297.37,576.88 293.35,575.7 290.41,576.05 288.64,577.62 287.61,580.42 287.62,584.6 288.99,587.89 289.86,588.71 291.51,589.39 295.07,589.15" fill="none" stroke="#ffffe0" stroke-width="2"/><polyline id="SvgjsPolyline5332" points="295.52,599.85 298.52,593.98 303.98,586.09 304.71,583.82 304.57,582.04 303.19,579.39 296.14,571.23 293.08,566.07 289.64,557.76 283.07,536.56 279.99,528.1 276.12,520.66 271.93,515.57 268.15,512.63 263.31,510.27 258.1,508.85 252.15,508.09 238.96,508.06 199.43,510.32" fill="none" stroke="#ffffe0" stroke-width="2"/><polyline id="SvgjsPolyline5333" points="293.06,599.98 296.24,594.21 303.36,585.34 303.85,583.02 303.33,581.31 301.85,579.43 298.97,577.28 294.19,574.77 281.57,569.2 278.13,566.81 275.63,564.22 272.96,560.24 270.34,554.84 262.93,534.56 259.3,526.33 255.42,520.28 250.71,515.68 246.59,513.22 242.1,511.56 236.22,510.37 230.84,509.88 212.25,509.93 176.29,511.57" fill="none" stroke="#ffffe0" stroke-width="2"/><polyline id="SvgjsPolyline5334" points="290.32,573.16 278.45,568.94 266.41,565.24 261.71,564.28 258.16,564.6 256.64,565.55 255.22,567.48 253.74,572.64 253.45,581.63 254.67,589.31 256.03,592.64 257.92,594.95 259.99,596.13 263.53,596.73 268.91,596.38 276.01,595.2 284.2,593.35 292.24,590.9 297.21,588.79 300.77,586.58 302.42,584.85 303.13,582.6 302.27,580.4 299.57,578.05 295.78,576.26 292.26,575.63 289.96,576.24 288.36,577.98 287.42,581.43 287.65,585.01 288.49,587.25 290.15,588.94 292.46,589.51 294.83,589.22" fill="none" stroke="#ffffe0" stroke-width="2"/><polyline id="SvgjsPolyline5335" points="297.61,576.49 291.63,573.69 282.07,570.15 251.78,560.48 244.8,558.72 241.22,558.7 239.08,559.73 237.3,562.12 236.04,566.12 235.45,570.88 235.36,577.47 235.76,582.86 236.68,588.18 237.74,591.61 239.08,594.29 240.6,596.14 243.12,597.75 247.21,598.61 253.2,598.51 263.93,597.28 275.76,595.27 285.11,593.11 291.99,590.99 298.04,588.36 301.47,585.96 302.6,584.56 303.13,582.86 302.73,581.13 301.66,579.69 299.28,577.87 296.59,576.55 293.71,575.73 291.33,575.73 289.22,576.81 287.97,578.83 287.4,581.77 287.73,585.34 288.67,587.54 290.45,589.09 292.79,589.51 295.16,589.14" fill="none" stroke="#ffffe0" stroke-width="2"/><polyline id="SvgjsPolyline5336" points="287.07,571.92 264.38,564.13 260.06,562.05 256.69,559.55 253.55,555.93 251.05,551.84 242.02,531.56 238.27,524.73 233.32,518.73 227.94,514.94 224.07,513.31 220.02,512.2 208.71,510.9 186.52,511.04 169.77,512.26" fill="none" stroke="#ffffe0" stroke-width="2"/><polyline id="SvgjsPolyline5337" points="269.91,566.18 231.12,553.53 226.46,552.4 223.47,552.33 221.77,552.88 219.98,554.45 218.1,558.84 217.1,567.16 217.28,576.76 218.58,586.26 220.55,592.55 223.18,596.53 225.06,598.01 227.24,599 232.56,599.86 242.75,599.57 257.67,598.12 271.91,596" fill="none" stroke="#ffffe0" stroke-width="2"/><polyline id="SvgjsPolyline5338" points="236.85,555.34 215.5,547.36 209.18,545.46 206.2,545.21 204.44,545.56 202.9,546.47 201.41,548.34 199.65,554.05 198.99,563.02 199.48,574.4 200.98,584.48 202.85,590.81 205.48,595.5 208.61,598.26 213.09,599.93" fill="none" stroke="#ffffe0" stroke-width="2"/><polyline id="SvgjsPolyline5339" points="293.18,599.7 296.07,594.45 302.22,587.09 303.68,584.49 303.81,582.71 302.84,580.54 301.17,578.83 298.7,577.12 292.8,574.18 284.4,570.96 246.73,558.73 229.19,552.55 216.37,547.45 197.11,539.08 192.52,537.71 188.94,537.5 186.68,538.27 184.6,540.39 183.21,543.7 182.39,547.82 181.9,559.79 183.26,575.93 185.52,586.48 188.36,593.08 190.14,595.49 192.37,597.48 195,598.92 198.43,599.97" fill="none" stroke="#ffffe0" stroke-width="2"/><polyline id="SvgjsPolyline5340" points="419.65,599.77 424.07,572.53 425.29,556.39 425.08,543.79 424.12,529.42 422.74,516.3 420.77,503.85 418.23,493.36 414.82,483.75 411.02,475.59 400.5,455.37 394.19,439.81 378.1,388.26 375.72,378.35 374.56,370.64 373.93,357.46 374.88,340.69 377.14,322.84 383.13,284.91 384.33,273.57 384.86,263.99 384.77,251.99 383.76,240.04 382.14,229.97 379.35,218.3 375.19,205.78 370.43,194.76 364.45,183.68 358.15,174.18 350.98,165.32 343.34,157.7 337.44,153.59 331.28,151.31 325.31,150.91 319.41,151.95 312.68,154.49 304.31,159.17 294.05,166.49 282.12,176.53 274.95,183.78 269.58,190.99 266.16,197.99 264.03,205.48 263.31,212.63 263.86,219.8 265.54,226.18 268.66,232.65 272.64,237.9 277.56,242.29 283.21,245.68 290.55,248.3 297.66,249.37 305.44,249.07 312.44,247.44 319.53,244.23 325.34,239.99 330.16,234.66 334.02,227.9 336.3,220.46 336.95,212.1 335.69,203.21 332.6,194.77 327.85,187.15 325.03,184.03 322.28,181.72 319.2,179.87 315.84,178.58 312.3,177.94 308.11,177.99 303.98,178.75 299.45,180.31 295.14,182.43 290.6,185.35 286.45,188.79 283.18,192.31 280.47,196.26 278.91,199.5 277.69,203.52 277.2,207.08 277.31,211.27 278.01,214.8 279.53,218.71 281.42,221.77 284.22,224.89 288.08,227.72 292.46,229.68 297.13,230.72 301.93,230.81 306.06,230.12 310.56,228.45 314.61,225.9 318.39,222.06 321.1,217.41 322.68,211.64 322.77,206.25 321.46,200.41 319.11,195.56 315.68,191.41 311.18,188.46 305.96,187.22 300.6,187.72 295.02,189.88 290.13,193.33 286.61,197.41 284.31,202.28 283.59,207.6 284.41,212.32 285.61,215.06 287.72,217.97 290.43,220.33 293.59,222.03 297.05,223.02 300.63,223.26 304.19,222.76 307.02,221.77 310.58,219.57 313.46,216.53 315.2,213.39 316.29,209.34 316.3,205.16 315.29,201.09 313.32,197.39 310.42,194.38 307.29,192.62 303.19,191.81 299.03,192.32 295.69,193.63 292.24,196.01 289.5,199.18 287.74,202.98 287.22,206.53 287.55,209.5 288.58,212.32 289.87,214.34 291.99,216.45 294.01,217.74 296.81,218.79 299.78,219.17 302.76,218.88 305.6,217.93 308.6,215.96 310.58,213.73 312.17,210.51 312.74,207.57 312.51,203.99 311.32,200.61 309.63,198.14 307.36,196.19 304.63,194.96 301.67,194.57 298.71,195 295.93,196.13 293.06,198.27 290.89,201.14 289.83,203.93 289.55,206.31 289.82,208.69 290.92,211.47 292.35,213.39 294.2,214.92 296.34,215.98 298.67,216.54 301.07,216.57 303.41,216.07 305.58,215.06 307.46,213.58 309.24,211.18 310.25,208.36 310.44,205.98 309.92,203.03 308.93,200.85 307.44,198.97 305.53,197.53 303.31,196.66 300.33,196.46 297.99,196.98 295.34,198.37 293.18,200.44 291.95,202.49 291.27,204.79 291.23,207.18 291.82,209.5 292.68,211.08 295.79,213.84 299.82,214.88 303.89,214.01 305.89,212.69 307.45,210.88 308.46,208.71 308.8,206.95 308.69,204.56 307.95,202.28 306.62,200.3 304.77,198.78 303.12,198.06 300.75,197.74 298.39,198.13 296.23,199.16 293.38,202.19 292.53,204.42 292.35,206.21 292.77,208.56 293.56,210.17 296.16,212.61 298.4,213.46 300.19,213.62 302.54,213.2 304.16,212.42 306.63,209.85 307.49,207.62 307.65,205.83 306.72,202.39" fill="none" stroke="#ffffe0" stroke-width="2"/><polyline id="SvgjsPolyline5341" points="334.8,0.03 336.41,0.82 337.68,2.08 340.05,6.91 341.41,13.35 341.78,21.14 341.17,28.31 339.72,35.36 337.28,42.76 333.76,50.38 326.09,62.56 300.88,94.63 272.42,134.76 263.84,144.79 249.07,159.7 241.25,169.58 235.49,178.71 230.84,187.78 226.5,198.32 223.06,209.19 219.62,225.01 217.69,242.29 217.4,259.69 218.72,278.23 221.34,295.43 225.43,312.96 229.73,326.7 238.81,350.84 241.63,360.64 242.65,366.55 243.14,372.53 243.08,379.13 242.47,385.09 240.72,393.3 238.02,400.61 234.36,406.8 229.89,411.63 226.04,414.5 220.78,417.37 202.31,424.5 193.63,428.58 186.23,433.68 179.59,440.59 174.55,448.04 170.37,456.01 158.62,484.26 154.54,492.94 150.18,500.12 141.81,511.08 139.17,516.46 137.91,521.7 137.4,527.07 137.36,534.87 137.98,545.65 140.66,567.08 142.53,575.88 144.46,582.19 146.34,586.6 148.49,590.2 150.81,592.96 153.58,595.25 156.72,596.99 160.1,598.23 169.54,599.93" fill="none" stroke="#ffffe0" stroke-width="2"/><polyline id="SvgjsPolyline5342" points="337.66,0.26 340.16,4.33 341.81,10.09 342.61,16.63 342.53,24.43 341.57,31.56 339.81,38.54 337.55,44.73 334.18,51.77 326.45,63.9 301.19,95.94 274.02,134.04 265.55,144.16 249.95,159.95 242.09,169.79 236.01,179.43 231.64,187.97 227.73,197.39 224.55,207.08 222.2,216.39 220.36,226.42 219.22,235.95 218.56,247.33 218.56,256.92 219.29,269.5 220.45,279.63 222.22,290.29 224.12,299.08 226.94,309.51 229.78,318.05 234.09,328.6 239.84,339.8 254,362.08 258.29,370.66 259.92,375.8 260.76,380.52 261.02,386.51 260.58,391.89 258.9,398.88 256.13,404.86 252.44,409.57 247.75,413.3 242.42,416.03 236.77,418.04 211.7,424.12 201.97,427.17 197.02,429.31 192.31,431.95 188.42,434.75 184.86,437.98 179.16,444.92 173.66,454.21 168.86,464.55 160.12,485.6 155.56,494.73 151.27,501.23 143.25,510.95 140.58,515.63 139.14,520.2 138.38,525.54 138.17,533.94 138.66,544.12 139.96,557.26 141.36,566.75 143.05,574.98 145.07,581.89 146.91,586.32 149,589.96 151.27,592.75 153.99,595.1 157.65,597.14 161.04,598.34 170.49,599.99" fill="none" stroke="#ffffe0" stroke-width="2"/><polyline id="SvgjsPolyline5343" points="358.06,0.11 361.33,7.19 362.84,9.03 363.94,9.48 365.06,9.14 366.71,7.41 370.65,0.01" fill="none" stroke="#ffffe0" stroke-width="2"/><polyline id="SvgjsPolyline5344" points="362.27,24.34 354.92,39.4 349.76,48.89 343.42,59.07 336.45,68.84 328.19,79.13 303.68,107.91 275.6,143.83 268.41,151.89 254.5,165.98 247.38,174.87 243.17,181.44 239.23,188.85 235.91,196.57 232.69,206.24 230.35,216.17 228.94,225.66 228.28,235.23 228.34,244.23 229.12,253.8 230.52,262.69 232.91,272.6 235.96,281.7 239.56,289.94 243.62,297.3 248.4,304.2 253.54,310.06 259.37,315.23 265.88,319.52 272.4,322.55 278.71,324.48 286.41,325.7 293,325.88 300.17,325.25 306.64,323.98 313.53,321.89 321.26,318.6 327.56,315.14 334.03,310.78 339.63,306.25 345.68,300.43 351.55,293.61 355.75,287.77 359.77,281.09 363.45,273.54 366.22,266.25 368.61,257.57 370.52,244.52 370.59,231.93 368.79,218.26 365.17,204.96 359.86,192.23 352.93,180.31 348.68,174.5 344.4,169.48 340.61,165.63 335.92,161.9 330.59,159.17 324.75,157.9 318.18,158.29 311.84,160.12 304.26,163.72 295.66,169.19 286.63,176.14 278.72,183.49 274.09,189 270.63,194.61 268.34,200.15 266.84,206.57 266.45,212.55 267.18,219.1 268.92,224.84 271.69,230.15 275.42,234.84 280.47,239.07 286.27,242.2 292.56,244.15 299.71,244.92 306.28,244.37 312.63,242.64 318.55,239.73 322.43,236.91 325.45,233.99 328.05,230.71 330.2,227.1 331.85,223.24 332.99,219.2 333.61,215.05 333.73,210.85 333.26,206.08 332.19,201.4 330.3,196.35 328.06,192.11 325.29,188.19 322.4,185.15 319.54,182.97 316.35,181.31 311.12,180.03 305.15,180.3 298.28,182.42 292.49,185.57 286.86,190.04 282.61,195.07 279.88,200.4 278.57,206.24 278.59,210.43 279.42,214.54 281.05,218.4 283.43,221.85 286.47,224.74 290.03,226.96 293.37,228.29 298.08,229.19 304.05,228.91 309.75,227.07 314.27,224.14 317.89,220.16 320.34,215.36 321.51,209.5 321.05,203.54 319.32,198.43 316.43,193.89 312.89,190.67 307.97,188.52 303.2,188.17 297.39,189.56 292.18,192.5 287.92,196.7 285.31,201.41 284.53,204.3 284.29,207.29 284.62,210.27 285.51,213.13 286.95,215.75 288.89,218.04 291.74,220.22 294.45,221.5 298.54,222.4 302.73,222.24 306.73,221.02 309.81,219.17 312.38,216.66 314.52,213.06 315.6,209.01 315.56,204.82 314.45,200.79 312.34,197.17 309.27,194.33 306.02,192.82 302.46,192.34 298.33,193.01 294.04,195.13 290.94,197.94 289.24,200.41 288.3,202.61 287.69,207.34 288.91,211.95 290.19,213.98 292.31,216.09 294.88,217.62 297.74,218.49 300.73,218.67 304.25,217.97 307.42,216.3 309.6,214.25 311.2,211.72 312.12,208.87 312.28,205.29 311.62,202.37 309.96,199.19 307.88,197.04 305.28,195.57 302.36,194.94 299.37,195.16 296.01,196.42 292.35,199.47 291.03,201.47 290.18,203.71 289.85,206.08 290.08,208.47 291.81,212.26 293.47,213.99 296.03,215.52 298.93,216.25 301.33,216.22 304.21,215.42 306.27,214.2 307.98,212.53 309.24,210.49 310.07,207.62 310.1,205.22 309.36,202.33 307.81,199.77 306.04,198.16 303.9,197.09 300.94,196.66 298.58,197.03 294.89,198.97 293.24,200.7 292.05,202.78 291.41,206.89 292.46,210.31 293.92,212.21 295.33,213.32 297.51,214.3 299.88,214.65 303.94,213.73 305.9,212.37 307.42,210.52 308.34,208.31 308.62,205.94 307.53,201.92 306.08,200.02 304.12,198.65 301.83,197.98 300.03,197.96 296.64,199.09 294.77,200.57 293.67,202 292.74,204.2 292.51,205.98 293.33,209.45 295.69,212.12 297.85,213.15 299.62,213.44 303.13,212.79 304.67,211.86 306.28,210.1 307.46,206.74 307.3,204.35 306.69,202.66 304.35,199.98 302.16,199.03 300.37,198.87 296.96,199.9 294.41,202.4 293.38,205.8 293.97,208.72 296.28,211.42 299.66,212.53 303.14,211.76 305.39,209.82 306.6,206.48 305.91,202.99 303.99,200.72 302.39,199.91 300.62,199.61 297.2,200.55 295.06,202.62 294.09,205.43 294.59,208.36 296.45,210.66 298.04,211.49 299.81,211.81 301.59,211.6 303.23,210.88 305.24,208.7" fill="none" stroke="#ffffe0" stroke-width="2"/><polyline id="SvgjsPolyline5345" points="342.41,0.12 344.19,5.21 345.56,12.27 346.08,20.05 345.78,26.64 344.8,33.17 342.98,40.13 340.44,46.87 337.31,53.34 333.35,60.06 328.24,67.47 302.37,99.79 275,137 265.59,147.9 251.65,161.95 243.8,171.8 237.51,182.01 232.57,192.28 228.63,202.98 225.79,213.39 224.06,222.22 222.78,232.34 222.2,242.52 222.31,253.32 223.15,264.09 224.59,274.18 226.8,284.75 229.75,295.14 233.05,304.15 236.82,312.32 240.71,319.08 245.3,325.38 250.28,330.57 254.53,333.9 259.75,336.85 265.96,339.06 272.46,340.12 279.65,340.07 287.37,338.93 295.49,336.82 303.97,333.81 313.27,329.62 322.17,324.64 330.11,319.25 337.1,313.59 343.62,307.38 349.59,300.66 354.3,294.44 359.13,286.85 362.75,279.94 366.02,272.21 368.76,263.64 370.35,256.62 371.4,249.49 371.92,241.71 371.82,233.92 371.1,226.15 369.68,217.88 367.94,210.89 365.33,202.91 361.61,194.06 358.02,187.14 353.26,179.5 348.97,173.72 343.43,167.41 338.58,162.94 334.09,159.95 329.67,158.11 324.36,157.22 318.98,157.58 312.62,159.33 305.54,162.59 296.88,167.97 287.79,174.84 280.19,181.64 274.24,188.38 270.42,194.47 268.11,200.01 266.67,205.83 266.15,211.8 266.71,218.36 268.29,224.14 270.58,229.03 274.45,234.36 280.33,239.46 286.69,242.81 294.19,244.87 301.97,245.28 309.65,244.04 316.88,241.15 323.26,236.7 328.06,231.35 331.53,225.05 333.62,217.56 333.97,209.78 332.67,202.11 329.59,194.31 325.3,187.81 322.82,185.21 319.99,182.98 316.84,181.26 314,180.31 310.44,179.77 306.85,179.88 302.73,180.68 298.77,182.06 294.47,184.2 290.95,186.48 287.24,189.52 284.35,192.57 282.21,195.46 280.24,199.17 279.08,202.57 278.46,206.11 278.4,209.71 278.93,213.27 279.83,216.13 281.43,219.35 284.82,223.53 289.18,226.69 293.61,228.52 298.93,229.4 304.3,229.02 308.88,227.63 313.06,225.28 316.99,221.6 319.57,217.56 321.15,213.04 321.68,208.28 321.03,202.93 319.44,198.41 316.56,193.86 313.03,190.63 308.7,188.6 303.95,188.04 298.66,189.02 293.28,191.65 288.76,195.56 286.07,199.52 284.51,204.04 284.32,208.82 285.57,213.44 287.42,216.52 290.42,219.44 294.09,221.45 297.57,222.36 301.75,222.45 305.83,221.48 309.51,219.49 312.15,217.05 314.4,213.52 315.6,209.51 315.69,205.32 314.91,201.81 313.06,198.06 310.7,195.35 307.7,193.38 304.25,192.39" fill="none" stroke="#ffffe0" stroke-width="2"/><polyline id="SvgjsPolyline5346" points="338.71,0.41 340.91,4.66 342.43,10.46 343.19,17.61 343.09,24.21 342.18,31.35 340.46,38.34 338.25,44.55 334.93,51.61 331.31,57.83 326.22,65.25 303.09,94.38 274.01,134.8 265.5,144.88 249.11,161.58 241.08,172.05 234.93,182.35 229.63,193.77 225.13,206.81 222.05,219.64 220.45,229.71 219.39,241.66 219.16,253.06 219.73,265.64 221.12,278.17 223.07,289.4 225.98,301.65 229.18,311.97 232.65,320.92 237.08,330.1 241.73,337.8 247.15,344.98 252.98,351.02 258.63,355.47 264.42,358.62 270.77,360.36 275.56,360.44 280.84,359.36 286.93,356.84 293.67,352.91 305.89,344.22 323.04,331.09 333.09,322.54 341.67,314.15 347.64,307.41 352.78,300.77 357.76,293.28 362.13,285.42 365.84,277.22 368.64,269.3 370.5,262.35 372.02,254.09 372.96,242.13 372.33,228.95 370.05,215.96 366.02,202.77 360.4,190.18 353.92,179.38 345.35,168.58 341.57,164.73 337.4,161.3 333.28,158.85 329.92,157.56 325.8,156.76 321.61,156.75 316.88,157.56 312.32,159.03 302.68,163.88 296.16,168.16 289.45,173.21 282.61,179.05 277.51,184.13 273.7,188.77 270.8,193.31 268.52,198.21 266.93,203.36 266.07,208.69 265.93,213.48 266.53,218.84 267.75,223.48 269.63,227.9 271.79,231.49 274.81,235.22 278.36,238.44 282.87,241.4 287.24,243.39 291.83,244.77 297.17,245.57 303.16,245.55 307.9,244.83 313.07,243.28 317.42,241.25 323.29,237.11 327.77,232.28 331.16,226.63 333.19,220.99 334.23,214.48 333.97,207.3 332.36,200.29 329.51,193.69 325.5,187.72 323.02,185.11 320.21,182.88 314.8,180.33 308.87,179.58 302.37,180.64 294.68,183.96 287.85,188.83 283,194.14 281.09,197.18 279.63,200.47 278.29,206.91 278.86,213.46 281.09,219.01 283.16,221.95 285.26,224.09 287.64,225.91 290.8,227.63 297.14,229.38 303.72,229.25 308.34,227.99 312.58,225.77 316.22,222.66 319.06,218.79 320.92,214.38 321.7,210.26 321.6,205.47 320.52,200.8 318.51,196.45 315.16,192.24 311.25,189.49 307.27,188.19 303.08,188.02 298.4,189.04 293.56,191.4 289.39,194.81 286.49,198.62 284.68,203.05 284.18,207.81 285.12,212.5 287.09,216.19 290.48,219.56 294.73,221.75 299.44,222.6 303.02,222.33 306.46,221.29 309.58,219.52 312.22,217.07 314.2,214.08 315.43,210.7 315.84,207.13 315.45,203.56 314.04,199.62 312.04,196.63 309.36,194.25 306.68,192.92 303.15,192.25 299.58,192.59 296.19,193.78 292.69,196.08 290.24,198.7 288.49,201.84 287.64,205.33 287.8,208.91 289,212.3 291.13,215.18 294.02,217.3 297.4,218.51 300.38,218.77 303.34,218.34 306.12,217.22 308.55,215.48 310.48,213.19 311.78,210.49 312.38,207.56 312.26,204.57 311.45,201.69 309.97,199.09 307.88,196.95 305.27,195.49 302.35,194.87 299.95,194.99 297.08,195.83 294.49,197.34 292.33,199.41 290.75,201.95 289.9,204.81 289.83,207.21 290.54,210.11 292.07,212.68 294.3,214.67 297.01,215.93 299.97,216.36 302.35,216.09 304.61,215.29 307.07,213.6 308.91,211.25 309.83,209.04 310.2,206.67 310.01,204.28 309.01,201.47 307.64,199.5 305.82,197.95 303.64,196.96 301.27,196.61 298.89,196.9 296.14,198.05 294.24,199.51" fill="none" stroke="#ffffe0" stroke-width="2"/><polyline id="SvgjsPolyline5347" points="326.58,17.22 326.55,18.96 325.87,19.93 325.29,20.01 324.85,18.95 325.07,17.78 326.48,15.89 327.56,16.11 328.07,18.41 327.4,21.32 325.96,23.94 322.9,26.78 318.94,28.06 314.78,27.64 310.91,26.04 305.49,22.28 301.66,18.51 301.8,16.78 303.94,13.9 317.34,0.15" fill="none" stroke="#ffffe0" stroke-width="2"/><polyline id="SvgjsPolyline5348" points="325.17,19.43 325.22,18.25 325.79,17.2 326.3,16.9 326.85,17.86 326.03,20.06 324.98,20.52 324.52,20.13 324.26,18.39 325.26,15.58 327.29,13.41 329.01,13.29 330.15,14.64 330.65,16.36 330.57,21.14 328.96,26.91 325.86,32.72 323.3,36.05 319.97,39.5 304.17,53.32 296.37,62.43 287.89,75.51 271.98,104.42 264.48,116.71 256.14,127.69 240.6,143.54 231.86,154.21 222.95,167.73 214.42,184.25 210.47,193.66 206.62,204.38 203.16,215.87 199.72,229.85 195.16,254.63 189.55,295.65 186.71,313.42 181.82,336.3 176.02,357.11 170.23,373.51 164.49,386.06 159.03,395.37 145.79,414.66 139.81,425.74 134.89,437.98 130.27,452.88 118.49,498.17 116.77,509.43 116.72,520.82 117.67,533.99 119.97,553.05 122.54,567.21 125.04,576.48 127.71,583.16 130.8,588.29 134.95,592.61 140.05,595.73 146.3,597.84 153.98,599.18 163.54,600" fill="none" stroke="#ffffe0" stroke-width="2"/><polyline id="SvgjsPolyline5349" points="325.37,19.8 325.22,18.11 326.32,16.75 326.8,17.06 327,18.23 326.45,19.93 325.71,20.87 324.66,21.4 324.07,21.27 323.32,20.37 323.06,19.2 323.47,16.25 324.96,12.98 326.77,10.59 328.63,9.09 330.34,8.57 332.02,9.11 333.5,10.97 334.57,14.4 334.93,19.18 334.56,23.96 333.47,29.24 332,33.81 330.1,38.22 327.2,43.47 321.26,51.75 306.42,69.06 298.42,79.56 290.75,91.03 274.24,117.5 267.04,127.84 258.94,137.49 244.15,152.38 236.27,162.21 227.62,175.89 223.51,183.9 219.88,192.13 215.75,203.4 212.69,213.75 209.84,226.03 207.52,239.63 205.92,253.33 204.87,267.69 203.52,314.47 202.5,330.64 200.03,349.07 197.73,360.23 195.15,370.1 190,384.81 186.95,391.34 183.66,397.06 177.97,404.78 161.89,422.59 157.11,429.49 153.07,436.85 146.88,451.81 136.21,484.93 128.9,503.97 127.48,508.56 126.33,515.05 125.96,522.84 126.37,533.63 127.3,544.39 130.46,566.35 132.67,575.69 135.03,582.49 137.46,587.31 139.54,590.25 142.49,593.22 145.45,595.27 149.25,597.04 153.86,598.38 165.74,599.97" fill="none" stroke="#ffffe0" stroke-width="2"/><polyline id="SvgjsPolyline5350" points="268.17,0.27 270.09,7.21 271.1,14.33 271.2,21.53 270.55,29.3 268.74,40.55 266.14,52.26 262.97,63.84 259.39,74.66 254.35,86.85 248.51,97.33 244.6,102.64 234.2,114.27 227.38,122.64 219.98,132.83 213.46,142.91 202.76,162.35 194.18,181.51 187.7,198.95 181.95,217.26 176.31,238.11 164.27,285.81 153.78,320.88 145.57,345.34 138.6,363.86 133.07,376.51 121.46,400.21 116.26,412.99 110.79,431.39 105.86,454.87 103.07,471.44 100.87,487.49 100.22,497.06 100.35,506.66 101.96,525.19 104.98,547.79 108.01,563.7 111.34,575.22 114.23,581.81 117.48,586.84 121.68,591.12 126.72,594.35 132.87,596.71 139.9,598.24 147.05,599.12 160.22,599.98" fill="none" stroke="#ffffe0" stroke-width="2"/><polyline id="SvgjsPolyline5351" points="437.9,599.71 443.17,567.75 444.73,551.03 444.89,540.83 444.48,527.64 443.47,513.27 442.12,501.35 439.77,488.36 436.91,477.95 432.94,467.27 424.74,447.94 419.98,434.99 401.78,376.56 397.74,360.88 395.61,347.85 394.37,333.51 393.86,316.72 393.77,279.52 392.57,257.96 390.97,245.46 388.97,234.85 386.19,223.8 383.11,214.07 378.29,201.79 372.52,189.92 366.76,180.08 359.89,170.25 352.15,161.08 343.9,153.23 337.82,149.41 332.1,147.64 328.52,147.36 324.93,147.65 316.88,149.98 307.34,155 297.04,162.26 282.79,174.21 273.89,183.11 270.16,187.81 267.6,191.87 265.48,196.17 263.82,200.67 262.64,205.33 261.92,210.67 261.83,215.47 262.29,220.25 263.32,224.93 264.69,228.9 266.79,233.21 269.08,236.73 272.19,240.38 275.29,243.21 278.7,245.66 282.91,247.96 286.8,249.53 291.43,250.8 296.17,251.52 300.97,251.69 308.11,250.9 315.57,248.64 321.93,245.29 328.38,239.93 333.12,233.76 336.23,227.28 338.03,220.32 338.5,212.54 337.39,204.23 334.75,196.27 330.02,187.93 325.26,182.54 320.37,179.11 314.71,177.18 308.13,177.06 301.18,178.85 296.27,181.09 291.65,183.89 287.84,186.81 284.37,190.11 281.7,193.35 279.48,196.92 277.84,200.78 276.85,204.85 276.54,209.04 276.97,213.21 278.13,217.24 280.02,220.98 282.18,223.86 285.25,226.72 288.79,228.96 292.68,230.54 297.37,231.5 302.17,231.55 306.88,230.68 311.86,228.62 315.79,225.88 319.05,222.37 321.23,218.78 322.85,214.28 323.5,208.33 322.82,202.98 321.03,197.9 318.19,193.32 314.29,189.61 310.57,187.68 305.88,186.78 301.11,187.22 295.49,189.26 290.07,192.99 286.18,197.54 283.95,202.43 283.27,207.77 284.3,213.05 287,217.69 291.08,221.19 294.34,222.71 297.84,223.51 301.44,223.59 304.97,222.93 308.29,221.55 311.24,219.5 313.66,216.85 315.44,213.73 316.57,209.69 316.71,206.1 315.93,201.99 314.19,198.17 311.54,194.94 308.59,192.9 305.18,191.77 301.59,191.63 297.52,192.59 293.32,194.89 290.29,197.79 288.12,201.36 287.09,205.42 287.24,209 288.67,212.93 291.31,216.17 293.78,217.86 296.57,218.95 299.53,219.38 302.52,219.15 305.38,218.27 307.48,217.11 309.73,215.14 311.46,212.7 312.7,209.33 312.97,206.35 312.57,203.38 311.23,200.05 309.43,197.66 307.08,195.81 304.3,194.71 301.32,194.43 298.38,194.95 295.12,196.46 292.39,198.79 290.43,201.79 289.48,205.25 289.59,208.24 290.55,211.07 292.28,213.51 294.12,215.03 296.26,216.1 298.59,216.67 301.58,216.65 303.9,216.04 306.02,214.94 307.84,213.38 309.25,211.45 310.18,209.24 310.58,206.28 310.3,203.9 309.22,201.11 307.39,198.75 305.45,197.35 303.2,196.52 300.82,196.32 298.46,196.73 295.74,197.98 293.48,199.94 291.87,202.46 291.11,205.35 291.21,207.74 291.95,210.01 293.28,212 296.7,214.37 300.82,214.95 304.77,213.64 307.7,210.67 308.63,208.47 308.93,206.1 307.93,202.05 306.56,200.1 305.18,198.94 303.01,197.94 301.24,197.67 298.86,197.92 296.64,198.83 294.74,200.28 293.3,202.19 292.6,203.84 292.28,206.21 292.7,208.57 293.83,210.67 296.59,212.92 300.08,213.7 302.44,213.31 304.07,212.56 306.6,210.05 307.7,206.66 307.63,204.86 306.9,202.58 305.5,200.65 304.07,199.56 300.63,198.67 297.18,199.57 295.27,201.01 294.18,202.44 293.2,205.86 293.4,207.65 294.39,209.82 297.12,212.1 300.63,212.7 303.97,211.47 305.96,209.26 306.8,205.8 305.77,202.39 304.62,201.02 303.13,200.02 300.21,199.47 296.84,200.61 294.52,203.3 293.93,206.22 294.27,207.98 295.12,209.55 297.44,211.41 299.16,211.91 300.96,211.89 303.69,210.74 305.55,208.42 306.06,205.49 305.12,202.67 302.93,200.68 300.03,200.1 297.22,201.05 295.2,203.23 294.51,206.12 295.42,208.93 297.68,210.85 300.61,211.32 302.87,210.56 304.89,208.4 305.47,205.49 304.46,202.71 302.67,201.15 299.76,200.63" fill="none" stroke="#ffffe0" stroke-width="2"/><polyline id="SvgjsPolyline5352" points="514.14,599.85 518.14,573.76 525.05,536.6 527.57,519.99 529.69,496.09 530.56,467.9 529.96,440.31 527.97,417 522.92,381.36 516.14,344.79 507.82,311 494.75,266.07 485.25,237.61 476.61,216.52 470.19,203.63 462.04,189.64 428.59,139.83 409.82,109.82 396.45,85.68 391.01,74.31 387.1,64.89 384.16,56.39 382.12,48.86 380.57,40.61 379.85,32.84 379.89,25.05 380.88,16.11 382.34,9.06 384.93,0.44" fill="none" stroke="#ffffe0" stroke-width="2"/><polyline id="SvgjsPolyline5353" points="510.82,599.66 514.95,572.98 522.03,534.63 524.32,517.99 526.22,491.06 526.51,458.67 525.96,444.88 524.83,430.52 520.6,399.01 513.1,357.69 509.28,340.72 504.92,323.87 493.56,285.31 483.13,253.37 474.7,231.55 465.9,213.15 459.05,201.17 451.61,189.55 413.13,133.73 386.66,93.69 375.04,74.77 363.55,53.71 361.32,50.89 359.33,49.58 357.56,49.41 355.87,50.01 353.47,51.79 350.97,54.38 333.64,75.86 304.53,109.38 276.55,144.63 268.94,153.11 256.27,165.89 251.18,171.8 245.68,179.66 241.01,188.05 236.75,197.97 233.68,207.69 231.73,216.47 230.32,227.18 229.91,236.17 230.24,245.76 231.45,255.88 233.42,265.28 236.21,274.46 239.85,283.34 244.09,291.27 248.81,298.22 253.87,304.15 259.6,309.43 265.97,313.92 272.91,317.47 280.29,319.98 287.35,321.35 294.53,321.81 300.52,321.52 307.04,320.52 314.57,318.47 321.8,315.56 328.68,311.89 335.15,307.54 340.27,303.39 345.9,297.99 351.02,292.11 355.61,285.8 359.62,279.11 363.26,271.55 365.97,264.23 368.27,255.54 369.46,248.44 370.1,240.67 370.14,234.67 368.89,221.54 365.74,208.11 363.4,201.31 360.34,194.13 356.76,187.2 352.66,180.57 347.67,173.82 342.91,168.42 339,164.69 334.64,161.53 330.32,159.45 326.25,158.41 320.87,158.23 314.98,159.33 308.8,161.64 301.41,165.6 292.96,171.32 284.55,178.09 277.69,184.79 272.9,190.94 270.02,196.2 267.82,202.41 266.77,208.31 266.68,214.31 267.6,220.23 269.56,225.89 272.55,231.08 276.47,235.61 282.21,239.94 289.32,243.09 296.37,244.53 304.75,244.4 312.31,242.54 318.75,239.36 324.36,234.86 329.11,228.71 332.04,222.15 333.45,215.1 333.36,207.91 331.7,200.31 328.54,193.19 323.98,186.88 318.89,182.71 313.34,180.49 309.78,180.04 306.19,180.23 302.08,181.11 298.7,182.32 294.4,184.46 290.88,186.75 284.7,192.41 282.21,195.79 280.52,198.96 278.74,205.29 278.56,208.89 278.96,212.46 279.76,215.35 281.25,218.62 284.09,222.48 288.26,225.89 293.15,228.14 298.45,229.14 303.83,228.87 308.44,227.57 313.14,224.94 317.02,221.21 319.78,216.59 321.25,211.41 321.37,206.02 320.21,200.76 317.85,195.91 314.33,191.84 309.72,189.1 305.03,188.18" fill="none" stroke="#ffffe0" stroke-width="2"/><polyline id="SvgjsPolyline5354" points="326.42,17.04 326.76,18.13 326.07,19.77 325.58,20.11 324.83,19.32 324.91,18.13 325.67,16.51 326.53,15.69 327.64,15.82 328.32,18.07 327.81,21.01 325.92,24.74 322.94,27.68 320.3,29.08 317.4,29.84 307.22,30.19 302.55,31.25 297.43,34.33 291.72,40.46 287.77,46.48 283.84,53.9 268.2,88.97 259.56,105.43 255.63,111.46 251.61,116.69 236.32,132.78 226.92,144.46 217.03,159.5 208.85,174.85 204.65,184.14 200.23,195.3 196.33,206.65 192.57,219.3 186.87,242.61 178.01,286.11 173.75,304.83 168.5,324.55 162.01,345.77 155.82,363.31 149.97,377.12 144.78,387.27 133.98,405.98 129.45,415.11 124.84,426.83 121.47,437.72 117.14,455.19 111.51,482.21 109.29,494.61 108.44,503.57 108.61,516.16 110.22,534.09 112.81,553.11 115.74,567.82 118.29,576.44 121.45,583.57 125.2,588.98 129.68,592.96 134.96,595.78 141.26,597.71 150.15,599.12 161.51,599.98" fill="none" stroke="#ffffe0" stroke-width="2"/><polyline id="SvgjsPolyline5355" points="283.36,0.28 295.29,11.23 297.79,12.88 300.09,13.48 302.37,12.8 304.85,11.12 316.77,0.15" fill="none" stroke="#ffffe0" stroke-width="2"/><polyline id="SvgjsPolyline5356" points="456.14,599.59 462.75,559.93 464.55,540.83 464.76,525.83 464.17,509.04 463.03,494.69 461.53,483.39 459.56,473.38 456.93,463.53 445.26,428.84 434.59,392.58 424.12,360.65 419.71,345.69 414.56,322.26 407.5,277.21 403.49,255.99 397.95,234.49 391.74,216.33 386.63,204.16 380.24,191.26 373.26,179.36 365.39,168.03 356.55,157.44 348,149.03 344.7,146.43 341.11,144.25 337.8,142.86 334.89,142.14 328.31,142.04 324.2,142.89 320.23,144.26 311.7,148.63 300.88,156.19 287.08,167.74 274.05,180.14 269.76,185.16 267.01,189.09 264.39,193.81 262.51,198.22 260.08,207.5 259.54,217.06 260.03,221.84 261.04,226.53 262.36,230.51 264.67,235.39 267.27,239.42 269.95,242.65 276.31,248.12 280.42,250.58 284.81,252.53 289.39,253.96 294.1,254.87 301.28,255.25 310.19,254.07 318.11,251.32 324.83,247.38 331.05,241.76 335.61,235.45 338.61,228.91 340.55,220.75 340.84,212.37 339.43,203.5 336.4,195.04 331.54,186.77 326.35,180.97 320.88,177.32 317.51,176.07 314.56,175.5 307.99,175.71 302.77,177.08 298.34,178.93 294.13,181.23 289.2,184.63 284.7,188.6 281.54,192.21 278.92,196.22 277.19,200.05 275.98,204.69 275.62,208.87 276.06,213.64 277.22,217.67 279.07,221.44 281.57,224.8 284.65,227.65 288.72,230.19 293.2,231.88 298.52,232.74 303.9,232.49 308.56,231.33 313.42,229 317.21,226.07 320.32,222.43 322.61,218.22 324.19,212.45 324.36,207.06 323.23,201.18 320.81,195.7 317.58,191.39 313.33,188.1 308.84,186.45 304.06,186.18 298.23,187.51 292.4,190.58 287.52,194.99 284.33,200.05 282.91,205.24 283.1,210.62 283.93,213.5 285.26,216.18 288.8,220.23 291.8,222.21 295.14,223.52 298.68,224.14 302.27,224.05 306.34,223.04 309.56,221.43 312.36,219.18 314.61,216.38 316.4,212.6 317.19,208.48 316.96,204.3 315.77,200.28 313.68,196.65 311.18,194.07 308.1,192.23 304.03,191.26 299.86,191.57 295.38,193.26 291.51,196.07 288.87,199.33 287.21,203.17 286.76,207.33 287.62,211.42 289.75,215.02 291.93,217.07 293.97,218.32 296.79,219.33 299.76,219.71 302.74,219.43 305.59,218.52 308.17,216.99 310.33,214.92 311.95,212.41 313.06,208.99 313.2,205.41 312.59,202.47 311.04,199.24 309.09,196.97 306.62,195.28 303.78,194.36 300.19,194.33 297.3,195.12 294.18,196.89 291.64,199.43 289.91,202.57 289.27,205.49 289.57,209.06 290.73,211.82 292.19,213.71 294.05,215.23 296.19,216.3 298.52,216.87 301.51,216.87 303.83,216.29 305.97,215.22 307.82,213.7 309.28,211.8 310.43,209.04 310.77,206.67 310.44,203.69 309.32,200.92 307.89,199 305.51,197.19 303.26,196.37 300.88,196.17 297.95,196.75 295.29,198.13 293.11,200.17 291.6,202.75 291.01,205.07 291.13,208.06 291.94,210.31 294.68,213.44 296.79,214.56 299.13,215.09 303.26,214.54 306.71,212.22 308.74,208.59 309.06,206.22 308.76,203.84 307.85,201.63 306.38,199.74 304.43,198.36 302.74,197.75 300.35,197.57 298.02,198.08 295.9,199.18 294.13,200.8 292.87,202.84 292.24,205.14 292.23,206.94 292.85,209.24 295.04,212.07 298.25,213.61 300.64,213.78 302.4,213.44 305.47,211.62 307.4,208.61 307.82,206.26 307.66,204.47 306.82,202.23 305.76,200.78 302.75,198.89 300.38,198.59 298.61,198.9 296.96,199.6 295.09,201.09 293.76,203.08 293.23,204.79 293.53,208.34 295.59,211.24 298.25,212.59 301.81,212.57 304.9,210.8 306.66,207.71 306.63,204.15 304.81,201.09 302.24,199.62 300.46,199.39 298.68,199.67 295.66,201.54 293.99,204.68 293.88,206.47 294.3,208.22 296.05,210.62 298.73,211.9 300.52,212.01 302.27,211.61 304.69,209.89 306,207.23 305.9,204.26 304.41,201.69 301.85,200.21 298.88,200.25 296.3,201.71 295.2,203.13 294.57,204.81 294.78,207.76 296.49,210.18 298.63,211.24 301.59,211.18 304.11,209.61 305.44,206.97 305.21,204.02 303.48,201.61 301.31,200.64" fill="none" stroke="#ffffe0" stroke-width="2"/><polyline id="SvgjsPolyline5357" points="532.38,599.54 537.9,563.36 546.4,517.95 549.44,494.75 551.11,473.82 552.28,448.64 552.63,424.05 552.24,405.45 551.21,385.68 549.63,365.34 545.21,324.79 539.97,289.78 522.5,188.07 516.55,151.35 513.79,126.91 513.34,116.12 513.55,106.52 514.84,94.6 517.26,83.46 521.11,72.1 525.86,61.74 530.85,52.85 536.35,44.26 558.44,13.59 567.49,0.16" fill="none" stroke="#ffffe0" stroke-width="2"/><polyline id="SvgjsPolyline5358" points="523.42,599.44 528.15,568.6 536.73,521.99 538.48,508.91 539.97,492.78 541.28,466.41 541.52,440.01 540.68,417.83 538.73,394.52 536.17,372.46 532.9,349.29 526.56,314.47 514.08,260.7 507.64,235.72 502.57,217.82 495.09,195.02 487.03,174.99 480.37,160.88 463.18,127.22 456.07,111.34 447.14,87.14 444.21,77.37 442.3,69.19 441.12,61.48 440.75,55.5 440.96,50.1 442.13,43.61 444.57,36.85 450.81,23.87 456.32,10.57 461.12,0.23" fill="none" stroke="#ffffe0" stroke-width="2"/><polyline id="SvgjsPolyline5359" points="519.37,599.82 523.93,570.17 532.79,521.17 535.13,499.7 536.32,478.73 536.76,450.54 535.72,423.56 532.88,394.91 527.79,359.27 521.42,325.67 512.81,290.1 500.37,244.99 494.39,226.11 489.72,213.13 482.24,195.45 475.18,181.54 466.73,167.02 445.66,132.79 434.7,112.8 425.9,93.74 422.05,83.65 419.13,74.5 416.78,65.2 415.11,55.75 414.21,45.59 414.26,35.99 415.39,25.26 417.45,15.27 420,6.64 423.01,0.12" fill="none" stroke="#ffffe0" stroke-width="2"/><polyline id="SvgjsPolyline5360" points="492.57,599.95 496.21,576.84 502.18,543.77 503.8,531.88 504.83,520.53 505.59,502.55 505.5,481.55 504.65,464.77 502.75,447.48 498.91,426.23 491.99,395.19 486.38,371.86 481.05,352.79 474.45,332.22 454.78,274.27 448.18,256.88 439.87,238.25 429.48,218.64 416.9,197.5 402.3,174.79 389.18,156.15 377.32,141.05 363.63,125.93 353.93,117 350.38,114.76 347.03,113.45 343.48,112.89 339.31,113.22 334.71,114.58 329.83,116.89 324.72,120.02 318.89,124.25 306.63,134.83 270.64,170.96 262.94,179.36 259.07,184.7 255.76,190.41 252.82,196.98 250.59,203.82 249.19,210.27 248.39,217.42 248.34,224.02 249.07,231.18 250.47,237.62 252.38,243.31 255.19,249.28 258.73,254.84 262.56,259.45 266.94,263.56 271.78,267.09 277.02,270 283.15,272.46 289.53,274.12 296.07,274.99 302.66,275.07 312.74,273.63 318.49,271.91 323.47,269.82 331.69,264.89 335.43,261.88 339.27,258.09 345.03,250.43 347.86,245.14 349.67,240.69 351.21,235.52 352.23,230.22 352.75,224.85 352.77,219.45 352.06,212.29 350.41,204.67 347.43,196.18 343.98,189.19 339.41,182.15 334.37,176.21 329.82,172.31 324.55,169.47 318.72,168.14 315.12,168.11 311.56,168.6 303.58,171.19 296.67,174.8 288.29,180.6 281.22,187.08 276.14,193.75 273.13,200.28 271.65,207.31 271.83,214.49 273.78,221.4 277.09,227.09 282.17,232.16 288.39,235.74 295.31,237.68 302.49,237.94 308.38,236.87 313.41,234.92 318.45,231.69 322.3,227.91 325.32,223.45 327.38,218.47 328.49,212.58 328.44,207.19 327.09,200.74 324.15,194.18 320.58,189.38 315.91,185.64 310.89,183.71 305.52,183.38 300.24,184.44 294.22,187.12 288.88,190.98 284.19,196.42 281.49,202.41 280.78,208.35 281.9,214.22 284.82,219.43 289.26,223.43 292.45,225.08 295.3,225.99 298.86,226.51 303.05,226.31 307.1,225.25 310.84,223.36 314.08,220.7 316.31,217.88 317.95,214.68 319.03,210.63 319.21,206.44 318.33,201.73 316.06,196.85 313.39,193.62 309.96,191.22 306.57,190.04 302.39,189.81 298.29,190.67 293.97,192.74 289.85,196.21 287.15,200.16 285.82,204.13 285.71,208.9 286.91,212.91 289.65,216.82 293.02,219.3 295.8,220.43 299.34,221.01 302.33,220.84 305.23,220.09 308.41,218.43 310.68,216.47 312.48,214.08 313.72,211.35 314.41,207.83 314.21,204.25 313.15,200.81 311.3,197.74 309.16,195.64 306.57,194.14 303.68,193.39 300.09,193.48 296.66,194.54 293.13,196.8 290.72,199.45 289.1,202.65 288.47,206.18 288.94,209.74 290.51,212.96 293.01,215.53 295.63,216.98 297.93,217.63 300.92,217.77 303.28,217.35 307.5,215.13 309.52,212.93 310.67,210.83 311.44,207.94 311.44,204.95 310.89,202.61 309.56,199.93 307.55,197.72 305.53,196.44 303.25,195.71 300.26,195.62 297.37,196.38 294.77,197.86 292.63,199.95 291.13,202.54 290.43,205.44 290.53,207.84 291.49,210.66 293.29,213.05 296.86,215.2 299.21,215.67 301.6,215.58 303.9,214.9 305.96,213.69 308.61,210.47 309.4,208.21 309.59,205.83 309.2,203.47 308.24,201.27 306.75,199.4 304.81,198.01 303.13,197.37 300.75,197.11 298.39,197.52 296.21,198.51 293.94,200.44 292.63,202.45 291.9,204.72 291.84,207.11 292.48,209.42 293.77,211.43 295.59,212.98 297.22,213.75 299.56,214.22 301.36,214.12 303.64,213.4 305.16,212.45 307.4,209.67 308.12,207.39 308.2,205.59 307.9,203.82 306.91,201.64 304.34,199.18 302.68,198.5 300.3,198.27 298.53,198.59 296.37,199.61 294.59,201.21 293.61,202.72 292.89,204.99 292.86,206.79 293.27,208.54 294.48,210.6 297.39,212.65 300.93,213.07 304.25,211.77 306.52,209.03 307.17,205.53 306.06,202.14 303.41,199.77 299.91,199.16 296.58,200.43 294.27,203.14 293.65,206.64 294.09,208.38 295.01,209.92 296.32,211.14 297.93,211.95 300.89,212.22 302.61,211.74 304.14,210.79 305.9,208.4 306.29,204.87 305.11,202.14 302.79,200.29 299.85,199.85 297.06,200.86 295.71,202.05 294.76,203.57 294.29,205.3 294.38,207.09 295.73,209.74 298.22,211.34 301.19,211.49 303.37,210.54 305.25,208.24 305.71,205.31 304.64,202.55 302.3,200.73 299.35,200.48" fill="none" stroke="#ffffe0" stroke-width="2"/><polyline id="SvgjsPolyline5361" points="503.7,599.81 507.58,574.91 514.65,535.95 517.27,512.7 518.24,491.12 518.25,470.13 517.45,452.14 515.74,434.83 512.13,411.71 505.99,379.9 500.89,357.07 495.64,337.35 485.15,303.54 472.51,266.02 464.46,245.33 456.31,227.95 446.86,211.24 434.46,192.11 408.83,155.13 391.12,130.91 375.85,111.63 361.64,95.36 356.2,90.67 353.52,89.35 351.19,88.8 346.43,89.18 340.41,91.84 332.57,97.36 323.03,105.59 308.54,119.94 279.06,153.14 260.67,172.08 254.32,180.05 248.56,189.88 244.43,199.85 241.6,210.27 240.32,218.56 239.86,226.35 240.23,235.34 241.59,244.23 243.78,252.33 246.9,260.13 250.64,266.97 255.19,273.29 260.53,278.98 266.58,283.89 273.25,287.92 279.84,290.8 287.33,292.97 295.04,294.13 302.83,294.27 309.39,293.59 315.84,292.2 321.54,290.33 327.03,287.9 332.25,284.96 337.16,281.51 342.15,277.2 347.05,271.93 350.65,267.13 354.06,261.48 356.65,256.07 358.91,249.88 360.55,243.49 361.57,236.97 361.97,230.98 361.82,223.79 361,216.64 358.94,207.26 355.85,198.18 351.77,189.5 347.09,181.81 341.21,174.23 335.68,168.75 330.2,165.09 324.55,163.12 320.98,162.7 317.38,162.83 313.26,163.59 308.13,165.29 302.7,167.84 297.52,170.86 286.39,179 278.62,186.48 273.37,193.77 270.13,201.5 269.21,205.6 268.79,209.77 268.95,214.57 269.67,218.7 270.94,222.7 273.05,227.01 275.84,230.91 279.23,234.3 282.62,236.78 286.86,239.02 291.39,240.59 296.1,241.48 300.29,241.71 305.67,241.23 309.75,240.26 314.22,238.53 318.38,236.14 321.67,233.54 326.02,228.59 328.68,223.9 330.71,217.63 331.37,211.68 330.83,205.11 329.27,199.32 326.46,193.36 322.56,188.05 317.96,184.23 312.44,181.95 306.47,181.55 300.61,182.77 294.08,185.76 287.82,190.39 283.51,195.37 280.59,201.27 279.51,207.75 280.3,213.68 282.81,219.1 286.85,223.51 289.85,225.5 292.58,226.73 298.43,227.98 304.4,227.59 307.84,226.57 310.55,225.28 314.4,222.43 316.77,219.73 318.85,216.09 320.11,212.09 320.51,207.32 319.96,203.16 318.62,199.18 316.55,195.54 313.27,192.05 309.67,189.92 305.61,188.92 301.42,189.07 296.83,190.43 292.19,193.16 288.37,196.96 285.99,201.11 284.9,205.77 285.15,209.95 286.54,213.89 289.01,217.28 292.33,219.83 296.8,221.5 300.98,221.8 305.65,220.78 308.33,219.44 311.11,217.16 313.25,214.28 314.45,211.54 315.07,208.6 315.03,205.01 314.17,201.52 312.54,198.32 310.16,195.63 307.13,193.72 303.66,192.82 300.67,192.88 297.2,193.81 293.57,195.89 290.99,198.39 289.1,201.45 288.12,204.9 288.17,208.49 289.04,211.35 290.99,214.35 293.77,216.62 297.1,217.96 300.67,218.29 304.19,217.58 306.35,216.55 308.7,214.69 310.49,212.29 311.44,210.09 311.93,207.75 311.86,204.76 311.29,202.43 309.95,199.75 307.96,197.52 305.42,195.95 302.52,195.23 300.12,195.29 297.24,196.09 294.64,197.58 292.49,199.66 291.19,201.67 290.25,204.51 290.16,207.49 290.98,210.37 292.25,212.4 294.46,214.4 297.18,215.65 300.14,216.04 302.52,215.73 304.75,214.87 306.71,213.5 309.14,210.11 309.8,207.8 309.88,205.41 309.39,203.07 308.36,200.9 306.82,199.07 304.85,197.72 302.58,196.98 300.19,196.9 297.86,197.45 295.73,198.55 293.93,200.13 292.56,202.09 291.74,204.34 291.57,206.73 292.08,209.06 293.24,211.16 294.94,212.83 297.06,213.95 299.4,214.45 301.78,214.29 305.52,212.47 306.76,211.16 307.92,209.07 308.43,205.54 307.14,201.58 306.01,200.18 304.06,198.8 301.77,198.12 299.97,198.11 298.22,198.5 296.1,199.6 294.75,200.78 293.4,202.76 292.81,204.46 292.69,206.84 293.33,209.14 294.3,210.66 295.6,211.89 297.74,212.97 299.5,213.3 301.88,213.08 305.02,211.38 306.97,208.4 307.26,204.85 305.86,201.57 303.02,199.42 299.49,199.08 296.23,200.52 294.04,203.33 293.54,206.85 294.97,210.1 297.92,212.09 301.47,212.26 304.15,210.97 305.37,209.66 306.18,208.05 306.46,205.09 305.04,201.84 302.63,200.1 300.88,199.71 299.1,199.86 297.42,200.51 295.99,201.6 294.43,204.13 294.27,207.09 295.58,209.75 296.96,210.89 298.62,211.57 301.59,211.51 304.16,210.02 305.65,207.46 305.67,204.49 304.23,201.9 302.24,200.6 299.28,200.4 296.63,201.73 294.98,204.19" fill="none" stroke="#ffffe0" stroke-width="2"/><polyline id="SvgjsPolyline5362" points="474.29,599.98 482.56,550.87 484.61,529.98 484.99,511.39 484.57,495.19 483.29,477.84 481.49,464.77 479.5,454.77 476.75,443.7 457.78,375.49 440.85,324.22 427.95,278.61 423.04,262.54 416.25,243.31 408,223.35 400.58,207.61 391.84,191.2 383.43,177.35 373.44,163.11 362.29,149.76 352.04,139.66 345.24,134.76 342.51,133.51 339.04,132.55 334.86,132.26 330.7,132.79 325.55,134.38 321.18,136.38 315.99,139.37 310.06,143.45 297.98,153.32 277.72,172.06 267.86,182.54 264.34,187.4 261.12,193.15 258.61,199.25 256.97,205.02 256.04,210.34 255.64,216.32 255.93,222.31 256.94,228.22 258.91,234.52 261.2,239.41 264.08,243.97 267.53,248.12 271.5,251.78 276.41,255.21 281.76,257.92 286.85,259.72 292.71,261.01 298.08,261.53 304.67,261.34 310,260.51 318.57,257.79 326.43,253.45 332.83,248.02 338.04,241.45 341.85,233.98 343.51,228.84 344.36,224.73 344.94,215.76 343.9,206.83 340.94,197.09 336.58,188.55 330.78,180.91 328.18,178.43 324.79,175.96 322.13,174.58 318.72,173.43 315.17,172.89 311.57,172.94 308.02,173.5 303.42,174.87 295.33,178.78 290.81,181.73 286.12,185.48 282.29,189.28 279.33,193.05 276.93,197.21 275.41,201.12 274.38,205.8 274.16,209.99 274.58,214.16 275.89,218.77 277.75,222.53 280.63,226.37 284.2,229.57 287.77,231.76 292.23,233.52 296.93,234.47 302.32,234.54 307.62,233.57 312.62,231.56 317.56,228.17 321.19,224.19 323.86,219.5 325.45,214.35 325.92,209.58 325.3,203.63 323.44,197.93 320.43,192.76 316.23,188.5 312.05,186.18 306.78,185.12 301.42,185.67 296.34,187.46 290.75,190.94 286.14,195.64 283.25,200.88 282.06,206.74 282.64,212.08 283.66,214.9 285.15,217.5 287.08,219.8 289.37,221.73 294.76,224.31 298.89,225.02 302.48,224.89 306.55,223.88 309.77,222.3 313.05,219.68 315.28,216.86 317.07,213.08 317.85,209.57 317.85,205.38 316.91,201.29 314.77,197.01 311.98,193.88 308.97,191.93 305.54,190.86 301.36,190.8 297.31,191.86 293.12,194.18 289.66,197.49 287.49,201.08 286.34,205.71 286.67,209.88 288.25,213.75 290.98,216.93 294.54,219.11 297.42,219.96 300.4,220.19 303.95,219.64 306.72,218.51 309.18,216.8 311.19,214.58 312.66,211.97 313.5,209.1 313.65,205.51 312.88,202.01 311.24,198.81 309.25,196.58 306.76,194.92 303.91,194.02 300.92,193.91 297.43,194.75 294.28,196.47 291.67,198.94 290.07,201.47 289.04,204.91 289.14,208.49 290.39,211.85 292.68,214.6 295.2,216.22 298.05,217.12 300.44,217.28 305.06,216.1 307.53,214.42 309.11,212.62 310.26,210.52 310.91,208.21 311,205.22 310.29,202.32 308.84,199.7 307.18,197.98 305.14,196.72 302.85,196.04 300.45,195.97 297.55,196.68 294.94,198.14 292.81,200.24 291.35,202.85 290.79,205.18 290.83,207.57 291.75,210.41 293.55,212.8 295.49,214.21 297.72,215.07 300.09,215.35 304.15,214.39 307.38,211.77 308.58,209.7 309.19,207.38 309.19,204.99 308.58,202.68 307.4,200.59 305.69,198.92 304.14,198.02 301.82,197.42 299.43,197.53 297.16,198.27 295.15,199.57 293.54,201.34 292.46,203.48 292.03,205.83 292.31,208.21 292.99,209.87 294.45,211.76 296.41,213.13 298.69,213.86 300.48,213.95 303.91,212.96 306.57,210.58 307.42,209 307.95,206.67 307.77,204.28 307.17,202.59 304.91,199.83 301.61,198.51 299.81,198.52 297.52,199.18 295.52,200.5 294.33,201.85 293.3,204 293.01,205.78 293.8,209.24 294.84,210.71 296.75,212.15 300.22,212.93 303.64,211.93 305.81,209.89 306.98,206.53 306.33,203.02 304.02,200.32 301.23,199.32 297.72,199.93 294.99,202.21 293.78,205.56 293.93,207.34 294.58,209.01 295.69,210.42 297.15,211.45 300.05,212.13 303.45,211.11 305.47,208.93 306.23,206.06 305.57,203.16 303.63,200.92 300.82,199.96 297.91,200.53 296.41,201.51 295.25,202.88 294.39,205.72 295.07,208.6 297.15,210.72 299.41,211.46 302.34,210.99 304.62,209.1 305.6,206.3 305.02,203.39 303.02,201.21 300.15,200.49 297.34,201.42" fill="none" stroke="#ffffe0" stroke-width="2"/><polyline id="SvgjsPolyline5363" points="550.54,599.82 556.67,558.27 565.28,512.88 568.34,493.93 571.61,464.71 574.43,426.42 575.97,393.46 576.47,356.86 576.02,320.26 574.37,251.88 574.24,221.29 575,192.5 576.84,164.96 579.94,138.14 584.34,112.11 590.24,85.15 599.99,46.77" fill="none" stroke="#ffffe0" stroke-width="2"/><polyline id="SvgjsPolyline5364" points="541.33,599.97 546.92,562.59 555.5,517.19 558.77,495.24 561.91,459.98 563.79,417.43 563.63,379.63 561.75,339.48 559.21,305.97 552.17,230.7 549.68,192.99 549.03,162.4 550.02,137.82 551.49,123.5 553.53,110.46 556.57,96.39 560.07,83.66 567.24,62.65 583.85,20.83 591.21,0.53" fill="none" stroke="#ffffe0" stroke-width="2"/><polyline id="SvgjsPolyline5365" points="528.06,599.46 533.34,565.07 541.96,518.46 543.65,505.98 545.21,489.85 546.69,463.5 547.19,435.3 546.65,413.71 544.85,387.37 541.66,356.94 537.99,330.19 534.18,307.71 527.68,274.75 517.09,225.48 508.76,191.07 503.46,171.99 490.79,131.32 486.34,115.13 483.33,99.22 482.27,84.86 482.86,72.88 484.62,62.24 487.56,51.85 491.58,41.83 497.16,31.21 503.36,21.64 511.76,10.7 520.88,0.35" fill="none" stroke="#ffffe0" stroke-width="2"/><polyline id="SvgjsPolyline5366" points="536.61,599.69 542.48,561.14 550.82,516.92 553.72,496.12 555.67,474.61 556.99,451.85 557.7,430.87 557.84,412.87 556.58,375.09 553.28,332.62 549.51,299.24 538.5,216.57 534.08,175.4 532.87,158.65 532.34,144.86 532.4,131.66 532.93,121.48 534.25,109.55 536.44,97.76 539.72,85.59 543.51,74.84 552.35,55.14 572.28,17.49 580.65,0.22" fill="none" stroke="#ffffe0" stroke-width="2"/><polyline id="SvgjsPolyline5367" points="530.08,599.45 535.44,564.46 543.81,519.64 547.02,494.04 548.86,466.51 549.63,440.72 549.54,420.92 548.6,398.74 546.96,377.21 544.6,353.93 541.91,332.49 538.76,311.73 531.83,273.35 520.09,213.9 501.55,130.13 498.77,111.75 498.16,102.77 498.19,94.37 499.39,82.44 501.89,71.32 505.92,60.03 510.98,49.82 517.02,40.15 525.3,29.12 550.7,0.32" fill="none" stroke="#ffffe0" stroke-width="2"/><polyline id="SvgjsPolyline5368" points="525.82,599.6 530.72,567.58 538.86,523.93 542.06,498.94 543.45,479.79 544.38,454.61 544.38,431.21 543.55,411.43 542.27,394.68 540.05,373.19 537.17,350.58 534.06,330.41 526.76,292.72 514.1,237.14 506.1,206.37 498.85,182.86 492.92,166.51 477.09,128.25 470.92,111.35 467.07,97.47 464.54,83.91 463.57,73.16 463.7,62.97 464.72,53.42 467.03,42.27 470.26,31.96 474.88,20.89 480.11,10.77 486.32,0.5" fill="none" stroke="#ffffe0" stroke-width="2"/><polyline id="SvgjsPolyline5369" points="520.04,599.66 525,567.64 533.12,523.38 535.01,508.5 536.46,490.56 537.5,461.18 537.2,435.39 535.82,413.83 532.77,386.4 529.57,363.83 526.41,344.89 519.4,311.42 511.99,281.73 504.97,255.66 499.25,236.08 493.85,219.54 485.82,198.85 477.79,182.08 470.18,168.46 448.5,132.49 441.01,118.81 435.94,108.6 431.54,98.74 427.4,88.11 424.42,78.99 422.13,70.29 419.69,56.1 419.02,42.93 419.85,30.96 422.23,18.6 424.78,11.88 427.94,7.54 430.89,5.48 438.06,2.43 441.56,0.12" fill="none" stroke="#ffffe0" stroke-width="2"/><polyline id="SvgjsPolyline5370" points="516.73,599.8 521.01,571.93 527.74,535.96 530.32,519.36 532.32,499.06 533.49,472.69 533.43,445.69 531.74,418.75 527.93,387.78 521.89,351.08 514.71,318.26 503.17,275.39 492.12,239.24 487.09,225.11 482.61,213.98 476.29,200.38 468.2,185.66 435.64,135.27 422.53,113.05 416.33,101.4 410.6,89.51 406.59,80.13 403.06,70.56 400.46,61.95 398.24,51.99 397.05,43.08 396.69,34.69 397.1,26.3 398.38,17.39 400.46,8.64 403.23,0.08" fill="none" stroke="#ffffe0" stroke-width="2"/><polyline id="SvgjsPolyline5371" points="568.79,599.51 575.97,549.01 585.42,498.9 589.35,474.01 593.23,440.64 599.99,368.35" fill="none" stroke="#ffffe0" stroke-width="2"/><polyline id="SvgjsPolyline5372" points="563.47,600 570.5,551.3 581.84,489.95 586.12,456.02 589.96,414.8 593,375.32 597.93,278.24 599.98,247.11" fill="none" stroke="#ffffe0" stroke-width="2"/><polyline id="SvgjsPolyline5373" points="558.93,599.59 565.59,553.87 576.63,494.29 579.16,475.87 581.66,452 585.1,410.14 587.28,374.21 588.42,344.23 590.39,268.05 592.12,231.5 595.3,192.63 599.95,155.72" fill="none" stroke="#ffffe0" stroke-width="2"/><polyline id="SvgjsPolyline5374" points="557.12,599.65 563.52,555.71 574.65,495.54 577.16,477.11 579.56,453.83 582.84,412.56 584.93,374.82 585.91,341.84 587.24,261.45 589.1,218.29 590.77,196.15 593.32,171.69 596.03,151.47 599.99,127.19" fill="none" stroke="#ffffe0" stroke-width="2"/><polyline id="SvgjsPolyline5375" points="586.96,599.74 593.99,546.2 599.97,511.92" fill="none" stroke="#ffffe0" stroke-width="2"/></g></svg>
