<?xml version="1.0" standalone="no"?>
<svg id="SvgjsSvg1001" width="600" height="600" xmlns="http://www.w3.org/2000/svg" version="1.1" xmlns:xlink="http://www.w3.org/1999/xlink" xmlns:svgjs="http://svgjs.com/svgjs" class="svg-paper" viewBox="0 0 600 600"><title id="SvgjsTitle5438">x=y/sqrt(x*x + y*y)|y=(sin(sqrt(x*x + y*y))-cos(x))|dTest=0.0|sd=0.3|sm=0.25|ts=0.01 | generated with FlowLines</title><rect id="SvgjsRect5439" width="600" height="600" fill="#ffffff00"/><g id="SvgjsG5440"><polyline id="SvgjsPolyline5441" points="599.98,326.5 598.72,340.24 596.64,355.7 594.19,369.28 591.41,381.57 587.89,394.29 583.47,407.36 578.92,418.46 574.46,427.63 570.01,435.45 563.95,444.39 557.41,452.22 550.94,458.46 544.27,463.57 537.05,467.85 529.91,470.98 521.87,473.4 511.82,475.04 499.83,475.35 487.29,474.14 474.93,471.71 462.21,468.19 447.46,463.12 405.25,445.88 387.21,439.3 378.58,436.77 369.22,434.63 359.14,433.12 351.36,432.55 343.56,432.49 335.18,432.97 325.06,434.24 315.62,436 295.28,441.21 251.65,454.45 240.01,457.36 229.41,459.41 218.69,460.71 206.1,460.97 195.36,459.9 185.98,457.85 174.14,453.59 162.47,447.44 150.23,438.78 138.6,428.39 127.93,417.02 115.13,401.14 104.3,386.02 85.88,358.64 79.04,349.52 75.81,345.97 72.62,343.25 69.45,341.56 67.11,341.1 65.32,341.23 63.05,342 58.75,345.23 54.21,350.81 49.19,358.98 39.8,377.76 13.69,435.75 7.06,449.21 0.26,461.9" fill="none" stroke="#ffffe0" stroke-width="2"/><polyline id="SvgjsPolyline5442" points="582.03,325.22 580.09,341.3 576.98,357.81 572.98,372.88 568.18,386.46 562.39,398.98 556.87,408.25 549.91,417.27 542.53,424.29 534.5,429.53 526.12,432.77 517.83,433.98 513.03,433.83 508.29,433.1 499.76,430.29 490.9,425.26 483.04,418.78 475.38,410.34 467.53,399.01 460.21,385.24 453.66,369.13 448.58,352.49 444.68,334.31 442.59,318.25 441.77,301.47 442.44,283.49 444.79,265.05 448.9,246.3 454.08,229.69 460.49,214.17 467.87,200.43 476.17,188.68 480.95,183.3 485.74,178.76 489.97,175.41 495,172.13 503.72,168.16 508.35,166.89 513.09,166.16 518.48,166.05 522.66,166.5 527.33,167.57 531.29,168.97 539.19,173.25 547.05,179.73 554.13,187.88 560.98,198.44 567.05,210.82 572.09,224.31 576.31,239.32 579.53,255.2 581.63,270.65 582.93,288.6 583.08,306.6 582.03,325.17" fill="none" stroke="#ffffe0" stroke-width="2"/><polyline id="SvgjsPolyline5443" points="599.88,414.84 594.52,429.49 589.15,441.54 583.5,452.13 576.99,462.21 570.31,470.68 562.76,478.39 554.31,485.11 546.09,490.06 539.56,493.08 531.05,496.01 523.47,497.83 514.58,499.21 497.22,500.24 456.42,499.99 446.84,500.57 436.73,501.91 427.37,504.03 417.73,507.35 409.08,511.5 400.45,516.92 393.35,522.45 385.89,529.4 378.59,537.36 372.2,545.31 365.18,555.04 357.31,567.1 338.22,599.72" fill="none" stroke="#ffffe0" stroke-width="2"/><polyline id="SvgjsPolyline5444" points="532.55,449.73 528.12,451.56 522.95,453.12 513.47,454.55 503.29,454.22 492.73,452 482.11,447.9 472.17,442.32 462.54,435.18 452.93,426.14 443.19,414.74 434.89,402.98 426.3,388.54 418.21,372.47 410.93,355.35 405.05,338.35 401.2,323.23 399.13,308.99 398.78,297.6 399.79,285.05 402.23,272.08 406.3,257.65 412.25,241.3 418.71,226.45 426.3,211.46 434.56,197.53 442.82,185.74 450.88,176.06 459.81,167.18 467.73,160.75 476.26,155.17 486.5,150.18 495.62,147.21 505.07,145.59 513.46,145.45 521.19,146.48 528.11,148.44 535.76,151.9 542.32,156.1 548.75,161.5 554.89,168.07 560.99,176.24 566.27,184.96 571.1,194.62 575.66,205.72 579.31,216.52 582.67,228.66 585.73,242.73 587.96,256.35 589.55,270.06 590.56,284.42 590.93,300.61 590.53,316.21 589.49,330.57 587.7,345.46 585.27,359.65 582.37,372.53 578.4,386.37 573.92,398.78 569.3,409.2 564.18,418.7 558.57,427.22 552.1,435.1 546.06,440.93 539.34,445.96 532.52,449.74" fill="none" stroke="#ffffe0" stroke-width="2"/><polyline id="SvgjsPolyline5445" points="599.98,376.42 596.23,392.18 591.37,408.26 586.54,421.18 580.54,434.27 574.35,445.24 567.5,455.08 559.16,464.52 551.48,471.22 542.47,477.16 534.36,481.04 524.09,484.37 512.88,486.39 501.51,487.13 488.91,486.83 476.36,485.75 442.39,481.84 432.21,481.19 423.21,481.14 413.64,481.83 404.18,483.47 394.98,486.19 386.18,490.01 376.41,495.87 367.02,503.33 357.32,513.14 347.93,524.83 339.82,536.72 330.88,551.65 321.19,569.6 305.95,599.54" fill="none" stroke="#ffffe0" stroke-width="2"/><polyline id="SvgjsPolyline5446" points="443.55,442.28 430.86,432.22 418.99,421.2 407.76,409.52 383.21,382.38 373.44,372.64 362.75,363.93 357.68,360.73 352.86,358.29 347.25,356.18 342.01,354.89 336.06,354.13 330.06,354 318.12,355.05 284.95,360.38 275.97,361.06 267.58,360.96 259.84,360.04 252.27,358.16 245.6,355.48 238.87,351.55 231.97,345.79 226.15,338.93 221.22,330.71 217.61,321.82 215.11,311.33 214.24,301.77 214.71,291.59 216.61,281.58 218.83,274.73 222.07,267.64 225.84,261.51 230.75,255.46 236.03,250.57 240.92,247.1 247.28,243.74 253.47,241.47 259.89,239.95 265.84,239.17 278.43,239.06 290.36,240.31 319.96,245.19 331.92,246.02 338.51,245.64 343.24,244.86 348.45,243.44 354,241.19 359.28,238.33 364.26,234.99 369.9,230.51 376.1,224.85 386.52,214.06 411.9,186.05 426.86,171.32 440.7,159.82 453.08,151.36 463.02,145.79 472.3,141.56 481.34,138.33 490.05,136.07 498.34,134.75 506.72,134.3 515.7,134.92 523.34,136.47 529.04,138.31 534.54,140.72 543.74,146.35 552.36,153.79 560.92,163.82 568.42,175.4 574.9,188.25 581.42,205.02 586.48,222.29 590.63,241.65 593.4,260.64 595.09,280.37 595.64,300.76 595,321.15 593.08,342.05 590.03,361.61 585.8,380.34 581.51,394.71 576.21,408.74 570.01,421.73 563.51,432.52 556.62,441.59 549.08,449.32 540.51,455.87 532.08,460.44 523.61,463.46 513,465.39 502.21,465.57 490.32,463.98 478.75,460.84 466.51,455.91 455.38,450.02 443.83,442.48" fill="none" stroke="#ffffe0" stroke-width="2"/><polyline id="SvgjsPolyline5447" points="599.98,354.42 596.49,373.91 592.23,391.39 586.78,408.54 580.42,424.09 573.49,437.39 565.86,448.88 557.67,458.43 552.86,462.96 548.18,466.71 538.51,472.73 528,477.1 516.93,479.77 504.39,480.93 492.4,480.63 478.1,478.94 463.36,476.18 426.46,467.99 413.43,465.86 403.28,464.93 391.29,464.89 380.56,466.14 370.66,468.56 359.51,472.96 348.58,479.21 337.64,487.61 326.56,498.58 315.97,511.61 306.5,525.48 296.97,541.46 266.08,599.77" fill="none" stroke="#ffffe0" stroke-width="2"/><polyline id="SvgjsPolyline5448" points="395.86,423.2 380.86,413.25 368.95,406.29 358.68,401.34 347.98,397.42 337.51,394.81 325.63,393.14 312.45,392.44 280.66,392.03 271.09,391.23 262.21,389.8 251.79,386.96 242.95,383.25 234.69,378.38 227.17,372.42 221.68,366.88 217.14,361.3 212.47,354.32 208.74,347.47 205.37,339.78 202.82,332.41 200.96,325.45 199.37,317.21 198.36,308.26 198.07,301.07 198.38,291.48 199.23,283.73 200.62,276.05 202.72,267.92 205.25,260.54 208.59,252.84 212.6,245.46 216.58,239.46 221.45,233.38 226.47,228.22 231.98,223.58 237.41,219.84 244.26,216.11 250.9,213.35 261.87,210.27 275.52,208.32 288.71,207.7 316.3,207.45 330.06,206.38 341.28,204.38 352.78,200.98 364.91,195.79 376.99,189.13 388.62,181.71 420.42,160.18 440.52,148.21 450.14,143.31 460.01,138.93 469,135.55 478.18,132.75 486.36,130.86 494.66,129.58 502.44,129.04 509.64,129.17 516.79,129.98 523.24,131.37 529.51,133.41 535.01,135.81 540.25,138.72 545.69,142.45 551.21,147.08 555.87,151.75 560.9,157.7 565.13,163.53 573.03,176.97 579.92,192.29 586.45,211.61 591.21,230.82 594.8,251.51 597.14,273.58 598.1,298.16 597.5,320.95 595.44,343.65 591.94,365.57 587.29,385.42 581.44,403.71 574.41,420.27 568.09,431.85 560.95,442.23 553,451.21 545.28,457.86 536.68,463.33 527.33,467.38 518.05,469.8 506.72,470.96 495.34,470.49 482.92,468.42 470.21,464.86 457.32,459.94 444.31,453.79 429.65,445.58 415.47,436.58 396.14,423.39" fill="none" stroke="#ffffe0" stroke-width="2"/><polyline id="SvgjsPolyline5449" points="599.95,341.75 596.73,363.71 592.28,384.23 586.65,403.21 580.09,419.97 572.15,435.44 564.12,447.38 559.13,453.37 554.95,457.68 550.01,462.05 544.71,465.98 534.77,471.54 528.64,473.97 522.88,475.66 511.66,477.58 498.47,477.93 484.15,476.53 469.43,473.66 453.19,469.35 410.69,456.52 399.59,453.9 387.76,451.96 374.59,451.16 361.43,452.06 349.66,454.39 337.72,458.38 330.6,461.57 323.72,465.24 310.24,474.21 303.69,479.46 296.56,485.89 284.96,498.04 275.44,509.62 264.85,524.17 236.13,568.48 227.66,580.86 220.04,590.89 212.09,599.87" fill="none" stroke="#ffffe0" stroke-width="2"/><polyline id="SvgjsPolyline5450" points="341.83,414.54 331.09,413.5 319.69,413.22 284.32,414.67 271.73,414.7 259.77,413.78 248.57,411.66 242.25,409.76 235.58,407.07 229.2,403.73 223.18,399.78 218.02,395.67 212.39,390.28 208.03,385.33 203.33,379.1 198.22,370.98 193.56,361.91 189.65,352.49 186.13,341.65 183.47,330.57 181.73,319.91 180.73,309.16 180.48,297.76 181.16,285.19 182.36,275.66 184.41,265.06 187.05,255.21 190.39,245.57 194.97,235.14 199.88,226.2 205.24,218.24 213.84,208.24 222.92,200.41 233.12,194.12 244.22,189.59 255.29,186.9 267.8,185.48 281,185.25 313.96,186.68 326.56,186.7 341.51,185.51 355.64,182.77 368.81,178.68 383.75,172.43 428,149.6 445.9,141.14 462.66,134.58 478.78,129.88 489.98,127.77 498.34,126.93 507.33,126.84 516.28,127.73 523.9,129.39 532.38,132.39 539.85,136.22 545.83,140.23 551.37,144.82 556.88,150.34 561.14,155.37 565.75,161.67 569.91,168.26 574.76,177.23 581.9,193.75 585.07,202.81 588.49,214.31 593.2,234.77 596.62,256.7 598.66,280.01 599.18,304 598.27,326.18 595.73,350.04 591.84,371.89 586.62,392.22 580.08,410.91 576.24,419.7 572.18,427.73 567.61,435.49 563.21,441.92 555.93,450.69 548.5,457.67 540.7,463.26 532.2,467.69 523.13,470.82 513.12,472.71 502.94,473.23 491.57,472.44 483.28,471.09 473.36,468.74 455.15,462.67 445.17,458.54 433.2,452.98 392.21,431.68 375.89,424.09 359.5,418.27 350.77,416.09 341.9,414.55" fill="none" stroke="#ffffe0" stroke-width="2"/><polyline id="SvgjsPolyline5451" points="599.98,334.22 598.43,347.93 596.33,361.57 594.15,372.76 591.09,385.6 588.12,395.98 584.27,407.34 580.25,417.37 575.91,426.59 571.27,435 566.04,443.04 561.29,449.23 555.21,455.86 548.92,461.43 542.56,465.94 536.82,469.18 529.09,472.46 519.26,475.13 508.55,476.47 497.75,476.49 485.23,475.16 472.87,472.72 457.82,468.61 444.15,464.11 407.42,450.99 387.81,445.41 376.6,443.32 366.45,442.32 356.26,442.26 345.51,443.26 337.83,444.64 330.27,446.52 321.69,449.26 313.31,452.54 296.62,460.73 279.78,471.13 263.9,482.94 248.91,495.88 234.66,509.62 205.69,539.19 191.47,552.09 183.85,557.92 175.75,563.07 168.23,566.81 160.9,569.46 152.71,571.29 144.35,572.01 135.96,571.69 127.64,570.51 111.37,566.35 79.58,555.48 68.11,551.97 57.63,549.37 46.41,547.37 34.47,546.21 24.87,545.99 12.88,546.5 0.35,547.8" fill="none" stroke="#ffffe0" stroke-width="2"/><polyline id="SvgjsPolyline5452" points="262.99,432.33 254.6,432.65 245.61,432.36 236.68,431.24 229.66,429.65 221.72,426.94 214.67,423.6 208.53,419.85 202.32,415.13 196.6,409.83 191.37,404.05 186.26,397.38 180.75,388.8 175.94,379.81 171.78,370.5 168.23,360.94 165.26,351.18 162.97,341.86 160.97,331.25 159.44,319.35 158.66,307.98 158.54,295.98 159.05,285.19 160.23,273.85 162.17,262.01 165.01,249.74 167.74,240.54 171.42,230.39 175.52,221.05 180.87,210.99 185.71,203.4 191.14,196.23 197.62,189.15 207.25,181.04 212.79,177.46 219.18,174.15 225.31,171.71 231.06,169.98 236.92,168.72 244.06,167.77 254.84,167.35 268.02,168.07 311.4,174.08 327.53,175.51 337.13,175.67 345.52,175.27 353.27,174.41 361.54,172.94 375.45,169.22 388.98,164.31 436.05,143.17 455.54,135.37 473.87,129.69 482.07,127.84 490.95,126.42 500.52,125.67 510.11,125.89 518.43,127.01 526.56,129.09 533.83,131.92 541.73,136.23 548.53,141.15 554.74,146.8 559.97,152.58 564.72,158.77 569.33,165.79 573.75,173.62 581.41,190.56 587.75,209.31 592.8,229.69 596.71,252.76 599.11,277.84 599.77,301.23 598.83,326.4 596.46,349.08 592.42,372.12 586.88,393.61 580.27,412.27 576.66,420.51 572.31,429.06 563.99,442.25 559.16,448.38 554.28,453.66 548.49,458.88 542.19,463.48 535.41,467.33 528.79,470.15 521.32,472.37 513.64,473.75 505.27,474.35 496.87,474.15 488.52,473.26 478.49,471.41 468.61,468.88 458.32,465.61 438.2,457.76 399.98,440.36 386.14,434.57 370.8,429.37 357.37,426.25 349.05,425.06 341.28,424.46 323.89,424.7 311.35,425.93 277.51,430.85 263.18,432.32" fill="none" stroke="#ffffe0" stroke-width="2"/><polyline id="SvgjsPolyline5453" points="599.97,330.5 598.7,343.03 596.69,357.29 594.18,370.86 591.34,383.14 587.76,395.84 584.31,406.07 580.1,416.67 575.5,426.44 571.46,433.8 566.28,441.88 560.81,449.02 554.7,455.63 548.86,460.79 542,465.63 535.14,469.34 528.47,472.04 518.61,474.63 507.29,475.9 495.3,475.66 482.23,473.92 468.77,470.86 454.99,466.71 439.17,461.05 403.33,447.25 392.52,443.64 383.28,441.06 372.12,438.74 360.8,437.43 350,437.23 339.24,438.05 328.58,439.8 316.36,442.85 303.26,447.17 289.33,452.74 275.69,458.98 260.69,466.53 213.34,492.5 196.3,501.34 180.43,508.47 164,514.19 149.41,517.61 133.34,519.61 117.75,520.17 81.15,520.03 70.97,520.56 59.04,521.82 47.2,523.81 33.75,526.88 0.4,536.79" fill="none" stroke="#ffffe0" stroke-width="2"/><polyline id="SvgjsPolyline5454" points="599.96,324.01 598.47,340.74 596.07,357.97 593.26,372.71 589.05,389.59 584.5,403.88 578.95,417.81 573.67,428.58 567.18,439.37 560.72,448.03 553.33,455.9 544.96,462.71 536.73,467.64 528.45,471.14 518.59,473.73 509.07,474.89 498.28,474.9 490.51,474.18 481.63,472.73 472.28,470.58 461.91,467.56 441.07,459.93 403.59,443.8 387.95,437.68 371.29,432.66 357.14,430.05 348.78,429.3 340.38,429.12 330.79,429.57 321.85,430.54 303.53,433.77 263.7,442.61 251.27,444.62 241.71,445.53 230.92,445.65 219.59,444.43 208.55,441.64 199.66,438.01 192.85,434.23 186.45,429.77 180.06,424.32 174.19,418.32 168.46,411.38 162.94,403.53 158,395.3 153.08,385.69 149.24,376.89 145.49,366.76 142.48,357.02 139.58,345.38 137.46,334.18 135.94,322.88 135.03,311.52 134.72,299.52 135.05,288.13 135.98,276.77 137.42,266.07 139.53,254.86 142.74,242.06 145.8,232.33 149.6,222.23 153.49,213.45 157.88,204.91 163.14,196.17 168.31,188.81 174.43,181.42 180.76,175.03 186.73,170.01 193.15,165.58 200.53,161.57 208.88,158.25 218.77,155.76 229.49,154.53 241.48,154.61 251.63,155.6 261.12,157.09 302.73,166.18 320.45,169.33 329.39,170.33 338.38,170.83 347.38,170.72 355.75,170.03 371.09,167.25 386.61,162.62 402.84,156.36 442.57,139.4 453.79,135.16 464.62,131.59 473.87,129.04 484.44,126.81 493.36,125.6 502.34,125.11 513.12,125.68 523.13,127.58 533.3,131.17 542.26,136.03 549.95,141.77 557.67,149.31 565.13,158.7 571.54,168.84 577.78,181.14 583.22,194.47 587.89,208.73 591.81,223.82 595.59,243.25 597.85,259.9 599.34,277.23 599.99,294.62" fill="none" stroke="#ffffe0" stroke-width="2"/><polyline id="SvgjsPolyline5455" points="599.99,328.24 598.6,342.57 596.89,355.05 594.47,368.64 591.58,381.52 588.07,394.24 584.69,404.5 580.09,416.23 575.78,425.47 570.86,434.41 565.62,442.44 560.08,449.54 554.33,455.66 547.99,461.16 541.58,465.59 534.7,469.26 527.44,472.1 516.95,474.64 505.61,475.67 493.62,475.21 481.16,473.38 469.48,470.67 453.99,465.91 438.23,460.1 400.88,445.24 382.03,439.19 370.91,436.7 360.81,435.3 349.43,434.78 338.64,435.31 322.05,437.88 304.65,442.44 284.22,449.47 245.69,464.62 228.23,471.01 209.84,476.53 192.21,480.09 183.87,481.06 175.48,481.52 166.48,481.44 158.1,480.85 143.25,478.78 112.6,472.96 100.68,471.65 89.28,471.75 77.46,473.72 70.58,475.83 64.46,478.3 51.73,485.01 41.13,491.82 13.15,511.48 0.08,520.01" fill="none" stroke="#ffffe0" stroke-width="2"/><polyline id="SvgjsPolyline5456" points="599.99,327.45 598.76,340.59 596.76,355.45 594.44,368.45 591.41,381.91 588.05,394.05 584.27,405.44 580.32,415.49 574.96,426.89 569.94,435.76 564.22,444.21 558.12,451.62 552.17,457.54 545.62,462.79 539.02,466.95 531.99,470.31 525.19,472.67 514.03,474.94 503.26,475.57 490.69,474.76 477.1,472.39 463.18,468.7 450.66,464.54 402.16,445.23 385.14,439.4 375.86,436.95 367.03,435.22 358.1,434.13 349.11,433.72 339.52,434.04 329.97,435.08 319.34,436.98 309.43,439.35 290.47,445.06 243.96,461.12 232.46,464.52 222.56,466.96 213.72,468.66 203,469.97 194.61,470.34 185.02,469.99 171.97,468.08 158.1,464.23 142.53,457.94 114.13,443.64 102.62,438.53 91.7,435.3 86.35,434.59 81.55,434.54 75.03,435.49 67.67,438.05 60.86,441.84 53.65,447.21 41.9,458.35 14.55,488.62 0.21,503.13" fill="none" stroke="#ffffe0" stroke-width="2"/><polyline id="SvgjsPolyline5457" points="599.99,325.35 598.15,344.46 595.77,360.48 592.44,376.95 588.65,391.46 584.19,405.15 579.29,417.4 573.77,428.72 567.28,439.52 560.44,448.63 553.44,456.05 546.06,462.17 537.39,467.53 528.58,471.32 519.31,473.81 509.2,475.11 498.41,475.14 490.05,474.37 481.76,473.02 463.74,468.46 443.92,461.51 404.06,444.87 388.33,438.96 372.19,434.34 363.95,432.73 355.61,431.68 346.03,431.2 337.03,431.43 328.07,432.26 317.99,433.81 299.84,437.84 255.79,449.62 242.85,452.25 232.75,453.62 220.77,454.19 208.81,453.31 197.68,450.9 187.57,447.13 179.6,442.95 172.12,437.95 164.71,431.85 158.71,425.98 151.61,417.84 145.17,409.17 139.32,400.1 133.77,390.14 128.84,379.87 124.09,368.2 120.43,357.4 117.24,345.83 114.75,334.1 113.12,323.42 112.02,311.48 111.67,300.68 112.01,288.69 113.1,276.74 114.72,266.06 117.06,254.91 120.21,243.33 123.83,232.52 128.53,220.83 133.97,209.47 139.54,199.53 145.42,190.47 151.54,182.31 158.25,174.63 165.13,167.95 172.12,162.27 179.61,157.3 187.6,153.15 198.3,149.25 208.86,147.03 219.02,146.2 231.6,146.63 242.91,148.11 255.84,150.71 299.93,162.37 319.28,166.53 328.78,167.89 337.15,168.6 345.55,168.79 354.53,168.36 362.87,167.35 370.54,165.91 379.26,163.72 388.43,160.86 404.71,154.72 443.49,138.6 465.03,131.15 474.88,128.51 483.69,126.68 492.6,125.43 500.98,124.9 512.37,125.37 521.82,127.02 530.39,129.72 539.57,134.15 548.45,140.28 555.53,146.76 563.3,155.89 569.67,165.34 575.71,176.4 581.95,190.69 587.04,205.43 590.87,219.31 594.41,235.73 596.97,251.73 598.91,269.62 599.98,288.79" fill="none" stroke="#ffffe0" stroke-width="2"/><polyline id="SvgjsPolyline5458" points="599.99,327.01 598.71,340.75 596.7,355.61 594.49,368.02 591.48,381.48 587.79,394.78 583.97,406.15 579.49,417.29 574.56,427.56 569.8,435.9 564.43,443.85 558.36,451.28 552.43,457.23 545.91,462.51 539.34,466.71 531.77,470.34 523.8,472.99 513.2,474.97 502.42,475.5 490.45,474.66 476.87,472.26 464.68,469.06 449.88,464.15 403.12,445.35 385.57,439.2 375.73,436.54 366.9,434.76 358.57,433.68 349.59,433.18 341.19,433.33 331.63,434.18 320.97,435.89 312.18,437.81 291.97,443.51 248.63,457.67 237.07,460.89 226.54,463.28 216.47,464.92 206.31,465.79 195.52,465.7 187.17,464.82 178.34,463.06 170.86,460.87 163.01,457.87 154.35,453.74 145.5,448.67 137.47,443.41 106.34,419.92 95.9,412.88 90.08,409.78 85.06,407.8 79.8,406.6 75.61,406.38 69.12,407.49 63.11,410.17 56.77,414.71 49.91,421.41 39.38,434.49 13.74,471.47 0.28,489.12" fill="none" stroke="#ffffe0" stroke-width="2"/><polyline id="SvgjsPolyline5459" points="458.39,467.03 440.34,460.47 402.03,444.79 386.19,439.21 375.78,436.33 367.55,434.63 358.04,433.36 349.66,432.88 342.46,432.94 332.29,433.73 322.21,435.24 312.81,437.2 293.13,442.57 248.5,456.64 236.88,459.65 227.48,461.59 215.59,463.2 206.61,463.65 196.42,463.23 186.34,461.7 176.5,459.05 168.1,455.82 158.97,451.27 150.28,445.95 140.57,438.89 130.91,430.81 120.79,421.43 101.5,402.54 91.1,393.47 85.68,389.71 80.92,387.17 75.8,385.5 71.62,385.13 68.64,385.46 65.76,386.28 60.47,389.08 54.55,394.14 48.3,401.42 38.21,416.32 14.24,457.21 0.24,478.88" fill="none" stroke="#ffffe0" stroke-width="2"/><polyline id="SvgjsPolyline5460" points="428.15,455.46 399.27,443.64 379.91,437.25 370.57,435.04 361.09,433.51 351.53,432.74 343.73,432.69 328.79,433.93 311.11,437.3 292.59,442.36 251.91,455 239.72,458.18 228.55,460.45 216.65,461.95 206.46,462.29 195.69,461.52 186.26,459.76 175.39,456.35 166.09,452.18 155.73,446.12 146.03,439.07 135.59,430.05 125.39,419.89 115.32,408.77 95.46,385.49 85.92,375.53 80.83,371.33 76.73,368.85 72.78,367.43 68.61,367.09 66.23,367.4 63.4,368.37 57.92,372.01 52.95,377.21 46.97,385.47 36.45,403.63 11.27,452.08 0.04,471.23" fill="none" stroke="#ffffe0" stroke-width="2"/><polyline id="SvgjsPolyline5461" points="547.15,461.46 541.19,465.5 534.84,468.88 527.59,471.74 520.64,473.63 512.94,474.88 505.76,475.35 497.37,475.18 488.42,474.25 472.54,471.06 455.31,465.86 437.35,459.09 399.65,443.5 383.21,437.81 374.52,435.47 365.7,433.68 356.77,432.53 348.99,432.08 341.19,432.13 331.62,432.85 313.87,435.79 295.83,440.33 251.46,453.19 239.17,455.96 227.92,457.75 215.35,458.59 202.78,457.9 190.44,455.4 179.17,451.3 168.59,445.67 158.31,438.4 148.45,429.62 138.7,419.04 129.18,406.68 120.33,393.12 112.19,378.43 104.86,362.65 99.73,349.2 95.86,336.58 92.85,323.12 91.16,310.03 90.79,297.44 91.81,283.68 94.08,270.69 97.26,258.5 103.88,239.84 112.96,220.25 123.45,202.07 129.49,193.12 135.63,184.97 141.82,177.63 148.01,171.1 153.7,165.77 160.19,160.44 167.07,155.62 173.8,151.68 180.29,148.57 187.02,146.02 196.88,143.44 206.98,142.07 217.17,141.83 228.54,142.7 240.38,144.63 252.08,147.29 296.48,160.04 315.72,164.71 325.77,166.46 334.11,167.43 342.5,167.9 352.09,167.75 360.46,166.99 368.75,165.65 377.52,163.64 386.16,161.12 404.2,154.56 444.72,137.94 457.72,133.3 469.2,129.83 480.88,127.09 489.77,125.65 499.33,124.85 508.33,124.93 517.26,125.97 526.57,128.27 536.01,132.12 543.76,136.69 551.31,142.6 558.88,150.3 565.85,159.31 571.58,168.46 577.34,179.66 582.87,192.95 587.63,207.18 591.63,222.25 594.79,237.53 597.26,253.54 599.06,270.84 600,287.61" fill="none" stroke="#ffffe0" stroke-width="2"/><polyline id="SvgjsPolyline5462" points="0.02,143.81 9.94,164.34 20.34,188.6 62.04,294.7 63.37,299.28 62.86,302.23 61.05,307.31 23.09,404.57 10.71,433.86 0.04,456.02" fill="none" stroke="#ffffe0" stroke-width="2"/><polyline id="SvgjsPolyline5463" points="564.1,323.61 561.07,339.51 556.53,353.8 553.88,359.84 551.03,365.12 547.7,370.1 544.19,374.21 540.6,377.39 536.53,379.91 532.59,381.34 529.02,381.82 525.44,381.55 521.43,380.33 517.27,377.96 513.59,374.88 508.59,368.91 503.74,360.63 499.58,350.68 496.32,339.76 493.91,328 492.35,315.5 491.69,301.72 491.94,290.33 493.07,277.78 495.27,264.77 498.3,253.16 501.57,244.14 506.09,235 510.86,228.1 515.95,223.03 521.58,219.61 526.19,218.33 530.97,218.35 535.58,219.66 540.24,222.35 544.3,225.91 548.5,230.99 552.87,238.16 556.14,245.23 558.99,253.13 561.53,262.39 563.41,271.8 564.7,281.31 565.51,292.08 565.66,302.88 565.25,312.47 564.16,323.21" fill="none" stroke="#ffffe0" stroke-width="2"/><polyline id="SvgjsPolyline5464" points="542.71,397.02 537.36,400.87 531.92,403.37 526.66,404.55 521.27,404.54 516.02,403.36 510.57,400.87 505.2,397.04 500.49,392.42 495.34,385.8 490.99,378.62 487.3,371.07 483.77,362.15 480.87,353 478.26,342.52 476.19,331.31 474.96,321.79 474.03,309.23 473.83,298.43 474.19,287.64 475.04,277.47 476.4,267.36 478.68,255.59 481.24,245.71 484.43,236.03 487.85,227.7 491.93,219.69 496.46,212.61 500.99,207.03 505.77,202.48 510.69,199.06 516.15,196.59 521.42,195.44 526.21,195.4 530.34,196.15 534.84,197.8 539.01,200.16 543.27,203.47 546.69,206.84 550.86,211.95 553.87,216.43 559.97,228.13 565.16,242.19 569.13,257.89 572.02,276.87 573.17,295.43 572.78,314.02 571,331.32 567.73,348.4 563.12,363.93 557.47,377.16 550.95,387.93 546.79,393.05 542.93,396.83" fill="none" stroke="#ffffe0" stroke-width="2"/><polyline id="SvgjsPolyline5465" points="431.33,357.65 426.42,339.72 423.07,320.82 421.79,303.47 421.87,293.88 422.45,284.9 424.99,267.08 427.31,256.54 430.16,246.12 437.1,226.31 441.38,216.39 445.62,207.78 454.81,192.31 460.1,185.03 465.5,178.6 470.96,173.03 475.93,168.69 481.72,164.42 487.38,161.02 493.89,157.97 499,156.21 504.84,154.85 511.4,154.17 517.99,154.41 523.89,155.44 529.05,157.03 534.53,159.48 539.18,162.22 544,165.78 552.15,173.74 560.05,184.3 567.08,196.85 573.17,211.21 578.59,228.37 582.47,245.33 585.33,263.7 587.05,283.42 587.48,303.21 586.68,322.39 584.57,342.08 581.18,360.97 576.66,378.39 571.51,393.11 565.54,406.21 559.16,417.07 551.47,427.03 543.67,434.49 538.82,438.02 534.15,440.72 529.21,442.91 524.64,444.37 515.77,445.78 506.19,445.36 500.9,444.31 495.74,442.73 486.47,438.49 481.37,435.34 476.06,431.42 467.25,423.28 459.1,413.68 451.33,402.28 443.79,388.63 436.94,373.3 431.46,358.06" fill="none" stroke="#ffffe0" stroke-width="2"/><polyline id="SvgjsPolyline5466" points="599.71,460.05 594.53,468.83 589.8,475.77 583.43,483.73 577.2,490.22 570.37,496.07 564.48,500.21 557.71,504.08 550.03,507.48 537.39,511.26 521.98,513.61 507.61,514.38 472.21,514.67 461.43,515.35 452.5,516.46 443.1,518.37 435.04,520.74 427.23,523.82 419.21,527.91 411.13,533.07 403.55,538.96 395.61,546.28 388.23,554.16 381.69,561.99 373.37,573 355.33,599.91" fill="none" stroke="#ffffe0" stroke-width="2"/><polyline id="SvgjsPolyline5467" points="398.24,371.89 363.19,313.86 359.41,305.71 358.57,302.21 358.44,299.22 359.73,293.38 363.37,285.82 403.5,219.64 412.7,205.59 420.36,194.84 428.92,184.01 436.51,175.51 445.08,167.11 453.35,160.17 461.66,154.26 470.99,148.83 479.71,144.83 489.38,141.59 498.19,139.75 507.15,139.01 516.13,139.52 524.34,141.22 531.67,143.87 539.6,148.12 544.5,151.58 549.51,155.87 554.12,160.59 558.72,166.13 563.55,173 567.27,179.16 574.41,193.69 580.68,210.56 585.64,228.48 589.67,249.09 592.29,270.52 593.53,294.49 593.22,315.48 591.67,335.82 588.61,357.2 584.25,377.12 578.64,395.48 571.79,412.11 564.31,425.8 557,436.05 548.35,445.19 539.79,451.76 535.12,454.47 529.67,456.97 519.9,459.85 509.17,460.99 503.18,460.81 497.22,460.1 485.57,457.28 474.42,452.87 461.85,445.86 450.71,437.73 440.45,428.51 429.46,416.62 419.78,404.38 409.48,389.62 398.24,371.89" fill="none" stroke="#ffffe0" stroke-width="2"/><polyline id="SvgjsPolyline5468" points="381.04,308.41 380.47,301.23 380.75,294.04 381.83,286.93 383.39,280.52 386.56,270.82 390.55,260.79 402.04,236.36 415.07,212.72 421.43,202.54 428.58,192.17 435.18,183.62 441.86,175.92 448.16,169.49 456.25,162.34 462.96,157.29 470.03,152.76 476.38,149.36 483.53,146.25 490.35,143.97 496.77,142.45 502.71,141.59 509.9,141.29 516.48,141.77 522.38,142.87 529.24,145.02 535.24,147.76 540.89,151.17 546.15,155.16 551,159.63 556.22,165.42 564.2,176.67 568.37,183.96 572.08,191.49 578.7,208.22 584.38,227.81 588.53,248.39 591.07,268.02 592.48,290.77 592.38,312.37 590.75,335.11 587.8,355.9 583.16,376.99 577.66,394.75 570.74,411.35 566.57,419.33 562.84,425.49 554.57,436.52 550.04,441.32 545.11,445.7 539.77,449.57 534.58,452.58 530.22,454.59 524.55,456.55 518.71,457.89 513.35,458.55 507.35,458.7 501.97,458.33 496.04,457.41 490.21,455.99 483.39,453.7 477.87,451.35 465.82,444.64 454.75,436.42 444.23,426.59 433.58,414.39 423,399.84 412.86,383.54 400.62,360.83 390.49,339.07 384.2,322.22 382.31,315.27 381.09,308.79" fill="none" stroke="#ffffe0" stroke-width="2"/><polyline id="SvgjsPolyline5469" points="355.12,380.66 348.48,377.88 342.18,375.91 335.14,374.43 328.59,373.63 314.8,373.28 281.23,374.61 271.04,374.14 262.13,372.89 252.29,370.26 243.49,366.43 235.89,361.63 229.09,355.75 224.67,350.85 220.11,344.53 216.54,338.28 213.81,332.27 211.23,324.91 209.6,318.52 208.38,311.42 207.72,303.65 207.72,296.46 208.37,288.69 209.71,281 211.73,273.47 214.23,266.72 217.04,260.76 221.04,254.06 224.98,248.77 231.62,241.85 240.27,235.41 249.38,230.83 259.09,227.76 267.95,226.19 278.72,225.43 290.12,225.54 315.29,226.73 327.28,226.48 334.44,225.68 340.91,224.41 347.24,222.56 353.38,220.14 363.45,214.82 374.8,206.98 385.05,198.65 416.29,171.5 426.18,163.69 435.44,157.05 445.04,150.9 455.54,145.09 465.88,140.31 476.01,136.56 487.02,133.6 497.08,131.99 506.07,131.55 515.04,132.17 522.69,133.66 531.76,136.77 539.23,140.61 547.07,146.14 552,150.53 556.94,155.76 561.81,161.85 565.56,167.28 569.88,174.48 574.01,182.47 578.14,191.8 581.34,200.21 586.97,218.56 591.63,239.65 595.01,263.4 596.61,285.54 596.82,307.74 595.54,331.1 592.85,353.13 588.46,375.5 582.93,395.13 579.51,404.74 575.83,413.6 571.93,421.71 567.84,429.05 563.28,436.1 558.95,441.85 551.22,450.22 542.36,457.38 533.52,462.44 523.97,465.99 513.37,468.03 502.59,468.4 490.67,467.11 478.42,464.19 468.22,460.64 457.26,455.77 446.7,450.08 436.04,443.36 425.8,436.02 416.85,428.96 386.51,402.6 375.85,393.83 365.59,386.52 355.13,380.66" fill="none" stroke="#ffffe0" stroke-width="2"/><polyline id="SvgjsPolyline5470" points="357.95,340.89 352.07,337.91 346.9,336.37 341.54,335.74 334.96,336.09 323.83,338.48 298.64,346.4 288.81,349.11 279.41,351.03 271.06,351.95 263.86,351.97 256.13,350.98 249.78,349.2 244.29,346.79 240.68,344.66 236.36,341.42 232.89,338.11 229.41,333.98 224.18,325.24 220.7,315.67 218.98,306.23 218.67,300.24 218.88,294.85 219.67,288.9 220.89,283.64 222.58,278.52 224.76,273.58 228.09,267.89 231.36,263.59 235.54,259.3 240.27,255.61 245.46,252.62 249.89,250.76 255.66,249.12 262.18,248.15 272.97,248.18 284.82,249.98 298.75,253.63 323.93,261.55 335.07,263.93 341.06,264.27 345.83,263.83 351.05,262.47 355.44,260.54 360.05,257.73 364.78,254.04 374.91,243.82 384.03,232.68 413.44,193.99 423.58,182.14 433.6,171.8 444.38,162.26 456.5,153.44 467.94,146.87 479.49,141.85 490.42,138.61 500.47,136.96 510.06,136.68 519.59,137.81 528.25,140.23 536.96,144.24 544.93,149.56 552.93,156.81 557.3,161.75 561.66,167.48 566.24,174.52 570.33,181.86 577.67,198.28 583.72,216.5 588.85,238.09 592.12,258.83 594.08,280.94 594.58,304.33 593.54,327.1 591.12,348.56 587.46,368.63 582.1,388.93 579.05,398.03 575.32,407.52 567.92,422.59 559.74,435.15 555.19,440.73 550.19,445.91 541.33,453.06 531.9,458.3 521.68,461.74 511.6,463.24 500.81,463.07 488.99,461.05 477,457.2 465.05,451.63 455.78,446.09 446.52,439.44 437.35,431.71 429.15,423.79 420.61,414.53 411.39,403.47 386.43,370.44 376.7,358.25 367.26,348.2 363.19,344.64 358.33,341.13" fill="none" stroke="#ffffe0" stroke-width="2"/><polyline id="SvgjsPolyline5471" points="599.97,346.93 596.66,367.67 592.12,387.55 586.48,405.9 580.49,420.95 573.14,435.38 565.22,447.39 560.69,452.99 556.18,457.8 551.3,462.25 546.07,466.27 541.53,469.19 535.69,472.27 525.01,476.22 513.84,478.45 501.87,479.16 488.7,478.38 472.71,475.82 458.68,472.58 416.94,461.45 405.77,459.17 395.67,457.77 383.69,457.2 371.14,458.15 359.42,460.7 348.16,464.83 335.99,471.31 329.53,475.68 323.38,480.47 311.98,491.11 300.21,504.72 290.67,517.81 280.64,533.47 251.84,584.04 242.1,599.89" fill="none" stroke="#ffffe0" stroke-width="2"/><polyline id="SvgjsPolyline5472" points="599.91,363.44 596.2,381.67 591.69,398.47 586.24,414.36 580.3,428.13 573.76,440.28 566.74,450.73 558.96,459.86 550.03,467.85 541.01,473.77 531.2,478.27 520.24,481.38 508.36,482.98 497.56,483.21 483.2,482.18 470.13,480.35 432.9,473.86 421.57,472.54 413.19,472.08 401.8,472.41 391.12,474 381.88,476.58 372.49,480.54 366.71,483.73 361.2,487.35 350.98,495.69 341.4,505.62 331.75,517.87 321.52,533.4 312.85,548.48 286.61,599.75" fill="none" stroke="#ffffe0" stroke-width="2"/><polyline id="SvgjsPolyline5473" points="599.99,337.24 598.49,349.75 596.32,363.38 593.82,375.73 590.95,387.38 587.55,398.89 583.99,409.08 580.14,418.52 575.75,427.73 571.68,435.08 566.82,442.65 560.98,450.27 555.27,456.43 549.45,461.61 543.12,466.16 536.32,469.98 529.7,472.79 519.3,475.66 506.79,477.11 494.8,476.87 481.12,475.1 469.39,472.59 456.09,468.93 416.24,455.66 403.04,451.65 389.62,448.43 378.35,446.7 367.58,446.06 355.6,446.66 343.78,448.67 332.26,452 319.5,457.26 307.87,463.5 294.88,472.12 283.62,481.09 270.92,492.98 257.16,508.03 244.68,523.4 218.02,558.15 209.91,567.79 202.93,575.23 193.56,583.64 183.62,590.35 174.32,594.5 165.58,596.61 159.01,597.15 150.63,596.66 142.39,595.09 133.21,592.28 116.66,585.21 86.22,569.64 74.29,563.97 61.51,558.78 49.5,554.98 37.79,552.39 25.29,550.85 13.9,550.45 0.11,551.03" fill="none" stroke="#ffffe0" stroke-width="2"/><polyline id="SvgjsPolyline5474" points="599.95,332.37 598.47,346.09 596.54,359.14 591.78,382.05 588.78,393.05 584.87,405.02 580.26,416.75 575.94,425.99 571.02,434.92 566.46,441.97 561,449.13 555.33,455.32 549.54,460.54 542.73,465.45 535.92,469.25 528.72,472.22 518.87,474.85 508.75,476.1 496.76,476.05 484.84,474.68 471.33,471.88 455.77,467.4 441.59,462.5 404.48,448.68 384.93,442.9 374.34,440.8 363.01,439.57 352.21,439.46 340.86,440.49 327.33,443.17 312.44,447.78 296.37,454.45 280.86,462.33 262.83,473.09 247.92,483.16 231.97,494.9 201.09,518.72 186.37,529.07 171.3,537.76 163.64,541.2 156.29,543.81 148.75,545.78 139.87,547.2 132.08,547.71 123.69,547.59 108.18,545.99 69.69,539.72 58.34,538.6 47.55,538.18 36.76,538.43 25.4,539.39 14.7,540.86 0.53,543.44" fill="none" stroke="#ffffe0" stroke-width="2"/><polyline id="SvgjsPolyline5475" points="599.97,329.43 598.53,343.75 596.59,357.42 594.19,370.4 591.37,382.68 588.16,394.24 584.58,405.06 580.89,414.57 575.88,425.47 571.89,432.86 566.43,441.47 560.6,449.1 555.33,454.84 549.08,460.45 542.75,465 535.94,468.81 528.75,471.8 518.31,474.54 507.59,475.74 495,475.48 482.51,473.8 469.06,470.74 454.71,466.38 440.04,461.08 402.05,446.21 383.76,440.39 372.64,437.89 361.34,436.37 350.55,435.95 339.18,436.6 329.67,437.95 318.54,440.37 306.44,443.87 295.67,447.61 270.7,457.88 233.05,475.11 215.44,482.74 199.73,488.7 186.56,492.79 170.17,496.46 155.29,498.33 138.51,499.02 98.31,498.6 85.75,499.5 73.9,501.36 61.1,504.59 47.5,509.29 33.1,515.29 0.28,530.09" fill="none" stroke="#ffffe0" stroke-width="2"/><polyline id="SvgjsPolyline5476" points="565.59,442.39 560.06,449.49 553.44,456.43 546.53,462.19 539.48,466.75 531.92,470.4 523.96,473.07 515.14,474.85 506.18,475.59 497.78,475.46 488.23,474.5 478.78,472.82 468.29,470.26 456.81,466.76 446.06,462.96 405.4,446.69 390.72,441.42 381.52,438.69 372.76,436.63 364.47,435.24 354.92,434.36 346.52,434.24 335.15,435.01 325.65,436.41 313.93,438.95 303.52,441.82 290.96,445.87 249.27,461.16 230.49,467.43 220.09,470.32 210.72,472.42 194.68,474.65 180.29,474.92 172.52,474.33 164.2,473.13 155.4,471.26 146.15,468.71 117.17,458.87 105.05,455.45 93.79,453.74 88.4,453.61 82.42,454.07 75.38,455.56 68.06,458.24 61.13,461.81 53.59,466.72 42.29,475.64 14.08,500.8 0.15,512.19" fill="none" stroke="#ffffe0" stroke-width="2"/><polyline id="SvgjsPolyline5477" points="599.97,326.63 598.21,344.54 595.93,359.97 592.63,376.44 589.04,390.38 584.45,404.66 579.1,418.03 573.25,429.86 567,440.1 560.5,448.71 553.07,456.54 545.15,462.96 537.99,467.35 529.21,471.22 519.98,473.8 509.88,475.19 499.09,475.31 484.19,473.62 467.25,469.68 455.8,466.08 445.09,462.2 405.13,445.79 388.24,439.57 379.04,436.82 369.69,434.64 360.81,433.22 353.04,432.53 343.44,432.38 335.06,432.86 324.94,434.12 314.91,436 295.73,440.89 250.32,454.46 236.29,457.72 225.63,459.45 214.27,460.35 201.69,459.92 191.04,458.17 179.58,454.66 171.89,451.27 165.06,447.52 157.55,442.56 151.37,437.79 144.17,431.45 137.38,424.67 124.13,409.17 112.22,392.61 99.25,371.71 85.56,346.38 68,310.22 65.74,306.69 64.19,305.95 63.2,306.59 61.82,308.55 56.75,319.43 19.47,413.72 9.95,435.75 0.27,455.73" fill="none" stroke="#ffffe0" stroke-width="2"/><polyline id="SvgjsPolyline5478" points="599.99,326.34 598.39,343.06 596.08,359.09 592.83,375.57 589.12,390.11 584.14,405.52 579.46,417.22 573.96,428.55 567.5,439.36 561.07,448.03 554.15,455.52 546.36,462.09 537.72,467.49 528.36,471.52 519.09,473.98 510.17,475.17 499.38,475.32 491.6,474.7 483.3,473.46 465.8,469.26 445.36,462.3 404.84,445.67 388.51,439.66 378.74,436.74 370.57,434.82 362.29,433.41 353.93,432.58 344.93,432.35 335.35,432.83 326.41,433.89 315.79,435.81 296.01,440.81 250.02,454.53 235.99,457.77 224.73,459.55 212.16,460.37 199.59,459.66 187.83,457.34 178.17,454.07 170.02,450.28 162.25,445.73 155.38,440.91 148.4,435.23 140.94,428.27 133.93,420.86 126.94,412.63 119.28,402.63 111.75,391.78 104.98,381.16 97.08,367.71 89.92,354.53 81.82,338.46 73.2,319.97 67.33,306.16 65.98,300.96 66.96,295.68 70.67,286.18 79.03,267.57 88.03,249.27 102.54,223.01 110.16,210.79 118.64,198.42 125.89,188.86 134.02,179.24 140.62,172.27 148.97,164.51 156.48,158.53 163.93,153.49 170.72,149.66 178.36,146.17 189.78,142.5 201,140.53 212.38,139.99 225.54,140.9 237.38,142.84 250.23,145.83 295.69,159.27 315.47,164.22 324.32,165.84 334.44,167.1 342.83,167.58 352.43,167.44 360.79,166.68 369.08,165.35 378.43,163.19 387.07,160.65 403.43,154.73 445.65,137.52 465.55,130.81 483.05,126.64 491.36,125.42 500.33,124.78 511.12,125.11 521.77,126.88 530.9,129.79 540.05,134.29 547.95,139.73 555.92,147.01 562.92,155.23 569.35,164.64 575.71,176.2 581.08,188.25 586.16,202.36 590.46,217.36 593.88,232.57 596.85,250.33 598.86,268.21 599.99,286.77" fill="none" stroke="#ffffe0" stroke-width="2"/><polyline id="SvgjsPolyline5479" points="0.24,113.56 12.96,131.01 39.13,170.53 44.81,178.27 50.15,184.75 56.06,190.72 62.79,195.71 68.82,198.36 74.73,199.27 79.51,198.87 84.13,197.61 89.08,195.45 95.29,191.81 105.44,184.36 135.31,160.23 144.65,153.7 152.85,148.7 161.92,144.06 170.25,140.65 179.43,137.86 187.66,136.19 197.21,135.19 207.4,135.14 217.56,136.01 227.04,137.53 247.43,142.53 293.72,157.33 312.82,162.54 323.99,164.81 333.5,166.13 342.47,166.77 350.87,166.79 359.84,166.15 368.75,164.84 377.54,162.92 386.2,160.48 403.73,154.28 449.4,135.98 462.48,131.6 475.81,128.02 488.79,125.64 502.54,124.65 513.32,125.26 524.48,127.51 532.39,130.32 539.89,134.11 546.85,138.79 553.24,144.24 559.03,150.32 565.3,158.37 571.41,167.98 576.43,177.54 581.25,188.53 585.94,201.51 589.68,214.16 592.52,225.82 595.08,238.77 597.56,255.38 599.13,270.9 600,285.88" fill="none" stroke="#ffffe0" stroke-width="2"/><polyline id="SvgjsPolyline5480" points="0.08,186.74 4.97,202.82 9.15,218.47 12.54,233.08 15.42,247.8 17.47,260.84 19.06,274.54 19.95,287.11 20.26,300.91 19.92,313.5 19,326.07 17.47,339.17 15.1,353.99 12.41,367.52 8.56,383.87 0.07,413.27" fill="none" stroke="#ffffe0" stroke-width="2"/><polyline id="SvgjsPolyline5481" points="0.17,125.53 13.81,148.13 37.07,190.8 47.2,207.1 53.05,214.71 59.08,220.54 64.21,223.62 67.06,224.54 70.03,224.91 74.2,224.44 78.15,223.03 82.82,220.35 88.05,216.31 97.98,206.74 117.14,186.05 128.93,174.08 138.7,165.22 148.11,157.77 157.08,151.76 167.64,146.08 177.1,142.26 187.5,139.39 196.98,137.91 205.97,137.42 215.56,137.76 226.87,139.15 238.05,141.37 249.1,144.18 294.96,158.33 314.11,163.34 324.72,165.38 333.64,166.55 343.22,167.16 351.62,167.09 358.8,166.56 367.11,165.4 376.5,163.41 385.75,160.82 401.6,155.26 450.04,135.82 463.13,131.46 476.46,127.92 490.65,125.45 502.61,124.69 513.39,125.31 523.4,127.25 530.8,129.7 539.43,133.88 545.95,138.15 552.85,143.92 559.85,151.33 565.68,158.96 571.14,167.57 576.19,177.11 581.49,189.2 585.95,201.62 589.53,213.7 592.65,226.53 595.08,238.89 597.48,254.91 599.07,270.43 599.98,286" fill="none" stroke="#ffffe0" stroke-width="2"/><polyline id="SvgjsPolyline5482" points="0.16,133.36 12.51,156.01 36.79,206.25 42.84,217.98 47.62,226.3 53.03,234.23 57.88,239.54 62.83,242.9 65.08,243.71 67.45,244.03 71,243.54 74.83,241.82 78.71,239.02 83.08,234.9 90.94,225.84 111.17,199.77 121.87,186.82 133.28,174.49 143.81,164.68 154.71,156.22 165.42,149.6 176.87,144.35 188.34,140.87 198.39,139.17 208.57,138.6 219.36,139.1 229.47,140.43 239.47,142.41 250.53,145.18 294.16,158.43 312.73,163.3 322.73,165.29 332.24,166.62 347.81,167.38 356.2,166.97 365.72,165.78 374.55,164.01 384.39,161.35 401.94,155.21 436.92,140.87 453.77,134.54 470.4,129.43 485.65,126.17 493.98,125.13 501.77,124.72 510.16,125 517.89,126.02 524.31,127.52 531.12,129.85 537.64,132.91 543.79,136.64" fill="none" stroke="#ffffe0" stroke-width="2"/><polyline id="SvgjsPolyline5483" points="0.15,156.97 7.14,173.55 15.35,195.46 23.47,219.95 29.34,240.11 33.13,255.24 36.29,271.13 38.14,285.41 38.82,299.19 38.33,312.37 36.52,327.26 33.94,340.82 29.37,359.46 23.33,380.2 16.19,401.85 8.73,422.12 0.2,442.62" fill="none" stroke="#ffffe0" stroke-width="2"/><polyline id="SvgjsPolyline5484" points="546.27,321.17 543.69,327.24 540.6,331.65 538.81,333.24 536.72,334.39 533.18,334.74 531.47,334.19 529.44,332.91 526.29,329.32 523.55,323.99 521.54,317.71 520.12,310.04 519.5,301.07 519.88,292.08 521.06,284.38 523.21,276.88 526.1,270.97 529.18,267.3 532.85,265.33 535.23,265.22 537.5,265.95 539.49,267.29 541.55,269.46 545.1,275.7 547.49,283.12 549.09,293.19 549.35,302.18 548.5,311.73 546.3,321.07" fill="none" stroke="#ffffe0" stroke-width="2"/><polyline id="SvgjsPolyline5485" points="537.28,352.78 535.03,353.59 532.05,353.88 529.69,353.49 527.46,352.61 523.16,349.38 518.84,343.65 515.21,336.08 512.36,326.92 510.52,317.5 509.42,306.16 509.38,294.76 510.31,284 512.28,273.39 515.1,264.22 518.98,256.11 522.94,250.85 525.17,248.84 527.71,247.26 529.96,246.43 532.33,246.11 536.44,246.85 541,249.7 545.31,254.67 548.57,260.41 551.45,267.65 553.67,275.75 555.3,285.2 556.1,294.77 556.09,305.56 555.26,315.13 553.85,323.4 551.72,331.53 548.68,339.35 545.12,345.6 541.64,349.72 537.24,352.81" fill="none" stroke="#ffffe0" stroke-width="2"/><polyline id="SvgjsPolyline5486" points="599.67,492.4 589.96,502.19 583.88,507.08 578.92,510.46 567.79,516.34 560.5,519.1 553.58,521.06 541.77,523.2 529.22,524.21 516.62,524.37 481.23,523.58 465.05,524.28 456.12,525.39 447.3,527.17 439.24,529.52 430.87,532.82 422.33,537.2 414.75,542.05 405.76,549.05 397.84,556.39 389.64,565.14 381.94,574.35 373.21,585.8 363.5,599.51" fill="none" stroke="#ffffe0" stroke-width="2"/><polyline id="SvgjsPolyline5487" points="344.7,317.26 340.56,317.93 334.92,319.95 303.64,335.19 294.23,339.12 285.17,342.29 275.87,344.65 268.14,345.71 260.35,345.73 253.25,344.62 245.36,341.77 238.29,337.26 232.36,331.34 227.45,323.81 223.91,314.91 222.09,305.49 221.97,295.9 223.39,287.03 225.61,280.19 228.81,273.74 232.61,268.36 237.67,263.25 242.55,259.76 249.04,256.66 254.81,255.03 261.95,254.18 268.54,254.32 275.67,255.31 283.25,257.14 290.67,259.55 305.1,265.46 332.55,278.98 339.79,281.85 343.31,282.61 346.9,282.71 350.41,281.98 353.7,280.52 357.67,277.83 362.12,273.81 371.46,262.86 381.88,248.19 411.1,204.21 421.91,189.83 433.3,176.67 444.49,165.82 457.24,155.84 464.32,151.32 470.64,147.86 483.34,142.5 495.52,139.34 506.26,138.24 512.25,138.37 517.62,138.99 522.32,139.94 528.06,141.68 537.3,145.97 546.16,152.13 554.76,160.48 562.79,170.95 567.2,178.09 570.87,184.97 577.98,201.5 583.82,219.79 588.28,239.07 591.59,260.41 593.4,281.33 593.87,305.32 592.85,326.89 590.42,348.35 586.6,369 581.51,388.13 575.17,405.61 568.16,420.2 563.86,427.42 559.77,433.34 551.59,442.91 546.28,447.77 541,451.72 531.55,456.93 522.47,460.02 511.81,461.66 501.63,461.49 490.4,459.57 478.98,455.9 468.12,450.82 457.87,444.59 448.27,437.39 439.31,429.41 430.56,420.36 422.01,410.3 414.35,400.29 406.05,388.53 377.56,345.51 370.46,335.84 365.1,329.37 359.17,323.42 354.36,319.86 349.42,317.73 344.66,317.26" fill="none" stroke="#ffffe0" stroke-width="2"/><polyline id="SvgjsPolyline5488" points="105.43,599.75 89.3,587.27 75.49,577.71 63.1,570.38 51.21,564.66 39.38,560.33 27.16,557.29 12.89,555.43 0.29,555.06" fill="none" stroke="#ffffe0" stroke-width="2"/><polyline id="SvgjsPolyline5489" points="0.34,90.19 13.93,101.99 43.15,129.59 55.25,139.43 62.81,144.31 69.81,147.74 77.23,150.12 84.34,151.21 89.14,151.32 94.52,150.9 105.09,148.73 115.92,145.2 144.52,134.32 153.1,131.59 161.81,129.35 168.88,127.98 177.21,126.93 186.2,126.48 194,126.66 202.96,127.48 210.66,128.67 220.06,130.65 230.49,133.42 248.2,139.12 291.11,154.53 303.12,158.34 314.13,161.32 325.28,163.68 334.78,165.05 344.95,165.76 354.55,165.65 362.91,164.91 371.8,163.48 388.06,159.3 403.91,153.75 448.54,136.08 462.77,131.34 476.69,127.67 490.88,125.25 503.45,124.53 514.82,125.34 526.5,128 534.32,131.06 542.2,135.4 548.52,139.96 555.18,146.01 561.54,153.2 567.18,160.96 572.46,169.68 577.1,178.77 582.05,190.35 586.25,202.23 590.1,215.48 592.88,227.15 595.58,241.29 597.72,256.14 599.16,270.47 600,284.24" fill="none" stroke="#ffffe0" stroke-width="2"/><polyline id="SvgjsPolyline5490" points="0.28,100.34 14.09,115.35 39.93,146.14 52.06,158.61 59.03,164.29 65.66,168.39 72.91,171.24 79.4,172.34 84.2,172.32 89.54,171.55 95.32,169.96 101.46,167.56 112.19,162.18 140.92,145.96 150.1,141.51 157.3,138.51 165.24,135.77 172.19,133.89 179.84,132.39 186.39,131.58 194.78,131.16 204.97,131.52 215.09,132.73 225.11,134.63 244.81,139.93 289.71,155.1 309.85,161.05 320.38,163.46 329.84,165.07 338.79,166.02 348.38,166.34 357.97,165.89 367.49,164.67 375.72,163.01 385.57,160.37 402.02,154.71 435.95,141 451.67,135.07 467.69,130 481.11,126.83 496.57,124.8 504.37,124.6 510.95,124.95 517.49,125.83 523.35,127.14 529.07,128.94 535.14,131.51" fill="none" stroke="#ffffe0" stroke-width="2"/><polyline id="SvgjsPolyline5491" points="0.01,266.11 1.17,282.86 1.57,299.06 1.2,316.45 0.02,333.81" fill="none" stroke="#ffffe0" stroke-width="2"/><polyline id="SvgjsPolyline5492" points="599.65,517.58 590.31,523.01 579.83,527.46 568.28,530.68 557.62,532.37 548.04,533.07 535.44,533.11 494.14,530.42 474.95,530.02 465.36,530.56 455.25,531.9 447.05,533.7 439.03,536.19 429.64,540.17 420.73,545.12 411.87,551.29 404.04,557.82 395.43,566.18 386.6,575.98 378.64,585.75 368.18,599.66" fill="none" stroke="#ffffe0" stroke-width="2"/><polyline id="SvgjsPolyline5493" points="338.01,300.04 337.48,302.98 336.16,305.67 333.64,309.03 330.74,312.06 321.4,319.58 309.69,326.87 296.35,333.72 283.58,338.93 272.58,341.89 262.44,342.86 254.68,342.13 247.23,339.89 240.93,336.43 234.63,330.9 229.99,324.64 226.38,317.07 224.19,308.97 223.39,300.02 224.08,291.66 226.16,283.53 229.97,275.39 234.6,269.13 240.4,263.94 247.19,260.13 254.05,257.99 262.4,257.14 271.95,258 282.97,260.86 295.76,266.01 310.7,273.7 322.35,281.09 331.14,288.33 336.14,294.29 337.65,297.55 338.01,299.91" fill="none" stroke="#ffffe0" stroke-width="2"/><polyline id="SvgjsPolyline5494" points="75.88,599.77 67.06,591.63 57.71,584.12 48.28,577.71 39.39,572.72 29.52,568.35 20.98,565.5 11.06,563.16 0.37,561.68" fill="none" stroke="#ffffe0" stroke-width="2"/><polyline id="SvgjsPolyline5495" points="0.24,70.87 33.31,86.55 47.01,92.64 62.21,98.23 74.97,101.58 86.82,103.48 99.99,104.35 139.57,103.44 155.76,103.85 171.85,105.69 188.84,109.39 202.61,113.61 218.89,119.73 273.25,143.68 296.65,153.03 308.02,156.85 318.42,159.76 327.8,161.81 337.89,163.31 348.06,164 359.45,163.72 369.58,162.53 381.33,160.1 390.57,157.51 401.94,153.68 439.96,138.87 454.07,133.8 469,129.28 482.46,126.26 496.15,124.54 507.54,124.43 518.85,125.82 528.11,128.33 535.85,131.58 542.11,135.12 548.91,140.05 555.53,146.13 561.49,152.88 566.81,160.13 572.15,168.82 577.09,178.42 581.61,188.88 586.08,201.3 589.67,213.38 592.79,226.2 595.23,238.57 597.49,253.39 599.04,267.71 599.98,281.48" fill="none" stroke="#ffffe0" stroke-width="2"/><polyline id="SvgjsPolyline5496" points="0.5,79.57 13.12,87.68 39.82,106.04 52.01,113.69 65.38,120.48 70.97,122.65 77.87,124.7 89.1,126.57 99.89,126.8 113.02,125.51 143.74,120.06 159.82,118.11 176.01,117.79 192.13,119.34 207.99,122.6 226.38,128.11 243.28,134.28 281.78,149.51 303.88,157.21 322.45,162.06 338.45,164.49 351.04,165 360.62,164.48 370.72,163.08 381.84,160.6 391.06,157.9 401.83,154.17 438.65,139.61 452.73,134.44 465.89,130.29 480.47,126.77 494.13,124.82 506.71,124.51 517.44,125.67 527.89,128.37 535.1,131.33 542.42,135.44 549.19,140.41 555.37,146.09 560.96,152.36 566.67,160.07 572.02,168.76 577.48,179.44 582.38,191.04 585.98,201.22 589.42,212.72 592.58,225.53 595.15,238.48 597.49,253.9 598.97,267.62 599.97,282.59" fill="none" stroke="#ffffe0" stroke-width="2"/><polyline id="SvgjsPolyline5497" points="599.69,538.42 592.71,540.19 584.45,541.66 576.09,542.54 566.5,542.89 556.31,542.63 546.14,541.87 502.67,536.49 483.53,534.98 473.94,534.89 464.35,535.43 455.44,536.63 446.66,538.59 436.42,542.03 427.71,546.06 417.94,551.92 409.75,558 401.62,565.1 391.53,575.37 382.5,585.8 371.36,599.94" fill="none" stroke="#ffffe0" stroke-width="2"/><polyline id="SvgjsPolyline5498" points="317.06,300.18 316.63,303.14 315.8,305.39 312.43,310.33 306.66,315.56 297.31,322.08 285.91,328.73 277.17,332.68 268.55,335.25 260.22,336.2 254.24,335.76 247.89,334.02 242.06,330.95 237.04,326.68 233,321.47 229.78,315.05 227.8,308.14 227.02,300.39 227.56,293.21 229.11,286.81 232.29,279.7 236.12,274.34 240.95,269.85 246.62,266.51 252.89,264.49 259.45,263.8 266.61,264.38 275.88,266.85 284.69,270.65 294.62,276.23 305.57,283.6 311.49,288.67 314.2,291.88 315.73,294.45 316.74,297.27 317.05,299.65" fill="none" stroke="#ffffe0" stroke-width="2"/><polyline id="SvgjsPolyline5499" points="48.67,599.85 36.82,589.71 25.32,582.11 12.9,576.11 0.34,572.08" fill="none" stroke="#ffffe0" stroke-width="2"/><polyline id="SvgjsPolyline5500" points="0.52,53.5 11.82,54.95 24.39,55.9 34.58,56.02 45.37,55.42 56.08,54.06 69.02,51.48 109.47,40.2 125.92,36.82 134.88,35.98 142.67,36.03 151.01,37.01 159.17,39 165.93,41.47 174.01,45.41 182.19,50.44 189.95,56.09 204.14,68.11 233.04,95.18 247.41,107.91 260.49,118.45 277.14,130.23 293.63,140.05 302.73,144.66 312.06,148.77 326.79,153.9 334.93,155.97 343.19,157.48 353.94,158.51 364.13,158.5 374.29,157.56 386.09,155.4 404.56,150.2 444.67,135.84 457.78,131.53 472.24,127.57 485.19,125.02 498.92,123.68 509.11,123.84 519.8,125.34 529.59,128.18 536.72,131.32 543.94,135.6 550.15,140.32 556.26,146.08 561.79,152.4 567.1,159.66 572.14,167.83 577.12,177.41 581.23,186.75 585.42,197.99 589.16,210.02 592.16,221.64 594.55,232.78 597.15,248.17 598.91,262.46 599.97,275.01" fill="none" stroke="#ffffe0" stroke-width="2"/><polyline id="SvgjsPolyline5501" points="0.52,61.94 31.22,70.19 42.98,72.57 56.04,74.46 66.8,75.37 77.6,75.72 114.79,74.85 129.78,75.14 145.28,76.84 160.48,80.31 175.2,85.46 193.15,93.8 207.38,101.54 258.81,131.25 272.62,138.51 287.23,145.5 300.51,151.07 314.1,155.82 326.85,159.22 338.67,161.3 350.63,162.23 360.82,162.03 372.14,160.74 383.89,158.31 402.26,152.73 439.84,138.48 455.12,133.1 468.93,129.01 482.4,126.02 494.29,124.45 506.88,124.18 518.78,125.59 528.61,128.29 536.33,131.6 543.57,135.85 550.25,140.93 556.34,146.71 561.84,153.05 566.8,159.83 572.15,168.52 577.1,178.11 581.19,187.45 585.93,200.41 589.71,213.06 592.72,225.29 595.5,239.42 597.56,253.06 599.98,279.35" fill="none" stroke="#ffffe0" stroke-width="2"/><polyline id="SvgjsPolyline5502" points="599.94,556.99 586.17,556.21 570.1,554.18 554.74,551.44 514.76,543.29 493.41,540.05 483.85,539.23 472.46,538.99 462.87,539.55 453.38,540.95 442.92,543.62 432.3,547.75 423.28,552.5 413.33,559.19 403.62,567.22 394.59,576 386.1,585.31 374.29,599.68" fill="none" stroke="#ffffe0" stroke-width="2"/><polyline id="SvgjsPolyline5503" points="297.24,300.03 296.74,301.74 295.47,303.77 290.06,310.19 284.41,315.56 278.22,320.3 272.53,323.65 267.58,325.78 262.37,327.2 256.4,327.72 251.64,327.17 246.54,325.43 242.46,322.92 238.97,319.63 235.87,315.23 233.67,310.3 232.38,305.07 231.99,299.69 232.59,293.73 234.09,288.54 236.49,283.72 239.39,279.9 243.45,276.36 247.66,274.07 252.26,272.71 257.03,272.28 261.81,272.7 267.6,274.23 273.62,276.92 279.23,280.39 285.78,285.64 291.3,291.15 295.83,296.74 297.24,300" fill="none" stroke="#ffffe0" stroke-width="2"/><polyline id="SvgjsPolyline5504" points="19.78,599.78 10.43,593.26 0.4,587.86" fill="none" stroke="#ffffe0" stroke-width="2"/><polyline id="SvgjsPolyline5505" points="0.21,36.13 9.67,34.52 18.38,32.26 26.86,29.25 36.1,24.96 44.4,20.14 53.25,13.95 61.59,7.09 69.03,0.11" fill="none" stroke="#ffffe0" stroke-width="2"/><polyline id="SvgjsPolyline5506" points="0.54,45.83 13.74,45.55 28.02,43.78 40.26,40.83 53.24,36.14 66.23,29.94 78.66,22.68 93.08,12.96 110.46,0.13" fill="none" stroke="#ffffe0" stroke-width="2"/><polyline id="SvgjsPolyline5507" points="0.4,57.5 24,61.84 34.13,63.02 46.11,63.72 56.91,63.66 68.28,62.92 109.91,57.41 124.27,56.39 132.07,56.45 141.04,57.22 148.13,58.44 155.68,60.38 163.06,62.92 170.77,66.25 186,74.64 201.94,85.34 231.93,107.35 248.13,118.73 264.27,129.13 280.93,138.67 298.18,147.09 313.24,153.04 326.46,157 341.18,159.82 351.34,160.68 362.14,160.58 373.47,159.37 384.65,157.15 395.07,154.31 405.33,150.96 441.88,137.36 455.5,132.68 470.49,128.36 483.99,125.53 495.91,124.13 508.5,124.08 519.78,125.61 529.57,128.45 536.7,131.6 543.42,135.55 550.58,141 556.64,146.81 562.86,154.12 568.05,161.47 572.96,169.71 577.57,178.81 581.83,188.73 585.92,200.02 589.56,212.08 592.74,224.89 595.33,237.83 597.21,249.68 598.91,263.98 599.99,277.74" fill="none" stroke="#ffffe0" stroke-width="2"/><polyline id="SvgjsPolyline5508" points="0.11,49.96 13.28,50.73 25.88,50.51 38.99,49.07 50.16,46.78 62.24,43.21 73.47,39 115.51,19.84 130.65,14.1 139.93,11.65 147.03,10.52 153.62,10.17 161.39,10.74 170.71,12.99 180.03,17.1 188.61,22.6 197.4,29.86 205.09,37.44 213.14,46.34 240.16,79.27 254.31,95.59 267.29,108.91 280.75,120.85 293.71,130.56 306.44,138.49 318.21,144.45 331.64,149.64 342.64,152.6 355.09,154.51 365.88,154.93 377.25,154.19 389.09,152.26 401.9,149.1 414.51,145.22 456.03,131.27 468.75,127.75 481.07,125.11 494.76,123.37 507.94,123.25 519.24,124.71 529.62,127.67 535.68,130.27 542.48,134.09 549.27,139.02 555.48,144.68 561.48,151.38 566.84,158.6 572.53,167.78 576.7,175.75 581.35,186.16 585.36,196.83 591.62,218.12 594.26,229.83 596.81,244 598.74,258.27 599.99,271.41" fill="none" stroke="#ffffe0" stroke-width="2"/><polyline id="SvgjsPolyline5509" points="599.6,574.98 540.29,555.59 524.17,550.86 511.95,547.79 497.24,544.89 483.54,543.22 472.15,542.8 460.18,543.53 448.96,545.53 437.52,549.11 426.64,554.16 417.93,559.46 407.87,567.04 398.95,575.06 388.95,585.42 376.86,599.55" fill="none" stroke="#ffffe0" stroke-width="2"/><polyline id="SvgjsPolyline5510" points="274.71,300.07 274.35,303.04 273.1,306.41 271.17,309.44 268.3,312.5 264.93,315 261.16,316.84 257.69,317.8 254.11,318.07 250.55,317.56 247.75,316.51 244.73,314.57 242.6,312.45 240.89,310 239.4,306.73 238.53,303.24 238.28,299.65 238.65,296.07 239.64,292.62 241.25,289.41 243.06,287.02 245.76,284.65 248.38,283.19 251.23,282.28 254.81,281.93 258.96,282.47 262.36,283.65 265.52,285.38 268.81,287.97 271.23,290.64 273.14,293.68 274.23,296.47 274.71,300.03" fill="none" stroke="#ffffe0" stroke-width="2"/><polyline id="SvgjsPolyline5511" points="0.45,17.91 8.14,14.52 16,10.15 22.96,5.45 29.54,0.22" fill="none" stroke="#ffffe0" stroke-width="2"/><polyline id="SvgjsPolyline5512" points="186.61,0.23 193.75,4.65 199.87,9.48 205.56,14.81 212.48,22.3 225.49,38.78 249.15,72.02 258.87,84.98 269.93,98.41 281.43,110.65 292.96,121.15 306.87,131.59 319.76,139.25 332.32,144.95 345.48,149.09 357.87,151.3 369.85,151.94 383.61,150.98 395.42,148.92 408.8,145.54 450.53,132.22 467.27,127.51 481.95,124.43 495.65,122.83 508.84,122.85 521.29,124.71 532.13,128.2 538.09,131.04 543.24,134.1 548.59,137.97 553.57,142.29 557.79,146.56 563.2,152.98 567.74,159.33 572.45,166.99 576.92,175.49 580.87,184.23 587.27,201.69 592.81,221.94 597.12,244.33 599.97,268.15" fill="none" stroke="#ffffe0" stroke-width="2"/><polyline id="SvgjsPolyline5513" points="599.79,595.18 558.83,572.56 542.04,564.56 527.03,558.46 511.66,553.37 496.51,549.65 481.68,547.47 468.49,546.99 455.95,548.06 445.39,550.32 433.54,554.55 423.39,559.74 413.88,566.01 403.17,574.71 391.16,586.45 379.2,599.9" fill="none" stroke="#ffffe0" stroke-width="2"/><polyline id="SvgjsPolyline5514" points="216.34,0.17 225.1,10.83 232.76,21.58 260.75,65.64 270.46,80.08 279.37,92.14 287.38,101.86 299.83,114.86 312.16,125.35 319.01,130.22 325.63,134.33 332.52,137.99 339.09,140.93 351.03,144.93 363.39,147.33 375.96,148.06 388.53,147.25 399.19,145.56 410.89,142.89 452.89,130.46 469.14,126.21 485.05,123.22 498.79,122.01 511.97,122.49 523.76,124.69 529.47,126.51 535.01,128.82 540.32,131.61 545.37,134.85 550.13,138.5 555.44,143.36 560.33,148.64 564.8,154.28 572.92,166.88 577.1,174.85 580.83,183.04 587.3,200.48 592.91,220.71 597.1,241.89 600,264.5" fill="none" stroke="#ffffe0" stroke-width="2"/><polyline id="SvgjsPolyline5515" points="571.61,599.95 556.67,587.89 545.44,579.87 532.16,571.7 519.32,565.19 506.52,560.04 494.46,556.41 480.32,553.74 468.35,552.94 456.97,553.57 446.94,555.38 435.52,559.03 424.69,564.18 414.55,570.58 404.16,578.72 394.05,588.11 382.94,599.89" fill="none" stroke="#ffffe0" stroke-width="2"/><polyline id="SvgjsPolyline5516" points="239.52,0.01 250.62,17.83 270.47,52.78 280.29,69.28 290.17,84.33 299.14,96.34 310.63,109.4 322.56,120.35 334.26,128.74 339.96,132.06 346.96,135.48 358.81,139.75 369.95,142.12 381.31,143.06 393.89,142.58 405.18,141.04 416.93,138.61 457.5,127.75 473.29,124.12 488.7,121.72 500.67,121 507.87,121.19 515.03,121.94 526.14,124.44 536.71,128.67 546.44,134.59 551.61,138.69 555.99,142.79 560.47,147.63 564.96,153.26 573.41,166.36 580.83,181.43 587.39,198.82 592.81,217.86 596.97,237.83 599.99,259.21" fill="none" stroke="#ffffe0" stroke-width="2"/><polyline id="SvgjsPolyline5517" points="542.66,599.91 533.41,591.36 524.03,583.88 514.06,577.21 503.51,571.51 493.55,567.34 483.21,564.24 472.58,562.33 463,561.76 453.43,562.33 443.99,564.07 434.83,566.93 425.52,571.08 416.2,576.52 407.42,582.81 398.69,590.13 388.72,599.67" fill="none" stroke="#ffffe0" stroke-width="2"/><polyline id="SvgjsPolyline5518" points="261,0.16 293.09,59.88 302.69,75.81 311.5,88.68 322.44,102.2 333.94,113.6 344.86,122.02 350.46,125.51 357.38,129.1 367.44,133.01 378.52,135.68 389.85,136.85 400.64,136.73 411.38,135.64 422.62,133.73 463.56,124.33 477.7,121.63 491.99,119.91 503.98,119.6 516.52,120.78 527.58,123.48 538.08,127.9 547.23,133.61 556.74,141.86 565.67,152.37 573.8,164.96 581.02,179.46 587.1,195.11 592.45,212.92 596.68,231.65 599.99,252.38" fill="none" stroke="#ffffe0" stroke-width="2"/><polyline id="SvgjsPolyline5519" points="515.48,599.97 508.29,593.61 501.1,588.2 493.99,583.74 487.05,580.18 479.81,577.28 472.32,575.12 464.64,573.76 456.86,573.26 449.67,573.59 441.38,574.92 433.87,577.01 426.61,579.84 419.62,583.31 411.42,588.3 404.12,593.55 396.68,599.62" fill="none" stroke="#ffffe0" stroke-width="2"/><polyline id="SvgjsPolyline5520" points="281.77,0.49 308.07,51.73 317.97,68.87 327.25,82.87 336.88,95.14 346.85,105.52 358.04,114.57 368.86,121.01 378.25,124.97 388.07,127.69 398.16,129.17 409.55,129.52 417.93,129.06 429.25,127.72 468.21,120.61 482.45,118.5 495.6,117.45 507,117.57 518.9,119.07 528.75,121.69 539.2,126.21 548.79,132.36 558.19,140.72 566.32,150.34 573.89,161.87 580.77,175.19 586.89,190.19 592.52,207.91 596.64,224.81 599.98,243.11" fill="none" stroke="#ffffe0" stroke-width="2"/><polyline id="SvgjsPolyline5521" points="485.93,599.87 476.75,594.21 467.38,590.18 458.68,587.92 448.54,586.98 438.97,587.7 429.06,590.04 419.02,594.01 408.52,599.8" fill="none" stroke="#ffffe0" stroke-width="2"/><polyline id="SvgjsPolyline5522" points="301.93,0.32 318.2,32.43 326.99,48.82 335.85,63.8 344.22,76.24 353.93,88.44 362.71,97.47 371.97,105.09 382.15,111.43 390.34,115.16 400.06,118.22 409.49,119.97 420.26,120.77 429.26,120.67 439.43,119.95 486.49,114.33 500.28,113.85 512.25,114.58 522.88,116.47 533.16,119.75 542.33,124.19 550.79,129.88 559.69,137.91 567.45,147.05 574.47,157.51 580.75,169.12 586.31,181.74 591.55,196.43 596.28,213.18 599.99,230.17" fill="none" stroke="#ffffe0" stroke-width="2"/><polyline id="SvgjsPolyline5523" points="322.07,0.25 334.71,24.1 345,42.41 354.22,57.16 361.86,67.92 370.65,78.56 379.11,87.06 388.94,94.93 397.63,100.25 405.24,103.81 413.75,106.71 423.12,108.8 432.05,109.9 449.44,110.26 494.97,107.83 505.76,108.09 515.91,109.13 525.9,111.16 535.01,114.15 544.21,118.55 552.24,123.8 560,130.41 567.33,138.33 574.12,147.48 580.62,158.27 586.21,169.56 591.43,182.33 595.85,195.4 600,210.44" fill="none" stroke="#ffffe0" stroke-width="2"/><polyline id="SvgjsPolyline5524" points="342.47,0.35 360.7,30.69 368.7,42.66 375.83,52.31 383.52,61.53 390.58,68.89 397.74,75.28 404.94,80.67 413.68,85.92 421.29,89.46 430.94,92.75 440.3,94.87 449.21,96.11 459.98,96.86 499.58,96.98 514.55,97.88 523.46,99.15 531.07,100.84 539.64,103.59 546.78,106.72 555.58,111.86 562.74,117.31 569.69,123.92 576.69,132.14 583.83,142.52 589.72,152.97 594.85,163.82 599.93,176.64" fill="none" stroke="#ffffe0" stroke-width="2"/><polyline id="SvgjsPolyline5525" points="363.13,0.05 372.12,12.8 381.16,24.77 389.6,34.91 398.23,44.09 405.27,50.62 413.25,56.97 420.74,61.95 430.28,67 439.2,70.55 447.26,72.9 456.08,74.68 464.41,75.74 481.19,76.5 515.98,75.73 529.18,75.89 542.33,76.99 554.11,79.21 559.88,80.85 567.19,83.57 573.15,86.4 579.37,90.03 589.88,97.99 595.11,102.94 599.98,108.24" fill="none" stroke="#ffffe0" stroke-width="2"/><polyline id="SvgjsPolyline5526" points="356.77,0.12 375.03,26.88 382.34,36.39 389.72,45.08 397.64,53.28 404.79,59.68 411.94,65.14 420.58,70.55 429.2,74.77 437.07,77.71 446.33,80.22 455.19,81.81 464.73,82.83 473.72,83.3 507.32,83.42 521.7,84.02 536.57,85.97 543.58,87.6 549.88,89.56 557.64,92.76 564,96.14 570.51,100.43 577.04,105.71 583.46,112.01 588.55,117.92 594.25,125.64 599.72,134.25" fill="none" stroke="#ffffe0" stroke-width="2"/><polyline id="SvgjsPolyline5527" points="385.34,0.35 394.97,10.22 405.68,19.84 415.25,27.07 425.49,33.32 435.29,37.84 445.58,41.12 456.79,43.1 466.98,43.57 478.34,42.72 490.11,40.44 501.58,36.91 513.2,32.05 524.33,26.15 535.92,18.67 547.82,9.54 558.62,0.03" fill="none" stroke="#ffffe0" stroke-width="2"/><polyline id="SvgjsPolyline5528" points="374.76,0.27 385.85,13.67 396.04,24.68 406.12,34.1 416.07,41.83 426.79,48.43 436.03,52.74 446.27,56.16 456.24,58.28 466.38,59.37 476.57,59.55 487.95,58.87 501.04,57.2 523.41,52.81 575.31,40.26 588.26,37.7 599.53,35.96" fill="none" stroke="#ffffe0" stroke-width="2"/><polyline id="SvgjsPolyline5529" points="369.39,0.11 380.36,14.38 388.85,24.49 398.31,34.53 407.16,42.63 415.71,49.22 424.85,54.96 434.01,59.45 443.6,62.91 451.15,64.85 460.02,66.36 469.58,67.21 478.58,67.41 495.96,66.61 540.16,62.48 552.75,62.08 562.35,62.38 571.9,63.33 581.92,65.23 590.56,67.73 599.47,71.29" fill="none" stroke="#ffffe0" stroke-width="2"/><polyline id="SvgjsPolyline5530" points="410.68,0.3 420.28,5.23 429.27,8.56 438.64,10.65 447.61,11.27 455.97,10.59 465.29,8.35 474.16,4.68 481.92,0.14" fill="none" stroke="#ffffe0" stroke-width="2"/><polyline id="SvgjsPolyline5531" points="395.67,0.08 404.01,6.94 410.83,11.85 419.01,16.87 426.53,20.61 434.37,23.6 441.32,25.47 448.42,26.64 456.81,27.05 464.58,26.51 472.84,24.99 480.32,22.79 487.55,19.86 495.51,15.68 502.56,11.11 509.68,5.6 515.93,0" fill="none" stroke="#ffffe0" stroke-width="2"/><polyline id="SvgjsPolyline5532" points="379.52,0.38 390.71,12.92 401.83,23.85 413.43,33.35 423.47,39.91 434.76,45.48 446.13,49.29 457.92,51.52 470.49,52.23 483.65,51.39 499.01,48.69 513.47,44.71 529.25,38.95 543.49,32.59 558.92,24.55 574.46,15.47 598.92,0.28" fill="none" stroke="#ffffe0" stroke-width="2"/></g></svg>
