<?xml version="1.0" standalone="no"?>
<svg id="SvgjsSvg1001" width="600" height="600" xmlns="http://www.w3.org/2000/svg" version="1.1" xmlns:xlink="http://www.w3.org/1999/xlink" xmlns:svgjs="http://svgjs.com/svgjs" class="svg-paper" viewBox="0 0 600 600"><title id="SvgjsTitle4509">x=sin(min((cos(sqrt(x*x + y*y))+sqrt(x*x + y*y)*x),sqrt(x*x + y*y)))|y=(sin(sqrt(x*x + y*y))-cos(y))|dTest=0.0|sd=0.3|sm=0.25|ts=0.01 | generated with FlowLines</title><rect id="SvgjsRect4510" width="600" height="600" fill="#ffffff00"/><g id="SvgjsG4511"><polyline id="SvgjsPolyline4512" points="50.7,582.47 50.27,582.1 41.32,556.63 30.71,522.85 22.77,493.31 15.53,461.73 14.38,460.38 12.2,459.4 0.55,456.54" fill="none" stroke="#ffffe0" stroke-width="2"/><polyline id="SvgjsPolyline4513" points="51.43,585.42 52.01,585.57 51.61,585.95 52.19,586.13 51.82,586.54 52.38,586.75 52.05,587.2 52.6,587.44 52.31,587.92 52.84,588.2 52.6,588.72 53.09,589.05 52.92,589.6 53.81,591.04 53.46,591.51 51.72,591.93 43.33,591.98 37.37,591.32 34.63,590.17 32.77,587.85 26.25,568.52 17.02,538.72 7.59,505.85 0.09,477.42" fill="none" stroke="#ffffe0" stroke-width="2"/><polyline id="SvgjsPolyline4514" points="47.27,573.66 46.9,573.19 47.2,572.68 48.9,572.15 57.29,571.93 64.45,572.64 68.26,574.29 69.32,575.74 70.21,577.96 77.25,599.65" fill="none" stroke="#ffffe0" stroke-width="2"/><polyline id="SvgjsPolyline4515" points="47.04,573.12 42.16,558.94 41.98,557.76 42.41,556.66 44.46,555.47 47.97,554.68 62.32,553.57" fill="none" stroke="#ffffe0" stroke-width="2"/><polyline id="SvgjsPolyline4516" points="49.88,582.42 50.48,582.39 38.25,547.29 37.33,543.81 37.28,542.02 38.09,540.44 40.08,539.13 43.49,538 54.59,535.43 56.16,534.58 56.69,532.93 45.94,492.96 38.73,464.46" fill="none" stroke="#ffffe0" stroke-width="2"/><polyline id="SvgjsPolyline4517" points="0.03,351.24 2.07,373.35 4.79,396.59 8.18,420.35 11.43,439.88 12.07,440.86 13.71,441.57 28.47,444.25 31.32,445.16 33.36,446.41 34.44,447.83 35.09,449.51 38.09,461.73" fill="none" stroke="#ffffe0" stroke-width="2"/><polyline id="SvgjsPolyline4518" points="19.07,599.79 22.16,598.05 32.68,595.63 34.17,594.66 34.37,593.51 24.03,561.55 15.45,533.43 7.08,503.99 0.06,477.3" fill="none" stroke="#ffffe0" stroke-width="2"/><polyline id="SvgjsPolyline4519" points="17.31,599.76 12.34,586.24 11.88,583.89 12.13,581.51 12.98,579.94 14.82,578.43 23.07,574.84 25.47,573.08 26.05,572.04 26.27,570.26 25.25,565.58" fill="none" stroke="#ffffe0" stroke-width="2"/><polyline id="SvgjsPolyline4520" points="17.38,599.95 7.56,573.52 5.94,568.37 5.26,564.23 5.73,561.28 7.29,558.75 9.62,556.87 15.75,553.1 18.1,550.42 18.62,548.7 18.65,546.31 16.63,537.55" fill="none" stroke="#ffffe0" stroke-width="2"/><polyline id="SvgjsPolyline4521" points="77.86,519.43 77.27,519.52 87.47,552.75 87.98,556.87 87.08,558.4 84.51,559.91 79.3,561.32 68.7,563.38 67.07,564.12 66.55,565.15 69.67,576.1 77.21,599.51" fill="none" stroke="#ffffe0" stroke-width="2"/><polyline id="SvgjsPolyline4522" points="77.76,519.31 77.17,519.37 91.48,565.11 92.99,572.12 92.22,574.98 90.07,577.04 86.87,578.69 76.7,582.3 74.25,584 73.67,585.04 73.5,586.82 74.78,592.05" fill="none" stroke="#ffffe0" stroke-width="2"/><polyline id="SvgjsPolyline4523" points="74.59,510.91 75.03,510.55 74.46,510.38 74.89,510.01 74.32,509.82 74.74,509.44 74.17,509.25 74.58,508.85 74.02,508.65 74.42,508.25 73.86,508.03 74.24,507.61 73.69,507.38 74.1,506.98 73.55,506.74 74.04,506.42 73.59,506.03 73.39,504.87 70.48,504.22 54.38,502.4 50.92,501.44 48.49,499.74 47.34,497.65 46.44,494.78 38.75,464.55" fill="none" stroke="#ffffe0" stroke-width="2"/><polyline id="SvgjsPolyline4524" points="68.27,486.32 68.79,486.05 68.4,485.6 67.23,485.35 49.89,483.93 46.36,483.25 44.19,482.26 43.06,480.88 42.43,479.2 38.77,464.65" fill="none" stroke="#ffffe0" stroke-width="2"/><polyline id="SvgjsPolyline4525" points="66.53,124.01 66.02,124.28 55.85,166.88 51.62,187.45 48.18,207.55 45.6,227.18 43.94,245.11 42.92,263.08 42.49,282.27 42.77,304.47 43.72,325.45 45.37,347.58 47.62,369.67 50.76,394.07 54.75,419.56 59.54,445.52 63.72,464.84 63.59,465.41 62.52,465.92 57.16,466.57 42.77,466.86 39.29,466.24" fill="none" stroke="#ffffe0" stroke-width="2"/><polyline id="SvgjsPolyline4526" points="0.02,303.56 1.55,309.36 3.87,315.54 13.83,336.04 17.43,347.47 19.74,359.25 24.45,393.72 27.65,413.26 32.33,436.8 38.13,461.88" fill="none" stroke="#ffffe0" stroke-width="2"/><polyline id="SvgjsPolyline4527" points="76.72,517.27 91.7,518.08 99.45,518.93 103.44,520.15 105.1,521.84 106.44,525.82 117.92,571.18 125.56,599.57" fill="none" stroke="#ffffe0" stroke-width="2"/><polyline id="SvgjsPolyline4528" points="77.63,520.15 84.67,543.72 98.71,587.73 99.29,591.28 99.09,594.86 97.87,597.58 95.75,599.68" fill="none" stroke="#ffffe0" stroke-width="2"/><polyline id="SvgjsPolyline4529" points="68.3,114.88 68.88,114.72 68.44,114.35 69.01,114.17 68.58,113.79 69.15,113.61 68.72,113.21 69.29,113.02 68.87,112.61 69.44,112.4 69.03,111.99 69.59,111.77 69.19,111.35 69.75,111.12 69.36,110.69 69.91,110.45 69.54,110.01 70.08,109.77 69.71,109.32 70.26,109.06 69.9,108.61 70.43,108.35 70.08,107.89 70.62,107.62 70.26,107.16 70.79,106.88 70.34,106.5 67.44,105.79 51.36,103.88 48.58,102.8 47.75,101.94 47.38,100.81 47.96,96.67 51.73,82.78 61.9,49.52" fill="none" stroke="#ffffe0" stroke-width="2"/><polyline id="SvgjsPolyline4530" points="66.72,122.42 53.53,122.05 46.96,121.49 43.52,120.52 42.67,119.01 44.62,109.63 50.39,87.57 61.84,49.67" fill="none" stroke="#ffffe0" stroke-width="2"/><polyline id="SvgjsPolyline4531" points="65.42,127.3 64.85,127.47 65.29,127.85 64.73,128.04 65.15,128.45 64.59,128.68 64.98,129.11 64.45,129.38 64.81,129.84 64.3,130.16 65.29,130.77 70.64,131.45 89.2,132.67 90.96,133.05 91.47,133.95 85.68,160.31 81.07,183.87 77.06,207.53 73.92,229.51 71.63,249.17 69.64,271.88 68.52,292.25 68.11,315.65 68.55,334.84 69.66,352.81 71.56,371.31 73.84,387.34 77.02,405.06 80.76,422.67 92.96,472.18" fill="none" stroke="#ffffe0" stroke-width="2"/><polyline id="SvgjsPolyline4532" points="65.46,127.12 64.89,127.28 65.34,127.65 64.77,127.83 65.21,128.22 64.66,128.44 65.12,128.8 64.7,129.22 63.05,136.21 62.18,137.01 56.95,138.22 39.61,139.65 38.43,139.89 37.65,140.67 33.15,163.63 28.85,189.67 25.14,217.02 22.57,240.88 20.3,270.19 19.12,298.37 19.08,327.17 20.04,350.54 22.05,374.46 25.33,399.44 29.27,421.9 35.16,449.47" fill="none" stroke="#ffffe0" stroke-width="2"/><polyline id="SvgjsPolyline4533" points="73.91,506.33 73.36,506.09 73.72,505.64 73.18,505.39 73.53,504.93 73,504.67 73.34,504.21 72.81,503.93 73.14,503.46 72.62,503.18 72.94,502.71 72.42,502.42 72.74,501.93 72.22,501.64 72.54,501.16 72.02,500.85 73.05,500.32 91.04,499.99 97.63,500.21 99.96,500.67" fill="none" stroke="#ffffe0" stroke-width="2"/><polyline id="SvgjsPolyline4534" points="133.98,507.17 107.66,508.91 104.12,509.55 102.91,510.72 114.95,559.64 125.58,599.65" fill="none" stroke="#ffffe0" stroke-width="2"/><polyline id="SvgjsPolyline4535" points="132.73,506.18 133.33,506.21 136.82,518.94 137.05,520.72 136.33,522.33 134.34,523.64 130.94,524.8 112.81,528.91 109.77,530.76 108.9,532.96 109.25,536.53 111.47,545.87 125.64,599.84" fill="none" stroke="#ffffe0" stroke-width="2"/><polyline id="SvgjsPolyline4536" points="133.25,505.97 139.76,529.69 140.4,533.23 140.26,536.22 138.91,538.86 136.13,541.13 132.38,543.01 120.68,547.68 118.11,549.22 116.38,550.87 115.13,553.57 114.94,556.56 117.23,568.32" fill="none" stroke="#ffffe0" stroke-width="2"/><polyline id="SvgjsPolyline4537" points="137,519.49 143.79,545 144.61,550.33 144.49,554.52 143.37,557.92 140.84,561.25 137.07,564.22 126.97,570.68 124.38,573.17 122.84,575.74 122.01,579.22 122.15,584.01 123.21,589.92 125.69,599.81" fill="none" stroke="#ffffe0" stroke-width="2"/><polyline id="SvgjsPolyline4538" points="75.51,89.15 73.19,88.62 56.49,86.9 53.64,86 52.66,85.3 52.07,84.28 52.11,81.9 52.99,78.41 61.81,49.74" fill="none" stroke="#ffffe0" stroke-width="2"/><polyline id="SvgjsPolyline4539" points="12.92,152.06 22.44,113.01 26.33,98.52 28.13,93.44 30.23,90.53 33.14,88.44 37.01,86.8 47.89,83.43 50.02,82.33 51.75,80.68 53.41,76.84 61.93,49.39" fill="none" stroke="#ffffe0" stroke-width="2"/><polyline id="SvgjsPolyline4540" points="26.46,97.91 32.77,75.38 35.12,69.89 37.31,67.87 40.5,66.22 53.9,62.98 57.22,61.64 58.57,59.7 61.92,49.46" fill="none" stroke="#ffffe0" stroke-width="2"/><polyline id="SvgjsPolyline4541" points="100.2,0.45 89.91,34.95 80.55,69.04 80.12,69.45 76,70.15 65.81,70.12 59.84,69.55 57.08,68.47 56.6,67.4 56.83,65.62 61.87,49.6" fill="none" stroke="#ffffe0" stroke-width="2"/><polyline id="SvgjsPolyline4542" points="12.96,151.86 18.64,127.92 25.72,100.63 34.44,69.42 40.53,49.33 42.39,47.03 46.87,45.4 54.01,44.49 62.99,44.3" fill="none" stroke="#ffffe0" stroke-width="2"/><polyline id="SvgjsPolyline4543" points="68.06,115.56 68.63,115.38 68.39,114.87 71.37,114.54 95.96,114.35" fill="none" stroke="#ffffe0" stroke-width="2"/><polyline id="SvgjsPolyline4544" points="114.15,165.6 114.75,165.63 121.13,141.9 121.79,138.98 121.5,137.24 118.97,135.74 112.46,134.74 96.87,134.33 93.28,134.55 91.59,135.1 90.89,136.73 88.1,149.01 82.31,177.22 77.84,202.63 73.94,229.35 71.4,251.4 69.57,272.92 68.48,293.29 68.11,316.09 68.47,332.89 69.6,352.05 71.54,371.15 73.63,386 76.53,402.55 80.33,420.76 92.92,472.03" fill="none" stroke="#ffffe0" stroke-width="2"/><polyline id="SvgjsPolyline4545" points="113.94,166.51 114.46,166.75 112.8,172.5 111.82,173.97 108.6,175.55 94.75,179.47 88.61,181.88 84.26,185.03 82.44,187.41 81.1,190.09 79.64,194.66 78.36,200.52 75.04,221.26 71.87,246.86 69.59,272.56 68.32,298.33 68.2,323.52 69.3,348.1 71.21,368.41 74.24,389.79 78.72,413.37 84.63,439.09 92.99,472.25" fill="none" stroke="#ffffe0" stroke-width="2"/><polyline id="SvgjsPolyline4546" points="114.98,164.7 103.77,208.27 101.07,216.21 98.56,220.99 95.38,225.35 83.76,237.47 79.28,243.1 75.79,249.39 73.18,256.73 70.72,269.08 68.98,286.99 68.17,309.18 68.35,328.97" fill="none" stroke="#ffffe0" stroke-width="2"/><polyline id="SvgjsPolyline4547" points="115.38,165.12 114.79,165.14 106.54,197.09 102.53,215.87 99.74,232.43 96.89,258.07 94.99,300.02 94.38,307.2 93.41,313.12 91.53,319.44 88.93,324.84 79.33,338.61 76.01,344.31 74.02,349.33 72.76,354.58 72.03,361.73 72.14,370.73 73,380.29 74.8,392.76" fill="none" stroke="#ffffe0" stroke-width="2"/><polyline id="SvgjsPolyline4548" points="96.19,270.04 95.77,291.04 96.48,314.42 98.21,337.16 102.07,371.14 102.1,379.52 100.89,383.52 98.44,386.91 95.24,389.63 85.83,396.05 81.98,399.82 79.77,404.05 79.01,409.38 79.66,416.54 81.8,427.13 93.05,472.49" fill="none" stroke="#ffffe0" stroke-width="2"/><polyline id="SvgjsPolyline4549" points="115.08,164.72 106.39,197.73 103.21,212.39 100.55,227.15 97.24,253.94 96.18,270.11 95.8,283.3 96.42,313.29 99.16,346.17 104.26,382.41 111.66,421.3 110.89,422.85 108.76,423.94 94.2,427.52 89.09,429.25 86.09,431.2 84.78,433.2 84.39,436.15 85.12,440.89 92.83,471.74" fill="none" stroke="#ffffe0" stroke-width="2"/><polyline id="SvgjsPolyline4550" points="133.09,505.41 116.85,444.6 113.97,443.87 107.98,443.82 98.99,444.37 91.88,445.43 89.61,446.2 88.15,447.23 87.48,448.87 87.7,451.25" fill="none" stroke="#ffffe0" stroke-width="2"/><polyline id="SvgjsPolyline4551" points="13.55,151.82 12.95,151.76 10.31,164.08 10.08,166.46 10.45,167.6 13.22,169.82 22.09,173.49 25.73,175.56 28.03,178.28 29.01,182.34 28.59,190.12 23.23,234.19 20.53,266.48 19.11,298.84 19.18,331.24 20.95,362.99 24.51,393.98 30.06,425.9 38.04,461.61" fill="none" stroke="#ffffe0" stroke-width="2"/><polyline id="SvgjsPolyline4552" points="12.78,152.65 8.79,171.43 5.64,188.55 4.59,196.88 4.57,202.27 5.36,206.39 7.08,210.21 9.46,213.66 15.23,220.57 18.09,225.14 19.79,229.62 20.73,234.33 21.17,239.71 21.19,248.11 19.47,285.87 18.94,311.06 19.34,336.25 20.63,359.02 23.17,384.09 26.9,409.01 31.68,433.75 38.11,461.8" fill="none" stroke="#ffffe0" stroke-width="2"/><polyline id="SvgjsPolyline4553" points="133.36,506.72 151.94,506.02 162.04,504.7 164.33,503.98 166.38,502.75 167.43,501.3 167.89,498.96 167.61,495.38 166.2,488.32 159.6,462.76 137.87,392.94" fill="none" stroke="#ffffe0" stroke-width="2"/><polyline id="SvgjsPolyline4554" points="136.51,517.56 137.79,519.56 140.97,521.19 147.41,522.63 167.57,525.68 171.52,527.08 173.69,529.1 174.95,532.46 176.22,538.93 185.59,599.41" fill="none" stroke="#ffffe0" stroke-width="2"/><polyline id="SvgjsPolyline4555" points="139.67,529.12 144.06,543.46 145.86,547.25 148.22,550.71 151.14,553.73 154.42,556.35 170.31,567.11 173.8,570.4 177.09,574.68 179.37,578.89 181.33,583.92 185.18,599.65" fill="none" stroke="#ffffe0" stroke-width="2"/><polyline id="SvgjsPolyline4556" points="133.2,505.81 147.42,557.91 150.03,569 151.3,576.7 151.57,583.88 150.38,589.74 147.78,594.46 142.8,599.63" fill="none" stroke="#ffffe0" stroke-width="2"/><polyline id="SvgjsPolyline4557" points="16.18,137.78 16.08,136.6 14.87,135.29 3.69,131 1.66,129.74 0.1,127.93" fill="none" stroke="#ffffe0" stroke-width="2"/><polyline id="SvgjsPolyline4558" points="19.44,124.41 19.55,121.43 18.35,119.39 15.89,117.68 8.35,113.98 5.19,111.26 4.03,109.17 3.57,107.43 3.69,102.65 7.37,86.88 16.22,56.97 26.03,27.98 36.27,0.42" fill="none" stroke="#ffffe0" stroke-width="2"/><polyline id="SvgjsPolyline4559" points="109.53,0.3 116.45,5.06 120.65,9.3 121.77,11.42 122.42,13.73 122.54,19.11 121.65,24.43 119.71,31.99 107.47,73.42 99.67,101.73" fill="none" stroke="#ffffe0" stroke-width="2"/><polyline id="SvgjsPolyline4560" points="81.39,0.31 78.3,3.95 75.99,8.83 63.14,45.65" fill="none" stroke="#ffffe0" stroke-width="2"/><polyline id="SvgjsPolyline4561" points="12.39,151.98 12.91,152.19 20.61,120.11 30.08,84.75 39.27,53.06 47,28.48 46.46,27.53 44.8,26.85 32.49,24.23 30.37,23.12 29.37,21.65 29.32,19.87 29.9,17.54 36.39,0.11" fill="none" stroke="#ffffe0" stroke-width="2"/><polyline id="SvgjsPolyline4562" points="113.86,167.19 116.8,167.41 124.57,166.66 131.68,165.55 137.51,164.16 141.45,162.71 144.58,160.94 146.86,158.99 148.74,156.66 151.71,150.78 154.65,142.27 165.45,106.68 172.52,81.87" fill="none" stroke="#ffffe0" stroke-width="2"/><polyline id="SvgjsPolyline4563" points="121.75,139.6 126.28,122.18 126.36,120.39 125.73,119.39 122.44,118 117.71,117.26 96.14,116.18" fill="none" stroke="#ffffe0" stroke-width="2"/><polyline id="SvgjsPolyline4564" points="115.38,164.87 114.78,164.88 110.93,179.98 111.03,181.75 112.72,183.38 115.58,184.27 120.34,184.84 126.94,184.93 132.92,184.5 139.29,182.87 141.32,181.6 142.95,179.84 144.39,177.22 146.18,172.13 172.43,82.29" fill="none" stroke="#ffffe0" stroke-width="2"/><polyline id="SvgjsPolyline4565" points="112.64,173.1 108.07,191.74 108.03,195.33 109.22,198.05 112.56,200.53 118.83,202.56 131.26,204.58 136.04,204.97 137.82,204.76 138.61,203.22 147.19,168.88 156.1,137.73" fill="none" stroke="#ffffe0" stroke-width="2"/><polyline id="SvgjsPolyline4566" points="108.56,188.77 106.26,198.7 105.32,204.63 105.39,209.41 106.5,212.82 108.73,215.63 112.14,218.06 125.34,223.8 129.02,225.81 131.14,227.91 132.12,230.71 132,235.5 128.5,261.06 126.58,281.37 125.71,300.55 125.87,319.74 127.06,337.7 129.53,356.74 132.99,374.4 137.67,392.35" fill="none" stroke="#ffffe0" stroke-width="2"/><polyline id="SvgjsPolyline4567" points="133.31,506.11 129.93,493.98 129.87,492.79 130.21,492.3 134.01,490.62 149.85,487.24 156.08,485.08 158.62,483.49 160.24,481.74 161.28,479.58 161.74,476.63 161,469.48 157.79,456.68 137.85,393.14" fill="none" stroke="#ffffe0" stroke-width="2"/><polyline id="SvgjsPolyline4568" points="133.16,505.68 128.68,489.49 127.93,487.86 127.04,487.06 124.25,485.99 118.92,485.2 96.15,484.08" fill="none" stroke="#ffffe0" stroke-width="2"/><polyline id="SvgjsPolyline4569" points="133.15,505.61 126.03,479.57 125.76,476.61 126.81,475.18 129.45,473.77 143.28,469.78 148.89,467.69 152.47,465.5 154.49,463.3 155.98,459.41 156.04,454.62 154.43,446.38 151.41,436.01" fill="none" stroke="#ffffe0" stroke-width="2"/><polyline id="SvgjsPolyline4570" points="12.82,152.46 7.79,176.54 4.17,197.23 1.34,218.03 0.01,233.58" fill="none" stroke="#ffffe0" stroke-width="2"/><polyline id="SvgjsPolyline4571" points="12.76,152.75 7.51,178.01 3.32,202.86 0.81,224.31 0.45,237.49 1.2,244.65 2.86,251.03 5.41,257.11 12.86,271.49 14.89,277.14 16.4,283.56 17.99,298.46 19.46,340.44" fill="none" stroke="#ffffe0" stroke-width="2"/><polyline id="SvgjsPolyline4572" points="216.14,528.5 215.15,523.81 214.27,521.58 212.35,519.3 209.84,517.67 206.52,516.29 201.32,514.83 177.76,510.26 173.84,508.8 171.53,506.92 169.61,502.55 163.72,478.05 157.66,456.07" fill="none" stroke="#ffffe0" stroke-width="2"/><polyline id="SvgjsPolyline4573" points="216.04,528.14 213.17,515.26 210.09,505.54 206.4,497.34 202.15,490.81 197.74,485.9 192.27,481.24 173.1,468.9 167.78,465 163.05,460.41 159.25,455.02 156.1,448.55 152.75,439.56 137.89,393.29" fill="none" stroke="#ffffe0" stroke-width="2"/><polyline id="SvgjsPolyline4574" points="115.22,438.25 116.84,437.57 129.88,435.53 138.06,433.65 142.96,431.41 144.74,429.81 145.7,428.29 146.42,424.79 145.72,419.45 137.84,393.01" fill="none" stroke="#ffffe0" stroke-width="2"/><polyline id="SvgjsPolyline4575" points="215.2,523.84 210.24,504.68 201.24,477.95 190.92,451.07 187.23,442.86 183.51,436.01 178.96,429.68 173.82,424.65 165.84,419.34 150.75,411.97 146.08,409.25 142.6,405.98 140.26,401.14" fill="none" stroke="#ffffe0" stroke-width="2"/><polyline id="SvgjsPolyline4576" points="212.75,513.52 204.93,488.31 181.92,423.26 178.08,413.17 174.88,406.72 172.45,403.3 169.46,400.36 166.49,398.33 162.72,396.49 157.04,394.57 150.04,392.9 141.16,391.45 137.59,391.39" fill="none" stroke="#ffffe0" stroke-width="2"/><polyline id="SvgjsPolyline4577" points="216.37,528.66 212.9,529.53 189.12,532.71 183.9,534.06 180.18,535.98 178.35,538.32 177.62,541.82 177.87,547.21 179.31,557.91" fill="none" stroke="#ffffe0" stroke-width="2"/><polyline id="SvgjsPolyline4578" points="216.02,528 217.06,534.51 217.21,538.7 216.45,542.21 214.67,545.32 212.16,547.9 209.28,550.06 195.78,557.87 191.84,560.6 188.39,563.93 185.88,568 184.41,573.18 183.99,578.56 184.41,587.55 185.83,599.46" fill="none" stroke="#ffffe0" stroke-width="2"/><polyline id="SvgjsPolyline4579" points="139.66,529.06 149.32,564.36 153.78,578.05 156.46,584.08 159.45,589.28 162.98,594.13 168.13,599.99" fill="none" stroke="#ffffe0" stroke-width="2"/><polyline id="SvgjsPolyline4580" points="0.04,55.68 0.54,51.52 0.01,48.58" fill="none" stroke="#ffffe0" stroke-width="2"/><polyline id="SvgjsPolyline4581" points="0.13,56.59 5.34,39.36 6.38,34.07 6.07,31.71 4.98,29.58 3.27,27.9 0.27,25.91" fill="none" stroke="#ffffe0" stroke-width="2"/><polyline id="SvgjsPolyline4582" points="0.04,56.88 12.16,18.55 13.15,13.88 12.33,11.65 11.09,10.37 2.51,6.09 1.11,4.96 0.16,3.45" fill="none" stroke="#ffffe0" stroke-width="2"/><polyline id="SvgjsPolyline4583" points="56.17,0.39 52.96,9.89 52.4,10.09 45.82,10.41 36.86,9.63 35.15,9.11 34.2,8.39 33.94,7.24 34.18,6.07" fill="none" stroke="#ffffe0" stroke-width="2"/><polyline id="SvgjsPolyline4584" points="136.86,0.17 131.23,6.39 126.8,13.52 123.09,22.36 118.26,37.19" fill="none" stroke="#ffffe0" stroke-width="2"/><polyline id="SvgjsPolyline4585" points="153.85,0.37 147.54,26.62 145.36,32.84 143.05,37.04 139.86,40.62 135.98,43.43 121.42,50.51 117.8,52.63 114.63,55.37 112.58,58.32 109.43,66.73 99.73,101.4" fill="none" stroke="#ffffe0" stroke-width="2"/><polyline id="SvgjsPolyline4586" points="153.85,0.43 140.81,60.22 139.47,65.45 138.28,68.2 135.75,70.72 131.92,72.4 113.72,76.18 109.12,77.55 106.62,79.17 105.17,81.77" fill="none" stroke="#ffffe0" stroke-width="2"/><polyline id="SvgjsPolyline4587" points="133.75,92.52 105.6,94.01 102.65,94.51 101.32,95.61" fill="none" stroke="#ffffe0" stroke-width="2"/><polyline id="SvgjsPolyline4588" points="163.54,248.64 166.4,237.6 170.49,225.05 184.48,190.59 189.47,177.08 192.48,166.09 193.56,157.77 193.37,152.98 192.48,148.88 190.77,145.06 188.69,142.12 183.41,137.25 169.51,127.83 166.5,124.91 164.88,122.39 163.87,118.95 163.82,115.36 166.07,104.81" fill="none" stroke="#ffffe0" stroke-width="2"/><polyline id="SvgjsPolyline4589" points="114.87,164.84 125.83,124.3 127.09,121.59 128.93,120.07 132.24,118.67 154.3,112.97 158.15,111.3 161.64,108.97 164.75,105.34 166.85,101.03 172.49,82.06" fill="none" stroke="#ffffe0" stroke-width="2"/><polyline id="SvgjsPolyline4590" points="163.61,248.35 167.17,235.02 172.05,220.84 188.77,181.01 195.55,163.05 200.6,145.78 201.88,139.31 202.56,133.35 202.55,128.55 201.72,123.83 200.07,119.99 197.93,117.1 194.8,114.31 191.27,112.03 174.02,103.63 171.61,101.84 170.08,100.01 169.25,97.77 169.26,94.78 172.5,81.99" fill="none" stroke="#ffffe0" stroke-width="2"/><polyline id="SvgjsPolyline4591" points="153.94,0.03 135.27,85.61 137.38,86.63 141.55,87.09 160.74,87.22 169.08,86.33 170.74,85.64 171.83,84.26" fill="none" stroke="#ffffe0" stroke-width="2"/><polyline id="SvgjsPolyline4592" points="163.59,248.44 167.14,235.11 172.02,220.92 190.85,176.12 199.32,153.03 205.88,129.95 208.08,119.38 209.22,110.46 209.22,105.66 208.39,101.56 206.65,98.42 204,96.01 200.31,94.02 195.2,92.27 174.76,87.49 172.2,86 171.93,84.28" fill="none" stroke="#ffffe0" stroke-width="2"/><polyline id="SvgjsPolyline4593" points="163.51,248.78 168.67,230.3 180.76,197.03 182.53,189.44 182.91,183.46 182.44,179.9 181.51,177.05 180.1,174.41 177.86,171.6 172.81,167.35 160.31,159.08 157.29,156.17 155.7,153.64 154.72,150.19 154.78,145.4 156.03,138.92 158.57,129.66" fill="none" stroke="#ffffe0" stroke-width="2"/><polyline id="SvgjsPolyline4594" points="168.2,231.57 169.62,225.74 169.65,222.16 168.48,219.43 165.78,217.08 159.66,214.67 150.23,212.86 140.08,211.99 137.71,212.31 136.78,213.03 135.41,218.23 131.93,237.11 128.18,263.85 126.25,286.56 125.65,309.35 126.53,331.53 128.85,352.4 132.17,370.7 137.6,392.21" fill="none" stroke="#ffffe0" stroke-width="2"/><polyline id="SvgjsPolyline4595" points="169.78,226.91 172.67,217.75 173.73,212.46 173.69,208.28 172.26,204.35 169.48,201.23 165.46,198.64 149.87,192.4 146.16,190.44 144.14,188.26 143.53,185.36 144.75,178.28 149.88,159.15 169.78,91.83" fill="none" stroke="#ffffe0" stroke-width="2"/><polyline id="SvgjsPolyline4596" points="163.45,249.44 162.89,249.65 163.36,249.97 162.83,250.25 163.25,250.64 162.85,251.09 162.96,251.67 161.59,252.79 145.44,257.37 140.36,259.18 135.11,262.07 131.36,265.92 128.83,271.33 127.13,279.55 126.08,291.5 125.66,305.89" fill="none" stroke="#ffffe0" stroke-width="2"/><polyline id="SvgjsPolyline4597" points="163.62,248.3 160.47,265.41 159.2,276.74 158.16,292.3 157.01,296.94 154.94,299.86 152.12,302.09 138.86,309.1 133.48,312.89 131.42,315.07 129.76,317.56 128.56,320.31 127.66,323.79 127.16,327.96 127.1,334.55 128.79,351.86 132.31,371.34 137.63,392.26" fill="none" stroke="#ffffe0" stroke-width="2"/><polyline id="SvgjsPolyline4598" points="163.9,351.27 149.65,353.38 141.46,355.23 135.98,357.61 133.05,360.58 131.9,364.58 132.21,369.96 134.45,380.52 137.56,392.11" fill="none" stroke="#ffffe0" stroke-width="2"/><polyline id="SvgjsPolyline4599" points="216.08,528.37 213.41,516.06 208.59,499.34 185.46,433.07 178.09,410.23 171.18,386.62 169.03,381.03 166.41,377.78 164.37,376.53 161.55,375.51 154.44,374.41 144.85,374.32 139.51,375.05 136.22,376.46 135.1,377.85 134.77,379 135.17,383.16" fill="none" stroke="#ffffe0" stroke-width="2"/><polyline id="SvgjsPolyline4600" points="215.62,527.79 216.11,527.46 215.71,527.02 215.86,526.45 218.53,525.15 239.08,520.85 246.58,518.73 252.03,516.23 255.75,513.22 257.52,510.81 258.79,508.1 260.26,501.68 260.71,492.69 260.11,480.71 258.33,466.43 255.84,453.46 252.19,439.54 247.54,425.91 241.88,412.67 235.57,400.4 229.17,389.55 213.02,364.27 206.29,351.55 202.56,342.06 200.07,333.41 198.17,324.01 196.86,312.71" fill="none" stroke="#ffffe0" stroke-width="2"/><polyline id="SvgjsPolyline4601" points="215.02,522.8 214.65,519.82 214.92,516.84 216.11,514.11 218.02,511.79 223.24,507.78 240.12,497.45 245.14,493.17 248.58,489.02 251.21,484.31 253.13,478.64 254.15,472.73 254.48,465.54 253.79,455.37 251.99,444.72 248.65,431.96 244.45,420.08 240.15,410.17 233.54,397.39 214.84,367.33" fill="none" stroke="#ffffe0" stroke-width="2"/><polyline id="SvgjsPolyline4602" points="213.98,518.17 212.73,511.69 212.29,506.31 212.7,502.14 213.73,498.7 215.7,495 218.26,491.67 234.81,476.01 239.09,470.99 241.72,466.97 244.27,461.55 246.04,455.2 246.84,448.05 246.72,441.46 245.65,433.13 243.61,424.36 240.65,415.24 237.01,406.36 228.78,390.36 210.51,360.04 207.23,353.63 203.93,345.9 201.28,337.94 199.37,330.38 197.79,321.52 196.86,312.61" fill="none" stroke="#ffffe0" stroke-width="2"/><polyline id="SvgjsPolyline4603" points="212.73,513.29 209.86,501.64 208.49,493.96 208.2,487.38 209.1,481.46 211.06,476.43 213.91,471.85 228.95,454.73 232.14,450.38 234.55,446.23 236.63,441.26 237.98,436.03 238.6,430.67 238.52,424.67 237.67,418.13 236.33,412.28 233.97,404.85 231.05,397.62 224.6,384.75 209.72,358.71 206.07,351.14 203.39,344.46 201.18,337.61 199.3,330.04 197.74,321.18 196.86,312.84" fill="none" stroke="#ffffe0" stroke-width="2"/><polyline id="SvgjsPolyline4604" points="216.03,528.06 217.26,533.31 218.75,535.17 220.74,536.5 226.92,538.78 244.47,542.75 250.81,544.58 255.66,546.93 257.49,548.47 258.93,550.39 260.51,554.9 261.14,563.26 259.54,599.82" fill="none" stroke="#ffffe0" stroke-width="2"/><polyline id="SvgjsPolyline4605" points="216.21,529.08 218.6,542.67 220.01,547.25 221.85,551.02 224.66,554.9 228.05,558.3 243.78,570.31 247.76,573.96 250.85,577.62 253.6,582.26 255.33,586.74 256.71,592.57 257.58,599.71" fill="none" stroke="#ffffe0" stroke-width="2"/><polyline id="SvgjsPolyline4606" points="216.66,531.66 218.07,542.37 218.43,550.16 217.99,556.14 216.35,562.52 214.26,566.83 210.77,571.7 198.4,583.93 194.52,588.5 191.54,593.69 189.77,599.41" fill="none" stroke="#ffffe0" stroke-width="2"/><polyline id="SvgjsPolyline4607" points="167.19,0.18 175.1,8.4 178.67,13.21 181.13,18.67 182.44,25.73 182.25,35.32 180.65,46.6 177.24,63.05 172.74,81.1" fill="none" stroke="#ffffe0" stroke-width="2"/><polyline id="SvgjsPolyline4608" points="153.9,0.48 150.28,19.94 150.07,25.93 150.83,30.04 152.44,33.26 155.26,36.35 159.11,39.2 170.31,46.19 173.05,48.52 175.3,51.32 176.73,54.61 177.26,58.16 177.04,62.35 175.84,68.84" fill="none" stroke="#ffffe0" stroke-width="2"/><polyline id="SvgjsPolyline4609" points="162.9,249.58 163.37,249.91 162.83,250.17 163.28,250.54 162.64,252 162.89,252.54 165.82,253.01 177.18,252.16 188.99,250.06 194.12,248.38 197.82,246.41 200.96,243.64 203.63,239.66 206.68,232.49 214.48,209.79 221.8,190.11 248.4,125.8 256.21,105.02 259.61,93.52 261.71,83.54 262.7,74.59 262.78,66.2" fill="none" stroke="#ffffe0" stroke-width="2"/><polyline id="SvgjsPolyline4610" points="165.3,241.8 166.73,239.9 169.81,238.06 189.48,230.73 197.97,226.29 201.8,223.39 205.2,220.01 208.48,215.73 211.6,210.6 217.6,198.18 242.79,139.13 250.58,120.27 255.01,108.48 259.14,95.31 261.5,84.78 262.62,75.85 262.78,66.26" fill="none" stroke="#ffffe0" stroke-width="2"/><polyline id="SvgjsPolyline4611" points="153.89,0.24 144.82,42.48 144,49.02 144.32,52.6 146.03,55.72 149.39,58.22 154.34,60.35 167.98,64.96 171.2,66.57 173.08,68.05 174.35,70.07 174.65,72.43 172.71,81.21" fill="none" stroke="#ffffe0" stroke-width="2"/><polyline id="SvgjsPolyline4612" points="172.85,218.85 178.06,206.72 183.66,195.43 189.6,185.01 196.18,174.98 208.73,158.9 238.65,125.3 244.93,117.26 250.65,108.82 255.05,100.97 259.04,91.59 261.34,83.52 262.65,74.62" fill="none" stroke="#ffffe0" stroke-width="2"/><polyline id="SvgjsPolyline4613" points="163.76,247.71 167.9,232.67 173.6,216.87 191.08,176.06 204.93,141.53 210.31,130.15 215.83,121.58 222.7,114.06 229.62,108.3 248.11,94.97 252.65,91.05 255.95,87.57 259.38,82.66 261.53,77.71 262.62,72.43 262.79,66.44" fill="none" stroke="#ffffe0" stroke-width="2"/><polyline id="SvgjsPolyline4614" points="163.52,248.72 167.23,234.81 171.29,222.88 190.75,176.4 199.27,153.32 206.16,129.72 213.22,96.87 214.3,92.81 215.67,89.49 218.74,85.84 221.22,84.15 224.48,82.63 231.93,80.36 249.46,76.25 257.39,73.53 261.33,70.83 262.31,69.33 262.75,67.6" fill="none" stroke="#ffffe0" stroke-width="2"/><polyline id="SvgjsPolyline4615" points="200.46,149.64 206.07,130.03 209.91,113.06 213.57,91.77 214.87,81.66 214.87,78.67 213.8,77.28 210.38,76.24 196,75.63 178.63,76.48 175.14,77.32 173.42,78.9" fill="none" stroke="#ffffe0" stroke-width="2"/><polyline id="SvgjsPolyline4616" points="163.46,249.02 161.57,258.43 160.71,264.97 161.3,267.26 163.15,268.74 166.58,269.79 171.34,270.39 186.33,270.51 194.64,269.38 196.84,268.43 198.51,266.74 199.73,263.37 203.08,248.13 206.58,234.78 210.58,221.58 215.8,206.24 226.3,178.78 250.26,121.17 257.01,102.56 259.81,92.75 261.74,83.35 262.71,74.41 262.77,66.01" fill="none" stroke="#ffffe0" stroke-width="2"/><polyline id="SvgjsPolyline4617" points="160.71,263.74 159.48,273.86 159.23,279.85 160.02,283.34 162,285.55 165.81,287.27 172.27,288.59 181.83,289.55 196.21,290.27" fill="none" stroke="#ffffe0" stroke-width="2"/><polyline id="SvgjsPolyline4618" points="160.71,263.79 159.09,278.1 158.4,293.68 158.72,302.07 159.22,304.41 160.28,306.55 162.01,308.2 164.13,309.32 171.68,311.2 186.02,312.5 193.81,312.73 196.69,312.37" fill="none" stroke="#ffffe0" stroke-width="2"/><polyline id="SvgjsPolyline4619" points="163.37,249.42 160.65,264.16 159.06,278.47 158.39,293.45 158.68,312.65 158.14,316.8 156.61,319.36 153.79,321.57 139.62,328.08 134.53,331.23 131.27,334.73 129.35,339.11 128.63,345.05 128.97,351.64 130.52,362.32 132.79,373.49" fill="none" stroke="#ffffe0" stroke-width="2"/><polyline id="SvgjsPolyline4620" points="216.07,528.27 212.64,513.06 203.5,480.11 202.24,471.81 202.36,464.62 203.97,458.24 207.05,452.41 211.05,447.17 221.72,434.98 226.61,427.44 228.47,423.02 229.56,418.97 230.18,414.21 230.17,409.42 228.65,399.95 225.04,389.15 220.79,379.88 209.85,359.2 205.3,349.4" fill="none" stroke="#ffffe0" stroke-width="2"/><polyline id="SvgjsPolyline4621" points="210.33,504.95 200.21,473.54 197.06,462.58 195.17,452.57 195.07,445.38 196.56,438.97 199.7,433.18 203.88,428.08 214.19,417.19 219.01,410.32 220.53,407.07 221.77,403.06 222.46,395.91 221.62,388.77 218.91,379.57 205.31,349.51" fill="none" stroke="#ffffe0" stroke-width="2"/><polyline id="SvgjsPolyline4622" points="215.91,527.46 213.18,515.16 209.57,502.46 190.29,445.02 188.12,436.29 187.22,429.75 187.21,426.15 187.73,422.6 188.64,419.74 190.31,416.56 194.93,411.06 206.14,401.09 210.21,396.69 213.65,391.07 215.28,385.32 215.34,378.74 213.9,371.69 211.79,365.44 203.9,345.98 200.96,336.84" fill="none" stroke="#ffffe0" stroke-width="2"/><polyline id="SvgjsPolyline4623" points="200.13,474.65 189.69,445.25 183.31,425.87 180,413.1 179.34,405.95 180.46,400.69 183.46,396.24 187.54,392.71 202.3,382.43 206.04,378.55 208.44,374.41 209.62,369.16 209.32,363.78 207.77,357.37 203.46,344.89" fill="none" stroke="#ffffe0" stroke-width="2"/><polyline id="SvgjsPolyline4624" points="202.51,481.35 189.03,443.48 180.66,418.44 173.69,394.85 172.19,388.43 171.66,384.26 172.38,380.16 175.04,376.97 179.66,374.19 191.77,368.94 197.6,365.85 201.77,362.44 204.23,358.36 204.87,354.83 204.58,350.65 199.36,330.32 197.78,321.46 196.86,313.11" fill="none" stroke="#ffffe0" stroke-width="2"/><polyline id="SvgjsPolyline4625" points="311,535.28 303.24,534.67 269.66,533.42 264.93,532.71 263.65,531.51 262.97,528 262.13,497.42 260.22,477.11 256.8,457 251.6,437.29 246.07,422.06 238.76,406.28 229.86,390.64 212.15,362.79 208.14,355.42 204.9,348.32" fill="none" stroke="#ffffe0" stroke-width="2"/><polyline id="SvgjsPolyline4626" points="310.71,535.69 314.77,522.5 316.8,510.69 317.01,498.7 315.59,487.4 312.53,475.18 307.03,459.95 298.63,441.36 289.76,424.33 283.15,412.91 275.98,401.83 268.78,392.23 261.57,384.2 254.46,377.75 245.22,371.09 236.41,365.95 218.86,356.78 210.81,351.58 207.26,348.35 204.67,345.05 202.45,340.8 200.86,336.27" fill="none" stroke="#ffffe0" stroke-width="2"/><polyline id="SvgjsPolyline4627" points="158.69,309.62 159.68,323.38 161.34,336.47 162.71,338.36 166.75,339.41 176.34,339.49 188.28,338.4 194.71,336.92 197.84,335.19 198.88,333.74 199.26,331.39 196.86,312.96" fill="none" stroke="#ffffe0" stroke-width="2"/><polyline id="SvgjsPolyline4628" points="260.8,260.93 256.82,266.92 254.14,272.95 252.16,279.86 250.98,288.17 250.8,294.77 251.31,302.55 252.79,312.03 256.26,327.24 256.43,329.63 255.75,331.26 253.06,332.48 247.68,332.8 235.7,332.02 216.61,329.98 207.72,328.63 202.48,327.33 199.34,325.62 198.2,323.55" fill="none" stroke="#ffffe0" stroke-width="2"/><polyline id="SvgjsPolyline4629" points="260.87,260.84 256.88,266.82 253.96,273.4 252.23,279.14 249.78,290.88 248.58,294.9 246.85,298.05 244.24,300.51 238.76,302.88 230.48,304.23 219.69,304.77 196.9,304.96" fill="none" stroke="#ffffe0" stroke-width="2"/><polyline id="SvgjsPolyline4630" points="310.53,536.22 308.6,539.91 304.8,542.8 298.76,545.44 284.51,550.13 277.82,552.79 272.08,556.02 268.13,559.68 265.07,564.81 262.83,572.27 261.15,583.55 259.78,599.69" fill="none" stroke="#ffffe0" stroke-width="2"/><polyline id="SvgjsPolyline4631" points="216.18,528.88 220.71,560.96 221.95,566.83 223.86,573.14 226.22,578.65 230.15,585.38 241.79,599.89" fill="none" stroke="#ffffe0" stroke-width="2"/><polyline id="SvgjsPolyline4632" points="218.01,541.17 219.67,562.7 219.63,571.1 219,578.27 217.84,584.15 216.13,589.27 213.44,594.63 210.11,599.61" fill="none" stroke="#ffffe0" stroke-width="2"/><polyline id="SvgjsPolyline4633" points="192.17,0.14 189.65,7.52 186.88,17.96 178.81,56.11 174.39,74.8" fill="none" stroke="#ffffe0" stroke-width="2"/><polyline id="SvgjsPolyline4634" points="260.55,261.24 263.8,257.71 272.34,250.16 275.84,246.06 278.82,240.2 279.54,237.29 279.86,233.71 279.63,230.12 278.75,226.01 275.47,218.3 269.38,209.4 255.09,193.2 249.37,185.51 246.77,180.78 244.96,176.33 243.71,171.7 243.09,167.55 243.15,157.36 244.95,146.11 248.39,132.75 258.24,100 260.61,90.08 262.02,81.8" fill="none" stroke="#ffffe0" stroke-width="2"/><polyline id="SvgjsPolyline4635" points="261.23,260.42 264.17,257.43 267.53,254.91 283.59,245.53 291.37,239.93 298.57,232.72 304.7,223.84 307.71,217.97 310.43,211.31 314.55,196.9 317.28,179.72 318.36,161.16 317.83,142.57 316.06,127.08 314.54,119.43 312.93,113.65 311.26,109.15 308.86,104.32 304.24,98.05 297.42,92.21 289.69,87.61 273.55,79.64 267.51,75.75 265.35,73.67 263.99,71.69 262.87,67.68" fill="none" stroke="#ffffe0" stroke-width="2"/><polyline id="SvgjsPolyline4636" points="221.09,0 218,52.11 218.06,56.91 218.87,59.77 220.03,61.14 222.08,62.37 229.64,64.21 243.98,65.44 262.57,65.95" fill="none" stroke="#ffffe0" stroke-width="2"/><polyline id="SvgjsPolyline4637" points="221.07,0.12 218.48,36.02 217.08,43.69 215.28,48.12 212.2,51.78 207.64,54.65 202.08,56.89 186.67,61.87 182.28,63.81 179.75,65.42 177.23,67.97 175.78,70.59 172.78,80.96" fill="none" stroke="#ffffe0" stroke-width="2"/><polyline id="SvgjsPolyline4638" points="260.73,261.01 258.28,264.42 254.01,271.65 252.12,273.98 248.71,276.39 244.16,277.89 239.41,278.59 232.82,278.92 213.04,278.25 201.74,276.86 199.5,276.02 198.46,274.61 198.54,271.62 199.66,264.51 203.38,246.9 207.6,231.26 213.05,214.11 225.65,180.39 251.38,118.31 257.57,100.78 260.38,90.35 261.93,82.1 262.75,73.74 262.75,65.95" fill="none" stroke="#ffffe0" stroke-width="2"/><polyline id="SvgjsPolyline4639" points="259.23,262.95 256.49,264.03 251.1,263.96 239.8,262.42 226.81,260.1 218.04,258.1 212.88,256.49 209.08,254.72 206.33,252.42 205.16,250.34 204.66,248 205.32,240.85 208.96,226.93 215.75,206.42" fill="none" stroke="#ffffe0" stroke-width="2"/><polyline id="SvgjsPolyline4640" points="261.09,260.58 266.33,254.81 268.32,251.14 268.63,246.98 267.08,242.46 263.62,237.58 259.36,233.36 240.26,218.84 233.33,212.22 230.49,208.36 228.4,204.04 227.22,199.4 226.87,194.61 228,184.49 231.92,170.02 237.13,155.32 252.81,115.06 258.46,97.98" fill="none" stroke="#ffffe0" stroke-width="2"/><polyline id="SvgjsPolyline4641" points="311.65,532.89 312.12,529.94 311.69,527.59 310.54,525.49 308.5,523.3 303.6,519.85 286.61,510.91 280.53,507.06 276.8,504.04 273.87,501.04 269.18,494.09 266.95,489.17 264.8,482.94 255.49,447.54 251.86,436.11 248.1,425.99 243.07,414.43 236.19,401.11 228.48,388.24 213.83,365.57 209.35,357.76 206.18,351.3 202.86,342.93 200.15,333.73 198.22,324.33 196.9,313.61" fill="none" stroke="#ffffe0" stroke-width="2"/><polyline id="SvgjsPolyline4642" points="310.92,535.77 310.4,536.07 314.4,537.19 335.29,539.34 343.58,540.65 348.65,542.45 350.06,543.56 351.02,545.07 351.43,548.62 350.26,555.1 337.8,599.59" fill="none" stroke="#ffffe0" stroke-width="2"/><polyline id="SvgjsPolyline4643" points="310.69,535.76 312.92,530.88 315.01,528.74 317.48,527.03 324.53,523.72 342.1,517.63 349.85,514.39 356.44,510.25 361.35,505.02 364.94,498.78 368.5,489.87 373.53,473.85 381.34,446.13 383.7,439.33 387.45,430.49 393.32,419.34 399.85,409.28 407.68,399.42 415.2,391.67 425.44,383.36 434.74,377.88 443.73,374.56 447.86,373.8 452.05,373.65 456.19,374.3 459.53,375.63 462.44,377.73 465,381.04 466.57,385.55 466.63,389.74 465.21,393.65 464.4,394.53 463.3,394.78" fill="none" stroke="#ffffe0" stroke-width="2"/><polyline id="SvgjsPolyline4644" points="310.77,535.51 315.63,523.25 318.65,518.07 322.23,513.26 330.15,505.07 353.67,484.59 359.83,478.03 364.64,471.89 369.21,464.84 373.45,456.91 383.19,433.67 390.66,419.31 396.21,410.75 401.25,404.04 406.32,398.11 412.64,391.7 422.84,383.34 433.13,377.19 438.65,374.86 442.67,373.64 447.39,372.79 451.59,372.67 455.73,373.32 459.61,374.9 462.91,377.47 465.04,380.36 466.66,384.86 466.84,389.04 465.66,393.04 464.55,394.45 463.47,394.87" fill="none" stroke="#ffffe0" stroke-width="2"/><polyline id="SvgjsPolyline4645" points="310.65,535.86 312.97,528.42 313.75,521.88 313,516.55 310.42,510.49 307.74,506.52 304.26,502.39 283.2,481.03 278.64,475.46 274.12,469.1 266.55,456.17 251.17,424.95 242.32,408.59 234.14,395.31 215.25,367.53 209.41,357.74" fill="none" stroke="#ffffe0" stroke-width="2"/><polyline id="SvgjsPolyline4646" points="312.41,530.71 319.71,508.48 324.53,495.55 329.75,484.09 336.8,471.54 346.97,456.69 370.08,426.78 384.04,407.26 392.21,397.68 400.33,389.68 406.75,384.27 413.05,379.67 419.68,375.56 425.54,372.53 431.64,370.02 437.97,368.16 443.89,367.23 449.29,367.21 454.58,368.23 459.46,370.51 463.09,373.62 465.76,377.59 467.45,382.7 467.62,388.08 466.96,391 465.96,393.18 464.29,394.87 463.19,394.8" fill="none" stroke="#ffffe0" stroke-width="2"/><polyline id="SvgjsPolyline4647" points="313.89,526.02 317.1,513.84 319.31,502.04 323.48,466.29 325.31,453.83 327.7,442.68 330.71,432.94 336.05,420.88 343.05,409.7 352.26,398.64 363.09,388.27 372.34,380.63 381.63,374.02 392.43,367.55 402.65,362.5 413.26,358.34 422.48,355.69 433.13,353.95 440.93,353.84 449.2,355.22 455.83,357.98 461.54,362.33 464.25,365.53 466.16,368.58 467.87,372.41 469.01,376.45 469.59,381.21 469.42,385.4 468.33,390.07 466.69,393.26 464.47,395.22 463.32,395.17 463.04,394.67" fill="none" stroke="#ffffe0" stroke-width="2"/><polyline id="SvgjsPolyline4648" points="314.38,524.24 316.24,516.67 317.66,508.39 318.43,500.63 318.71,490.44 317.66,472.47 312.52,428.38 312.14,417.59 312.64,408.6 314.58,398.6 317.59,390.77 322.71,382.67 329.34,375.75 333.55,372.37 339.53,368.36 351.17,362.15 367.15,355.26 385.83,348.72 401.46,344.45 414.42,341.96 427.56,340.84 438.33,341.5 447.62,343.83 452.01,345.77 456.11,348.26 459.82,351.3 463.06,354.83 465.48,358.27 467.74,362.5 469.79,368.13 470.89,373.41 471.27,378.8 470.93,383.58 469.86,388.25 467.83,392.59 465.36,395.17 464.25,395.59 463.16,395.23" fill="none" stroke="#ffffe0" stroke-width="2"/><polyline id="SvgjsPolyline4649" points="310.6,535.98 314.43,523.98 316.71,513.43 317.75,503.89 317.8,493.1 316.48,479.97 313.75,465.83 309.7,450.15 298.87,412.68 296.16,401 294.92,393.3 294.49,384.32 295.5,377.2 298.03,371.13 302.19,366.04 305.47,363.42 310.12,360.68 316.16,358.03 322.4,355.89 346.17,349.55 384.09,340.45 400.58,337.22 416.05,335.28 428.04,335.02 437.58,336.05 442.26,337.12 447.92,339.09 452.22,341.23 456.22,343.88 459.84,347.01 463.03,350.59 465.76,354.55 467.99,358.79 470.1,364.4 471.61,371.44 471.99,377.42 471.58,382.8 470.12,388.61 467.94,392.87 466.34,394.66 464.82,395.59 463.64,395.65 463.16,395.31 463.14,394.22" fill="none" stroke="#ffffe0" stroke-width="2"/><polyline id="SvgjsPolyline4650" points="316.03,516.94 317.36,506.83 317.5,496.04 316.52,485.89 314.4,474.69 310.78,461.38 304.98,444.34 297.18,424.2 281.95,387 276.01,370.64 274.11,363.09 273.77,358.31 274.57,354.82 276.8,352.03 281.09,349.95 288.76,348.58 322.32,347.04 340.81,345.08 356.21,342.61 390.41,336.16 408.22,333.56 418.39,332.79 425.59,332.75 433.36,333.35 439.26,334.41 444.45,335.89 449.44,337.96 453.61,340.32 457.47,343.18 461.33,346.94 464.31,350.71 466.81,354.8 468.85,359.14 470.73,364.83 471.88,370.72 472.26,376.7 471.7,383.27 470.09,389.04 467.78,393.23 466.1,394.94 464.5,395.72 463.35,395.53 463,394.47" fill="none" stroke="#ffffe0" stroke-width="2"/><polyline id="SvgjsPolyline4651" points="315.6,519.03 317.24,507.76 317.28,494.57 315.53,481.49 311.75,466.36 305.53,448.2 296.25,425.42 284.07,398.67 273.39,377.85 268.38,369.66 264.05,363.92 259.4,359.24 253.04,354.75 247.13,351.8 239.82,349.09 210.99,340.82 206.57,338.96 203.06,336.67 200.8,333.89 199.5,330.55 197.82,321.71 196.86,312.78" fill="none" stroke="#ffffe0" stroke-width="2"/><polyline id="SvgjsPolyline4652" points="260.82,261.31 260.22,261.24 259.61,262.77 260.71,264.17 278.09,274.82 281.29,277.53 284.4,281.18 286.86,285.3 289.08,290.87 293.15,310.23 295,315.93 297.04,320.27 300.38,325.25 304.12,329.14 308.45,332.35 314.34,335.32 320.62,337.32 327.11,338.53 334.28,339.14 343.88,339.11 361.79,337.45 402.76,331.49 414.12,330.52 423.11,330.36 432.09,331 439.17,332.3 446.02,334.49 452.95,338.04 459.51,343.27 465.15,350.26 469.21,358.28 471.69,366.91 472.45,372.86 472.51,377.66 472.04,382.43 470.94,387.1 469.04,391.5 466.88,394.36 464.3,395.8 463.2,395.44 463.05,394.33" fill="none" stroke="#ffffe0" stroke-width="2"/><polyline id="SvgjsPolyline4653" points="257.08,266.52 255.53,270.42 255.25,273.99 256.26,277.42 258.16,280.47 261.76,284.5 270.14,292.22 274.01,296.8 278.19,303.38 285.98,317.58 292.06,325.75 295.49,329.11 299.27,332.06 303.9,334.83 308.84,337.02 316.31,339.22 323.41,340.39 331.19,340.92 340.79,340.78 359.89,338.83 401.98,332.32 411.53,331.37 421.72,330.98 430.71,331.44 438.4,332.69 445.3,334.75 452.3,338.15 458.97,343.23 464.07,349.13 468.47,356.96 471.13,364.91 472.44,374.41 471.93,382.78 469.92,389.68 468.51,392.32 466.58,394.61" fill="none" stroke="#ffffe0" stroke-width="2"/><polyline id="SvgjsPolyline4654" points="310.4,536.59 308.99,541.18 308.57,544.75 309.04,547.7 310.7,550.87 312.71,553.09 315.51,555.36 328.26,563.25 332.14,566.07 335.51,569.48 337.67,573.07 338.98,577.67 339.28,583.05 338.69,589.62 336.86,599.65" fill="none" stroke="#ffffe0" stroke-width="2"/><polyline id="SvgjsPolyline4655" points="310.48,536.37 303.55,554.91 300.95,560.31 297.31,566.53 290.86,575.18 275.85,591.53 269.71,599.67" fill="none" stroke="#ffffe0" stroke-width="2"/><polyline id="SvgjsPolyline4656" points="265.2,256.53 279.1,246.07 282.94,242.29 285.91,238.51 288.59,233.84 290.52,228.8 291.66,223.52 292.07,217.54 291.7,212.16 290.6,206.26 288.85,200.53 286.51,195 280.2,184.11 267.55,166.6 263.32,160.05 259.08,151.45 256.66,143.42 255.47,133.9 255.76,123.11 257.21,111.81 261.32,88.16 262.68,75.64" fill="none" stroke="#ffffe0" stroke-width="2"/><polyline id="SvgjsPolyline4657" points="262.09,259.47 264.19,258.34 267.74,257.78 273.13,257.96 278.47,258.71 291.83,262.13 296.3,263.89 301.09,266.37 306.98,270.5 312.61,275.89 316.81,280.98 327.03,295.06 332.7,301.24 339.89,306.63 348.05,310.39 357.34,312.76 369.27,314.06 380.06,314.28 409.46,313.77 425.62,314.76 433.88,316.24 440.22,318.08 446.3,320.64 451.48,323.65 455.33,326.52 459.26,330.22 462.74,334.34 465.76,338.82 468.31,343.58 470.82,349.67 472.69,356 473.74,361.3 474.44,367.86 474.44,374.45 473.86,379.82 472.47,385.65 470.37,390.62 467.51,394.45 466.09,395.55 464.4,396.11 463.28,395.76 462.9,394.67" fill="none" stroke="#ffffe0" stroke-width="2"/><polyline id="SvgjsPolyline4658" points="261.19,260.46 263.26,258.3 266.23,256.27 270.08,254.62 274.7,253.33 282.98,251.89 310.39,248.72 318.65,247.21 326.22,245.33 338.7,241.04 353.34,234.12 362.67,228.68 372.61,221.96 381.6,214.96 388.78,208.59 395.53,201.76 401.73,194.44 406.9,187.07 411,179.75 413.82,173.13 416.03,165.65 417.13,159.15 417.49,151.96 416.98,144.78 415.51,137.13 413.57,130.82 410.52,123.64 407.68,118.36 404.09,112.83 396.04,103.15 390.37,97.8 384.26,92.95 378.29,88.93 370.51,84.4 366.22,81.14 361.95,76.12 357.53,68.29" fill="none" stroke="#ffffe0" stroke-width="2"/><polyline id="SvgjsPolyline4659" points="263.21,258.32 266.55,255.78 271.32,253.26 292.72,245.4 303.15,240.81 312.46,235.36 320.64,229.26 327.84,222.92 335.51,215.32 358.95,189.6 370.8,175.27 374.56,169.85 377.57,164.66 380.03,159.19 382.15,152.94 384.72,141.23 385.36,130.46 384.25,120.33 382.38,113.39 379.31,106.23 369.98,91.55 360.02,73.06" fill="none" stroke="#ffffe0" stroke-width="2"/><polyline id="SvgjsPolyline4660" points="262.47,259.04 265.65,256.3 269.7,253.73 286.96,245.32 295.26,240.51 302.9,234.71 310.12,227.51 315.38,220.97 321.12,212.54 337.98,183.48 345,172.3 351.6,163 366.23,143.98 371.81,134.75 374.19,128.6 375.44,122.13 375.48,114.94 374.38,107.83 372.46,100.89 369.08,91.91 364.32,81.56 357.49,68.2" fill="none" stroke="#ffffe0" stroke-width="2"/><polyline id="SvgjsPolyline4661" points="263.59,257.95 267.83,254.62 283.8,243.97 289.11,239.12 293.65,233.54 297.26,227.31 300.44,218.91 302.24,210.1 302.76,201.12 302.3,193.94 300.95,186.26 298.57,178.21 295.61,171 292.29,164.61 288.53,158.47 271.16,133.28 267.27,125.85 264.71,119.12 262.79,110.95 261.91,102 261.9,93 262.83,73.22" fill="none" stroke="#ffffe0" stroke-width="2"/><polyline id="SvgjsPolyline4662" points="260.65,261.11 263.5,258.03 266.8,255.44 286.69,244.3 294.99,238.39 299.4,234.33 303.41,229.86 307,225.06 310.8,218.95 314.88,210.93 318.6,202.08 330.75,166.29 334.06,157.92 337.39,150.87 341.89,143.08 346.04,137.2 363.52,116.64 366.11,112.6 367.88,108.79 369.3,102.37 368.97,95.79 366.96,88.27 363.2,79.44" fill="none" stroke="#ffffe0" stroke-width="2"/><polyline id="SvgjsPolyline4663" points="268.36,254.33 282.23,245.96 288.99,240.98 295.36,234.64 300.56,227.3 305.22,217.58 308.35,207.25 310.32,194.81 310.69,182.83 309.85,172.67 308.04,163.24 305.39,154.65 301.51,145.87 297.96,139.61 293.23,132.67 273.17,108 269.61,102.45 266.95,97.08 264.99,91.41 263.67,84.95 263.05,77.78 262.79,66.38" fill="none" stroke="#ffffe0" stroke-width="2"/><polyline id="SvgjsPolyline4664" points="272.12,252.15 286.19,244.12 295.17,237.12 299.32,232.79 303.01,228.07 306.56,222.5 309.6,216.64 313.65,206.64 317.38,193.98 320.49,179.31 326.35,144.4 328.56,135.68 331.02,128.92 334.64,122.02 338.49,116.66 344.32,110.62 358.83,98.07 361.86,94.35 363.68,90.58 364.29,86.44 363.58,81.71 361.46,76.1 357.41,68.06" fill="none" stroke="#ffffe0" stroke-width="2"/><polyline id="SvgjsPolyline4665" points="282.07,246.53 287.61,242.95 292.8,238.88 297.1,234.69 301.29,229.6 304.91,224.09 308.25,217.71 313.12,204.81 316.31,192 318.65,177.19 320.17,159.26 321.74,121.5 323.03,112.6 324.99,106.3 328.65,100.12 333.77,95.09 339.81,91.19 354.2,83.74 358.87,80.02 360.06,77.95 360.37,75.59 359.65,72.69 357.57,68.36" fill="none" stroke="#ffffe0" stroke-width="2"/><polyline id="SvgjsPolyline4666" points="289.02,241.86 294.08,237.62 298.61,232.83 302.9,227.05 306.51,220.83 309.51,214.29 311.98,207.52 314.28,199.45 316.27,190.06 318.44,173.4 319.34,155.43 319.01,134.44 316.3,94.33 316.48,88.34 317.58,83.68 318.69,81.55 320.26,79.75 322.71,78.02 325.99,76.54 335.27,74.14 354.18,70.82 357.01,69.85 357.7,68.96" fill="none" stroke="#ffffe0" stroke-width="2"/><polyline id="SvgjsPolyline4667" points="268.82,254.08 285.4,244.41 290.73,240.53 294.34,237.36 298.07,233.46 301.75,228.73 305.26,223.14 308.23,217.24 310.92,210.57 313.28,203.14 315.28,194.98 316.98,185.53 318.21,175.41 318.98,164.64 319.15,141.84 318.1,122.67 315.61,99.41 313.13,85.84 311.78,81.87 310.32,79.25 308.74,77.45 306.32,75.69 299.63,73.08 289.64,71.06 268.24,68.08 263.1,66.58" fill="none" stroke="#ffffe0" stroke-width="2"/><polyline id="SvgjsPolyline4668" points="238.29,0.21 245.61,8.95 249.91,14.72 253.58,20.91 256.26,26.94 258.75,34.96 260.64,44.36 261.94,54.48 262.74,65.25" fill="none" stroke="#ffffe0" stroke-width="2"/><polyline id="SvgjsPolyline4669" points="222.8,0.3 223.68,7.44 225,12.68 226.84,17.1 229.37,21.18 232.08,24.39 235.56,27.68 252.09,40.63 255.85,44.5 258.31,47.9 260.22,51.63 261.52,55.62 262.29,59.75 262.75,65.73" fill="none" stroke="#ffffe0" stroke-width="2"/><polyline id="SvgjsPolyline4670" points="262.56,258.81 262.94,257.1 262.19,255.48 260.11,253.33 256.68,250.91 249.8,247.24 229.56,238.12 225.35,235.82 221.41,233.08 218.43,230.14 216.5,227.11 215.35,223.7 214.93,219.53 215.37,214.16 216.71,207.7 222.15,190.54 231.04,167.61 249.67,122.72 257.06,102.43 259.7,93.2 261.36,85.58 262.5,77.26 262.85,70.07" fill="none" stroke="#ffffe0" stroke-width="2"/><polyline id="SvgjsPolyline4671" points="550.08,582.02 549.5,581.91 548.51,582.53 548.33,583.1 549.26,583.67 550.63,582.62 550.5,581.48 550.01,581.14 548.25,581.21 546.73,582.16 545.38,584.12 545.06,586.47 545.66,588.16 546.87,589.47 548.45,590.32 550.79,590.83 554.96,590.51 558.93,589.17 562.6,587.12 566.8,583.74 571.48,578.29 575.55,570.95 578.08,562.96 579.02,554.63 578.65,548.64 577.36,542.79 575.1,537.24 571.51,531.71 567.35,527.4 562.51,523.87 556.64,520.87 550.41,518.69 542.21,516.89 533.87,515.91 524.28,515.53 511.68,515.86 489.57,517.8 429.5,525.75 398.47,529.01 382.9,529.94 369.7,530.13 362.52,529.73 360.2,529.14 359.29,528.38 359.15,526.62 359.82,523.7 381.22,446.82 385.53,434.99 391.56,422.58 396.81,413.84 403.09,405.05 409.69,397.28 416.07,390.94 422.99,385.19 430.48,380.2 436.89,376.94 443.7,374.61" fill="none" stroke="#ffffe0" stroke-width="2"/><polyline id="SvgjsPolyline4672" points="549.78,581.91 548.69,582.31 548.37,582.82 548.46,583.4 549.58,583.59 550.5,582.85 550.62,581.7 549.05,581.06 546.91,582.08 545.52,584.01 545.31,586.94 546.58,588.94 548.65,590.13 551.6,590.6 554.58,590.29 558.01,589.2 562.71,586.57 567.24,582.65 571,577.98 574.22,572.23 576.12,567.18 577.24,562.51 577.81,557.75 577.77,552.35 577.09,547.61 575.78,542.99 574.1,539.14 571.6,535.05 567.21,530.14 561.95,526.17 554.97,522.7 548.11,520.52 539.27,518.87 529.71,518.09 519.51,518.05 505.74,518.88 487.26,521.02 468.29,523.97 444.09,528.41 420.02,533.45 401.36,537.98 388.09,541.77 374.47,546.44 363.4,551.07 358.73,553.76 355.47,556.41 352.36,560.05 349.89,564.16 345.13,575.82 337.81,599.93" fill="none" stroke="#ffffe0" stroke-width="2"/><polyline id="SvgjsPolyline4673" points="260.19,261.71 257.82,265.17 255.58,269.42 253.62,274.44 252.34,279.07 250.94,289.16 251.21,299.94 252.9,309.39 254.36,313.96 256.1,317.78 258.36,321.31 260.72,324.02 266.83,328.85 271.52,331.52 278.06,334.52 291.68,339.18 306.31,342.46 320.04,343.78 333.23,343.62 347.57,342.27 394.32,334.48 413.38,332.21 422.97,331.9 430.16,332.24 437.28,333.26 443.09,334.75 447.58,336.44 452.38,338.92 456.33,341.64 459.91,344.83 465.47,351.89 467.77,356.1 469.8,361.09 471.26,366.29 472.17,372.22 472.32,378.21 471.71,383.57 470.02,389.32 467.63,393.46 465.9,395.11 464.25,395.77 463.17,395.37 463.1,394.27" fill="none" stroke="#ffffe0" stroke-width="2"/><polyline id="SvgjsPolyline4674" points="262.06,259.64 265,259.14 269.77,259.6 276.21,261.02 283.09,263.15 291.28,266.84 294.75,269.2 297.88,271.99 302.32,277.65 305.72,284.65 307.74,291.56 310.87,306.84 312.15,310.83 314.13,315.21 316.72,319.24 320.4,323.18 324.77,326.35 329.05,328.5 334.16,330.23 340.03,331.46 346.59,332.15 353.79,332.33 368.76,331.5 406.35,327.52 415.94,327.07 424.34,327.21 432.69,328.07 440.3,329.74 447.06,332.22 453.34,335.71 457.16,338.62 460.19,341.52 465.64,348.67 467.92,352.88 469.99,357.87 472.23,366.58 472.85,371.94 472.91,376.74 472.37,382.11 471.43,386.2 469.94,390.12 468.07,393.19 465.91,395.26 464.83,395.77 463.65,395.78" fill="none" stroke="#ffffe0" stroke-width="2"/><polyline id="SvgjsPolyline4675" points="309.93,537.95 307.23,546.53 305.82,553.58 305.63,558.97 306.75,564.85 308.76,569.2 311.53,573.11 322.81,584.74 326.59,589.38 329.23,594.09 330.98,599.81" fill="none" stroke="#ffffe0" stroke-width="2"/><polyline id="SvgjsPolyline4676" points="310.95,535.01 306.2,549.24 303.6,558.48 301.73,567.28 300.82,574.42 300.67,581.62 301.47,588.16 303.3,594.5 305.86,599.92" fill="none" stroke="#ffffe0" stroke-width="2"/><polyline id="SvgjsPolyline4677" points="263.12,258.51 266.3,256.86 271.58,255.78 278.77,255.53 287.15,256.09 302.56,258.49 332.91,265.7 340.63,266.83 349,267.41 359.8,267.24 369.96,266.32 412.56,259.22 426.29,257.82 434.68,257.92 441.8,258.97 448.06,261.01 453.33,263.87 458.42,268.05 463.42,274.03 467.73,281.23 471.4,289.44 475.18,300.83 477.88,311.9 479.96,323.72 481.44,337.44 481.88,350.03 481.33,362.01 479.9,372.1 477.64,380.81 474.04,389.04 472.07,392.05 469.67,394.73 467.24,396.48 464.96,397.13 463.79,396.9 462.92,396.11 462.9,394.38" fill="none" stroke="#ffffe0" stroke-width="2"/><polyline id="SvgjsPolyline4678" points="262.95,258.72 265.09,257.66 268.02,256.99 275.8,256.82 285.92,258.1 297.58,260.88 304.87,263.64 311.84,267.14 331.06,279.4 337.87,283.2 346.14,286.74 354.19,289.12 363.04,290.71 372.6,291.58 409.2,291.85 423.56,292.83 431.83,294.28 438.17,296.08 444.27,298.59 449.99,301.88 455.2,305.92 459.42,310.18 463.8,315.89 467.48,322.08 470.5,328.61 473.11,335.96 475.21,344.09 476.45,351.18 477.26,360.14 477.21,368.54 476.35,376.28 474.86,382.71 472.18,389.38 468.71,394.25 466.32,396.05 464.6,396.52 463.04,395.8 462.85,394.65" fill="none" stroke="#ffffe0" stroke-width="2"/><polyline id="SvgjsPolyline4679" points="263.74,257.98 266.35,256.52 269.77,255.41 279.88,254.14 291.27,254.19 320.03,255.79 334.41,255.29 347.45,253.29 363.08,249.06 375.49,244.57 389.26,238.62 402.18,232.26 417.92,223.53 430.08,215.82 439.17,208.96 445.14,203.06 448.78,197.57 450.65,191.89 451.02,185.91 449.97,178.19 447.76,170.09 443.98,159.98 438.65,148.57 432.48,137.58 426.54,128.57 421.49,121.85 415.26,114.55 404.08,103.69 397.06,98.06 388.64,92.29 381.39,88.05 370.11,82.46 366.54,80.25 362.22,76.12 358.43,70" fill="none" stroke="#ffffe0" stroke-width="2"/><polyline id="SvgjsPolyline4680" points="264.29,257.43 268.95,254.72 275.16,252.49 300.89,246.61 314.08,242.58 326.68,236.96 339.05,229.6 347.87,223.37 356.83,216.33 364.98,209.25 371.43,202.97 377.03,196.71 383.29,188.66 388.27,181.17 392.62,173.29 395.98,165.59 398.06,159.33 399.59,152.91 400.5,146.38 400.75,139.79 400.37,133.8 399.41,127.88 397.67,121.52 393.63,112.17 388.46,104.09 380.84,95.63 370.61,87.3 366.81,83.46 362.94,78.13 357.45,68.14" fill="none" stroke="#ffffe0" stroke-width="2"/><polyline id="SvgjsPolyline4681" points="263.4,258.21 265.92,256.59 269.26,255.26 278.09,253.57 287.66,252.95 314.66,252.56 329.57,251.02 343.6,247.8 358.84,242.34 369.2,237.58 380.29,231.61 391.5,224.64 401.74,217.3 410.49,210 417.72,202.81 423.43,195.86 428.16,188.21 430.96,181.58 432.59,175.2 433.31,168.04 433,160.85 431.82,153.75 429.13,144.54 425.93,136.78 421.46,128.29 416.92,121.22 412.22,115 406.67,108.7 401.09,103.25 393.72,97.1 386.36,91.93 367.06,81 363.1,77.34 360.03,72.91" fill="none" stroke="#ffffe0" stroke-width="2"/><polyline id="SvgjsPolyline4682" points="472.34,0.44 468.52,5.82 463.54,11.82 452,23.18 438.34,33.94 424.21,43.01 410.38,50.23 395.95,56.15 379.26,61.01 359.24,64.92 357.11,65.98 356.95,67.05" fill="none" stroke="#ffffe0" stroke-width="2"/><polyline id="SvgjsPolyline4683" points="299.28,0.27 308.65,51.62 309.77,56.28 310.96,58.34 313.51,59.89 318.76,61.09 351,64.18 355.02,65.35 356.03,66.01 357.06,67.45" fill="none" stroke="#ffffe0" stroke-width="2"/><polyline id="SvgjsPolyline4684" points="299.25,0.34 303.12,22.8 304.66,34.1 304.79,40.69 303.56,45.29 300.86,48.48 295.6,51.32 288.15,53.62 272.42,57.46 266.79,59.51 264.75,60.77 263.51,62.07 262.84,63.72 262.77,65.51" fill="none" stroke="#ffffe0" stroke-width="2"/><polyline id="SvgjsPolyline4685" points="261.8,0.43 260.47,9.94 260.06,22.53 260.53,35.12 262.76,65.63" fill="none" stroke="#ffffe0" stroke-width="2"/><polyline id="SvgjsPolyline4686" points="575.06,599.94 581.55,596.83 587.2,593.42 593.93,588.4 599.71,583.16" fill="none" stroke="#ffffe0" stroke-width="2"/><polyline id="SvgjsPolyline4687" points="550.17,582.08 549.61,581.89 548.57,582.41 548.46,583.51 548.99,583.77 550.13,583.46 550.91,582.57 550.77,580.87 549.16,580.19 546.84,580.71 544.04,582.93 542.32,586.07 541.94,588.43 542.49,591.36 543.73,593.4 546,595.34 550.47,597.02 556.45,597.26 561.75,596.27 568.47,593.71 573.18,591.08 578.52,587.21 582.54,583.6 586.62,579.21 593.61,569.47 596.81,563.7 599.83,557.16" fill="none" stroke="#ffffe0" stroke-width="2"/><polyline id="SvgjsPolyline4688" points="550.09,583.41 550.84,582.49 550.8,581.33 549.86,580.63 548.67,580.56 545.98,581.81 544.08,584.11 543.3,586.37 543.35,588.75 543.98,590.43 545.49,592.28 548.06,593.81 552.15,594.67 556.34,594.46 561.56,593.1 568.02,589.96 574.72,584.92 581.21,577.86 586.16,570.35 589.57,563.34 592.01,556.57 593.9,549.01 595.05,540.69 595.31,532.9 594.68,525.13 593.06,517.5 590.79,511.31 588.58,507.05 586.24,503.57 583.53,500.36 579.55,496.72 571.93,491.96 562.96,488.57 553.59,486.52 540.47,485.13 491.88,484.42 480.5,483.71 472.16,482.71 461.59,480.53 453.62,477.88 445.61,473.81 439.88,469.47 435.41,464.62 432.18,459.57 429.81,454.07 428.17,447.68 427.46,441.12 427.69,433.33 428.91,425.63 430.82,418.69 434.18,410.35 438.93,402.02 444.12,395.42 449.46,390.61 455.24,387.47 458.16,386.84 460.55,386.99 462.71,387.99 464.17,389.86 464.58,392.2 463.69,394.36" fill="none" stroke="#ffffe0" stroke-width="2"/><polyline id="SvgjsPolyline4689" points="550.68,582.66 550.69,581.5 550.28,581.07 549.13,580.79 547.96,581.04 545.99,582.38 544.46,584.93 544.25,587.3 544.8,589.01 545.89,590.43 547.89,591.74 551.97,592.61 556.14,592.21 560.7,590.73 564.94,588.49 571.05,583.66 576.14,577.77 580.48,570.58 583.8,562.23 585.36,555.82 586.22,548.07 585.96,540.28 584.79,533.8 582.67,527.55 579.87,522.25 576.25,517.47 571.44,512.97 564.87,508.78 557.12,505.55 547.83,503.17 538.93,501.86 520.96,500.91 482.57,501.43 468.17,501.24 454.41,500.23 442.59,498.22 436.8,496.64 431.18,494.55 422.79,489.92 419.04,486.93 415.7,483.48 412.87,479.61 410.57,475.4 408.16,468.62 406.82,460.95 406.61,453.16 407.51,444.21 409.75,434.26 412.86,425.18 416.56,416.98 421.96,407.63 429.17,398.05 435.92,391.24 443.15,385.89 447.4,383.67 450.78,382.44 454.31,381.75 457.9,381.84 460.75,382.73 462.74,384.07 464.55,386.44 465.46,389.89 465.03,392.84 463.55,394.63" fill="none" stroke="#ffffe0" stroke-width="2"/><polyline id="SvgjsPolyline4690" points="550.7,581.7 549.2,580.92 547.49,581.43 545.73,583.04 544.76,585.21 544.72,587 545.36,588.68 546.55,590.01 548.66,591.13 552.21,591.65 556.35,591.06 560.83,589.35 564.93,586.86 570.7,581.63 575.33,575.37 578.8,568.4 581.21,560.36 582.12,553.83 582.12,547.23 581.14,540.71 579.35,534.99 576.67,529.63 573.51,525.26 569.25,521.05 563.85,517.27 556.81,513.93 549.36,511.63 541.7,510.15 530.36,509.05 509.97,508.99 471.03,511.24 453.64,511.88 438.05,511.56 424.35,509.99 417.9,508.59 412.16,506.85 407.71,505.05 402.45,502.18 398.58,499.35 395.12,496.02 391.85,491.73 389.54,487.53 386.87,479.58 385.71,470.67 386.12,459.89 388.16,448.68 391.48,437.78 396.64,425.64 403.7,413.09 411.04,402.86 420.34,392.68 430.06,384.67 435.12,381.46 439.94,379.03 444.44,377.36 448.52,376.39 453.31,376.09 457.44,376.77 460.71,378.25 463.43,380.58 465.56,384.18 466.37,388.28 465.7,392.4 464.82,393.96 463.9,394.72" fill="none" stroke="#ffffe0" stroke-width="2"/><polyline id="SvgjsPolyline4691" points="549.87,581.93 549.27,581.96 548.4,582.73 548.4,583.32 548.88,583.66 550.44,582.96 550.71,581.83 550.39,581.33 548.68,581.04 547.06,581.81 545.5,583.61 544.86,585.9 545.16,587.66 546.13,589.17 549.24,590.89 552.81,591.19 556.92,590.38 561.31,588.46 565.29,585.78 570.42,580.75 574.82,574.32 578.35,566.06 580.04,558.45 580.43,551.87 579.81,545.31 578.31,539.5 575.88,534.02 572.9,529.52 568.8,525.15 564.53,521.86 558.21,518.43 550.87,515.81 542.67,514.01 533.13,512.91 522.34,512.53 500.17,513.45 440.99,518.59 424.2,519.05 410.42,518.41 397.4,516.32 391.64,514.65 386.63,512.63 381.88,510.07 377.97,507.29 374.5,503.98 372.57,500.96 371.7,498.09 371.35,494.52 372.16,485.56 374.84,472.64 381.36,447.06 385.18,436.32 389.41,427.04 394.32,418.11 400.61,408.6 408.1,399.24 416.52,390.7 425.41,383.57 434.69,378.06 443.08,374.85 450.78,373.72 454.36,373.99 457.27,374.72 459.99,375.98 462.39,377.77" fill="none" stroke="#ffffe0" stroke-width="2"/><polyline id="SvgjsPolyline4692" points="548.53,583.41 549.08,583.61 550.14,583.12 550.4,582.01 549.93,581.64 548.76,581.73 547.45,582.92 547.19,584.65 548.34,585.97 550.68,586.33 552.99,585.7 556.86,582.92 559.55,578.97 560.79,574.97 560.85,570.78 559.9,567.32 557.71,563.75 555.17,561.21 552.67,559.56 549.38,558.12 545.9,557.19 538.14,556.6 529.21,557.67 521.68,559.69 513.31,562.98 505.33,567.14 497.3,572.39 490.72,577.6 483.75,584.2 477.43,591.43 471.49,599.71" fill="none" stroke="#ffffe0" stroke-width="2"/><polyline id="SvgjsPolyline4693" points="548.48,582.58 548.36,583.16 549.36,583.62 550.34,582.96 550.49,581.83 549.46,581.31 548.31,581.58 546.6,583.22 546.19,585.54 547.01,587.11 549.67,588.39 553.82,588.06 557.13,586.66 560.55,584.24 563.45,581.21 566.1,577.21 568.5,571.08 569.36,563.96 568.41,557.44 567.16,554.07 565.41,550.93 561.96,546.79 558.21,543.8 553.47,541.22 548.4,539.4 541.96,537.96 534.2,537.24 526.4,537.35 519.23,538.02 503.91,540.92 489.55,545.21 473.98,551.52 460.15,558.73 447.58,566.89 434.51,577.44 423.49,588.47 414.37,599.61" fill="none" stroke="#ffffe0" stroke-width="2"/><polyline id="SvgjsPolyline4694" points="550.52,581.7 548.88,581.23 547.77,581.67 546.47,582.9 545.73,584.52 545.64,585.72 546.61,587.87 548.62,589.14 550.97,589.57 553.95,589.27 556.8,588.35 560.96,585.99 564.59,582.85 567.98,578.65 570.86,573.4 573.14,565.96 573.64,561.79 573.62,557.59 573.17,554.02 572.11,549.96 570.48,546.1 568.29,542.51 564.75,538.45 560.03,534.76 554.18,531.71 547.93,529.6 540.88,528.18 531.92,527.39 522.92,527.43 513.35,528.16 503.24,529.53 492.63,531.52 471.71,536.89 451.88,543.77 442.49,547.74 432.75,552.42 416.69,561.78 402.22,572.47 395.89,577.99 388.6,585.13 381.76,592.69 376.12,599.7" fill="none" stroke="#ffffe0" stroke-width="2"/><polyline id="SvgjsPolyline4695" points="550.42,581.5 548.72,581.18 546.31,582.87 545.36,585.66 546.1,587.9 547.94,589.41 550.23,590.07 553.22,590.03 556.14,589.34 560.98,586.97 565.2,583.62 568.76,579.57 572.19,573.94 574.02,569.5 575.28,564.88 575.94,560.13 576.02,555.93 575.51,551.16 574.51,547.08 572.98,543.17 570.95,539.51 567.2,534.83 562.14,530.61 556.39,527.39 549.06,524.75 540.84,523.03 531.88,522.17 522.29,522.07 510.91,522.74 498.39,524.2 485.37,526.32 471.25,529.18 456.67,532.69 443.38,536.41 429.69,540.86 418.47,545.11 408.57,549.43 399.45,554 390.62,559.09 382.59,564.35 373.94,570.82 365.75,577.86 358.87,584.56 351.95,592.04 345.98,599.56" fill="none" stroke="#ffffe0" stroke-width="2"/><polyline id="SvgjsPolyline4696" points="261.14,260.52 263.72,258.04 267.52,256.29 272.22,255.32 279.4,254.89 294.97,255.84 329.45,260.45 339.64,260.76 349.23,260.2 362.28,258.26 375.72,255.14 419.87,241.55 435.02,237.87 442.17,237.05 448.16,237.25 453.39,238.52 457.65,240.72 462.51,245.16 466.84,251.63 471,260.94 474.49,271.78 477.98,286.37 480.86,302.92 482.76,319 483.71,333.97 483.75,347.77 482.94,359.74 481.18,371 478.65,380.25 474.71,388.99 470.32,394.67 467.4,396.75 465.1,397.37 463.92,397.16 463,396.43 462.64,395.3 463.03,394.21" fill="none" stroke="#ffffe0" stroke-width="2"/><polyline id="SvgjsPolyline4697" points="263.26,258.45 265.39,257.36 268.29,256.59 274.86,256.1 284.44,256.76 294.5,258.4 302.08,260.25 308.36,262.26 327.31,269.81 336.36,273.01 343.9,275 351.58,276.34 361.14,277.16 370.74,277.25 408.46,274.86 424.65,274.97 432.39,275.96 439.38,277.64 445.52,280.04 450.73,283.01 455.47,286.68 460.82,292.35 464.97,298.23 468.95,305.62 472.37,313.94 475.37,323.69 477.45,333.06 478.93,343.15 479.66,353.92 479.5,363.51 478.52,372.46 476.5,381.22 473.59,388.44 471.74,391.53 469.45,394.3 467.08,396.13 464.82,396.85 463.65,396.6 462.86,395.73 462.84,394.56 463.21,394.16" fill="none" stroke="#ffffe0" stroke-width="2"/><polyline id="SvgjsPolyline4698" points="265.82,256.83 271.58,255.2 281.15,254.48 293.13,254.94 317.62,257.33 327.8,257.9 339.79,257.52 351.67,255.91 367.41,252.11 384.48,246.39 401.19,239.72 433.68,225.66 444.91,221.43 450.12,220.04 454.89,219.54 458.45,219.98 461.15,221.25 462.96,222.82 465.11,225.7 468.61,233.32 472.16,244.78 476.12,261.72 479.57,280.61 482.21,299.63 483.94,318.14 484.64,335.53 484.39,348.72 483.35,360.67 481.38,371.9 478.66,381.1 474.82,389.22 472.41,392.66 469.9,395.24 466.85,397.11 464.49,397.41 463.41,396.94 462.73,395.96 462.97,394.26" fill="none" stroke="#ffffe0" stroke-width="2"/><polyline id="SvgjsPolyline4699" points="599.96,155.33 589.78,155.02 579.04,156.1 566.14,158.86 552.38,163.11 536.7,169.15 520.25,176.43 470.77,200.91 466.85,202.39 463.91,202.44 462.98,201.68 461.79,199.61 451.45,172.73 442.86,154.24 433.65,138.08 424.01,124.33 412.97,111.68 406.9,105.88 400,100.09 392.73,94.8 386.14,90.63 370.67,82.68" fill="none" stroke="#ffffe0" stroke-width="2"/><polyline id="SvgjsPolyline4700" points="494.28,0.31 490.06,6.87 485.15,12.93 479.32,18.97 471.21,26.1 464.07,31.57 454.14,38.31 444.87,43.85 434.79,49.17 426.08,53.2 416.05,57.21 406.95,60.26 398.27,62.64 388.29,64.75 379.99,66.01 357.86,67.75" fill="none" stroke="#ffffe0" stroke-width="2"/><polyline id="SvgjsPolyline4701" points="449.71,0.27 442.73,9.28 434.55,18.05 426.14,25.74 416.73,33.19 403.24,42.14 390.01,49.2 378.4,54.1 362.4,59.18 358,61.1 356.61,62.23 355.89,63.85 356.22,65.6 357.29,67.71" fill="none" stroke="#ffffe0" stroke-width="2"/><polyline id="SvgjsPolyline4702" points="317.53,0.07 327.01,12.46 334.53,24.02 340.34,34.52 357.21,67.68" fill="none" stroke="#ffffe0" stroke-width="2"/><polyline id="SvgjsPolyline4703" points="284.06,0.06 270.35,16.74 267.1,21.78 264.6,27.23 263.08,32.41 262.04,39.53 261.85,48.52 262.4,59.31" fill="none" stroke="#ffffe0" stroke-width="2"/><polyline id="SvgjsPolyline4704" points="296.8,0.31 296.55,6.3 295.65,11.62 293.83,16.7 291.69,20.31 285.99,26.45 270.56,38.84 267.34,42.4 265.09,45.94 263.72,49.26 262.82,53.36 262.51,58.15 262.75,65.34" fill="none" stroke="#ffffe0" stroke-width="2"/><polyline id="SvgjsPolyline4705" points="599.82,491.87 595.13,484.92 592.21,481.9 588.94,479.27 581.6,475.21 572.45,472.35 563.57,470.94 552.19,470.28 505.42,471.54 494.62,471.4 484.44,470.7 474.95,469.3 466.23,467.07 457.92,463.65 451.81,459.85 447.74,456.31 444.24,452.21 441.42,447.61 439.53,443.2 437.99,437.4 437.3,431.45 437.39,425.45 438.08,420.1 439.99,412.54 442.68,405.87 446.26,399.63 450.83,394.08 455.57,390.44 457.77,389.46 460.12,389.04 462.43,389.57 463.71,390.8 464.2,392.51 463.69,394.2" fill="none" stroke="#ffffe0" stroke-width="2"/><polyline id="SvgjsPolyline4706" points="550.39,582.59 550.25,582.01 549.72,581.75 548.59,582.09 547.86,583.02 547.93,584.18 549.48,584.94 552.28,583.99 554.32,581.82 555.41,579.04 555.43,576.66 554.9,574.94 553.94,573.43 552.14,571.85 548.83,570.48 544.66,570.07 539.91,570.7 535.34,572.14 527.42,576.39 519.57,582.88 513.12,590.76 510.63,594.86 508.3,599.73" fill="none" stroke="#ffffe0" stroke-width="2"/><polyline id="SvgjsPolyline4707" points="549.3,583.61 550.53,582.44 549.93,581.51 548.21,581.82 546.74,583.65 546.74,585.42 548.39,587.08 551.34,587.44 554.77,586.43 557.33,584.88 559.58,582.89 561.48,580.58 563.3,577.47 565,572.36 565.38,567.59 564.44,562.29 562.06,557.46 559.76,554.69 556.02,551.7 552.32,549.73 547.78,548.17 542.48,547.15 537.1,546.77 531.1,546.95 525.15,547.64 514.6,549.93 503.23,553.75 492.3,558.7 480.88,565.32 471.14,572.31 461.19,580.98 452.55,590.14 445.18,599.61" fill="none" stroke="#ffffe0" stroke-width="2"/><polyline id="SvgjsPolyline4708" points="599.96,157.19 593.36,157.14 586.19,157.75 572.66,160.45 556.69,165.63 539.05,173.21 517.31,184.69 500.14,195.7 493.49,200.83 488.6,205.26 484.6,209.73 481.88,213.68 479.49,218.52 478.03,223.08 477.08,229 476.84,235.6 477.56,247.57 482.71,291.67 484.58,313.79 485.25,338.37 484.18,356.94 482.92,365.85 480.81,375.21 478.3,382.59 475.42,388.52 471.94,393.4 467.78,396.79 466.09,397.42 464.31,397.43 462.9,396.4 462.61,395.25" fill="none" stroke="#ffffe0" stroke-width="2"/><polyline id="SvgjsPolyline4709" points="599.71,137.23 590.76,132.35 581.33,128.46 570.96,125.47 560.93,123.63 550.79,122.58 540.6,122.12 503.4,122.33 489.01,121.88 472.91,120.11 459.43,117.2 449.69,114.19 439.6,110.32 396.1,90.05 383.37,84.73 367.63,78.87 362.59,75.65 359.55,71.95" fill="none" stroke="#ffffe0" stroke-width="2"/><polyline id="SvgjsPolyline4710" points="599.98,146.1 593.67,144.18 586.03,142.61 578.29,141.73 571.09,141.45 562.1,141.68 551.93,142.5 513.31,147.9 498.38,149.27 490.58,149.36 483.99,148.95 476.29,147.72 469.93,145.97 460.56,141.98 450.34,135.7 441.28,128.78 415.82,107.79 400.13,96.73 385.55,88.41 369.7,81.24 366.05,79.17 363.25,76.91 361.27,74.66 357.36,67.92" fill="none" stroke="#ffffe0" stroke-width="2"/><polyline id="SvgjsPolyline4711" points="599.85,150.89 592.75,149.72 584.97,149.22 577.17,149.4 569.41,150.14 558.75,151.87 549.37,153.91 508.82,164.85 496.51,167.52 488.78,168.58 482.19,168.83 476.22,168.29 470.98,167 466.55,165.16 462.92,163.06 455.05,156.6 447.74,148.65 432.53,130.09 424.62,121.06 416.24,112.48 408.21,105.26 399.69,98.62 389.68,92.02 382.36,87.9 366.8,80.14 363.55,77.48 360.57,73.74" fill="none" stroke="#ffffe0" stroke-width="2"/><polyline id="SvgjsPolyline4712" points="514.6,0.38 511.45,6.84 506.46,13.59 500.16,20.01 491.36,27.25 481.52,34.11 470.25,40.98 457.01,48.03 444.48,53.81 433.33,58.23 422.51,61.84 411.51,64.8 401.51,66.84 390.22,68.41 378.26,69.28 364.46,69.4 359.67,69.08 357.95,68.61" fill="none" stroke="#ffffe0" stroke-width="2"/><polyline id="SvgjsPolyline4713" points="426.64,0.31 419.92,8.77 412.6,16.7 404.3,24.51 396.43,30.99 389.16,36.29 381.6,41.18 372.69,46.15 360.78,51.82 356.32,54.85 354.59,57.27 354.15,59.61 354.77,62.53 356.52,66.35" fill="none" stroke="#ffffe0" stroke-width="2"/><polyline id="SvgjsPolyline4714" points="340.5,0.4 338.6,6.08 337.83,12.62 338.13,18.61 339.68,26.86 342.1,34.9 345.81,44.4 357.15,67.57" fill="none" stroke="#ffffe0" stroke-width="2"/><polyline id="SvgjsPolyline4715" points="599.87,464.92 595.17,462.27 589.54,460.22 584.27,459.04 576.52,458.19 559.73,458.4 515.53,462.52 495.15,463.12 485.56,462.54 476.08,461.1 467.98,458.88 461.37,456.05 457.24,453.6 453,450.27 449.33,446.32 446.65,442.34 444.57,438.02 443.12,433.44 442.16,427.53 442.05,422.13 442.91,414.99 444.64,408.63 446.97,403.1 450.77,397 455.39,392.31 457.41,391.03 459.66,390.2 461.44,390.12 463.07,390.83 463.96,392.35 463.7,394.09" fill="none" stroke="#ffffe0" stroke-width="2"/><polyline id="SvgjsPolyline4716" points="599.89,174.73 591.05,178.46 581.09,183.99 571.67,190.42 562.33,197.94 553.15,206.57 545.04,215.41 537.96,224.34 531.22,234.27 525.82,243.62 520.82,253.86 516.51,264.41 512.47,276.35 506.52,298.97 495.15,351.76 491.36,365.02 487.4,375.71 484.05,382.75 480.64,388.4 476.95,393.12 472.98,396.77 468.2,399.22 466.43,399.49 464.65,399.25 463.14,398.31 462.31,396.74 462.39,394.96 463.11,394.07" fill="none" stroke="#ffffe0" stroke-width="2"/><polyline id="SvgjsPolyline4717" points="599.74,164.77 588.6,167.14 576.19,171.62 562.76,178.28 549.02,186.87 536.13,196.66 525.1,206.82 516.02,217.2 508.92,227.61 504.46,236.1 500.68,245.57 497.99,254.78 495.9,264.76 493.45,284.4 490.77,326.32 489.43,341.86 487.2,357.9 484.62,369.62 482.31,377.07 479.83,383.18 477,388.46 473.84,392.84 469.87,396.48 466.03,398.07 464.25,397.92 462.86,396.83 462.54,395.1 463.13,394.12" fill="none" stroke="#ffffe0" stroke-width="2"/><polyline id="SvgjsPolyline4718" points="599.81,116.74 589.88,103.19 582.75,94.29 576.73,87.6 570.21,81.4 564.04,76.63 557.87,72.94 550.7,69.89 543.74,68.04 532.42,66.82 524.63,66.92 516.85,67.55 504.37,69.28 455.92,77.78 439.22,79.6 424.83,80.24 414.04,80.1 401.46,79.28 376.47,76.07 364.11,73.69 360.83,72.24 358.65,70.2" fill="none" stroke="#ffffe0" stroke-width="2"/><polyline id="SvgjsPolyline4719" points="599.99,127.86 589.04,118.52 577.04,110.57 570.64,107.29 564.56,104.72 551.93,100.92 541.29,99.06 528.14,97.97 514.35,97.75 484.95,98.34 469.35,98.25 454.98,97.44 440.09,95.64 428.88,93.6 416.6,90.77 369.18,77.66 365.79,76.45 362.62,74.75 360.77,73.23 358.95,70.85" fill="none" stroke="#ffffe0" stroke-width="2"/><polyline id="SvgjsPolyline4720" points="531.97,0.15 532.04,3.74 531.53,6.69 530.57,9.53 529.14,12.17 524.09,18.09 516.18,24.52 503.09,32.99 486.81,41.98 471.7,49.33 454.57,56.58 442.16,61.05 428.93,64.99 416.07,67.93 403.62,69.88 388.67,71.07 370.68,71.04 361.12,70.23 358.83,69.54 357.6,68.31" fill="none" stroke="#ffffe0" stroke-width="2"/><polyline id="SvgjsPolyline4721" points="403.47,0.19 394.31,11.3 382.87,22.76 372.27,31.59 357.53,41.92 353.69,45.69 351.98,48.84 351.46,52.98 352.49,57.66 355.15,63.69" fill="none" stroke="#ffffe0" stroke-width="2"/><polyline id="SvgjsPolyline4722" points="363.01,0.32 348.69,17.28 345.69,22.46 344.29,27.04 343.94,33.02 345.09,40.11 347.97,48.63 352.74,58.98" fill="none" stroke="#ffffe0" stroke-width="2"/><polyline id="SvgjsPolyline4723" points="599.97,444.58 590.38,444.31 579.03,445.31 527.59,454.18 505.54,456.65 495.34,456.95 485.16,456.44 476.86,455.18 468.21,452.71 463.28,450.52 459.16,448.06 454.97,444.67 451.75,441.11 449.12,437.1 447.35,433.3 445.95,428.71 445.14,423.37 445.19,416.78 446.29,410.28 448.39,404.03 451.17,398.72 454.91,394.05 457.23,392.15 459.36,391.06 461.12,390.71 462.84,391.15 463.84,392.59 463.49,394.28" fill="none" stroke="#ffffe0" stroke-width="2"/><polyline id="SvgjsPolyline4724" points="599.8,194.23 593.79,199.19 586.79,205.76 580.6,212.29 573.98,220.05 562.59,235.5 551.04,254.45 543.34,269.38 535.01,288 528.13,305.28 513.64,344.06 507.22,359.59 500.37,373.6 494.14,383.85 489.07,390.54 483.66,396.15 478.42,400.15 473.03,402.76 470.11,403.44 467.72,403.52 465.38,403.01 463.34,401.78 461.93,399.86 461.4,397.53 461.83,395.19 463.01,393.92" fill="none" stroke="#ffffe0" stroke-width="2"/><polyline id="SvgjsPolyline4725" points="599.93,87.29 598.52,78.4 597.98,68.22 598.58,59.85 599.97,52.79" fill="none" stroke="#ffffe0" stroke-width="2"/><polyline id="SvgjsPolyline4726" points="599.87,108.73 588.28,85.68 579.9,66.43 575.17,52.2 573.97,46.33 573.52,40.35 573.93,35.57 574.97,31.51 576.9,27.12 579.49,23.08 582.94,18.93 587.22,14.73 592.26,10.47 599.99,4.78" fill="none" stroke="#ffffe0" stroke-width="2"/><polyline id="SvgjsPolyline4727" points="599.72,111.99 580,79.74 573.22,69.84 568.03,63.24 562.65,57.6 556.99,53.17 551.17,50.06 544.85,48.21 539.49,47.63 534.09,47.71 527.53,48.46 520.46,49.81 507.68,53.11 472.07,63.87 455.86,68.26 438.26,72.04 424.02,74.12 404.26,75.34 384.48,74.71 365.39,72.72 360.77,71.44 358.38,69.68" fill="none" stroke="#ffffe0" stroke-width="2"/><polyline id="SvgjsPolyline4728" points="547.22,0.06 551.24,1.24 555.42,1.61 560.19,1.18 565.47,0.04" fill="none" stroke="#ffffe0" stroke-width="2"/><polyline id="SvgjsPolyline4729" points="549.71,17.02 512.2,35.91 482.78,49.47 459.36,58.76 438.77,65.29 428.88,67.74 418.28,69.81 408.17,71.21 398.61,72.02 383.62,72.34 369.23,71.75 362.08,70.92 359.77,70.27 358.26,69.33" fill="none" stroke="#ffffe0" stroke-width="2"/><polyline id="SvgjsPolyline4730" points="599.54,426.47 555.57,440.67 539.37,445.09 524.14,448.48 510.52,450.66 496.76,451.74 485.37,451.44 475.31,449.86 470.12,448.35 465.15,446.27 460.99,443.87 457.2,440.93 453.92,437.44 451.24,433.46 449.24,429.1 447.94,424.49 447.29,418.53 447.71,411.95 449.26,405.54 451.36,400.57 455.43,394.66 459.21,391.75 460.92,391.21 462.68,391.44 463.76,392.8 463.66,393.98 463.27,394.35" fill="none" stroke="#ffffe0" stroke-width="2"/><polyline id="SvgjsPolyline4731" points="599.89,218.11 593.29,226.66 586.08,236.99 579.32,247.62 572.37,259.54 558.29,286.7 535.81,335.14 526.55,353.99 517.13,370.71 507.61,384.55 499.33,394.04 491.69,400.78 484.11,405.61 480.27,407.32 476.26,408.53 472.1,409.07 468.52,408.78 465.14,407.59 462.76,405.78 460.84,402.76 460.2,399.24 460.93,395.74 461.92,394.25 462.95,393.7" fill="none" stroke="#ffffe0" stroke-width="2"/><polyline id="SvgjsPolyline4732" points="599.78,102.8 594.51,89.4 590.75,77.38 588.71,68 587.76,57.85 588.4,48.89 590.53,40.77 594.33,32.63 599.74,24.71" fill="none" stroke="#ffffe0" stroke-width="2"/><polyline id="SvgjsPolyline4733" points="599.72,405.08 587.49,413.75 573.53,421.97 557.89,429.59 542.3,435.83 525.7,441.05 511.07,444.33 496.79,446.07 484.2,445.98 478.84,445.31 472.99,443.99 467.9,442.19 463.63,440.02 459.7,437.26 456.27,433.91 453.78,430.53 451.61,426.26 449.96,420.5 449.46,414.53 450.05,408.57 451.67,402.8 454.7,396.95 458.35,393 460.44,391.85 462.21,391.67 463.59,392.71 463.66,393.88" fill="none" stroke="#ffffe0" stroke-width="2"/><polyline id="SvgjsPolyline4734" points="599.83,248.84 585.36,275.11 557.05,331.39 545.63,352.5 538.51,364.32 532.19,373.8 525.35,382.92 517.89,391.54 507.4,401.39 501.65,405.71 496.05,409.21 491.24,411.65 485.64,413.81 480.4,415.1 476.23,415.55 471.44,415.3 466.84,413.98 463.29,411.78 460.57,408.6 458.9,404.12 458.9,399.35 459.77,396.48 461.04,394.46 462.5,393.45 463.4,393.94" fill="none" stroke="#ffffe0" stroke-width="2"/><polyline id="SvgjsPolyline4735" points="599.92,377.71 589.84,389.61 579.16,400.14 567.56,409.64 554.63,418.36 540.41,426.11 525.51,432.44 511.76,436.72 498.22,439.33 490.45,439.97 485.05,439.96 479.08,439.42 473.21,438.21 468.12,436.42 464.38,434.5 460.5,431.69 457.18,428.23 454.32,423.66 452.49,418.59 451.71,412.65 452.16,406.68 454.03,400.37 455.7,397.18 457.49,394.78 459.75,392.82 461.4,392.13 463.12,392.43 463.65,393.47 463.54,394.05" fill="none" stroke="#ffffe0" stroke-width="2"/><polyline id="SvgjsPolyline4736" points="599.97,286.05 576.09,333.13 566.66,349.86 559.06,362.09 549.06,376.32 540.33,387.01 531.63,396.12 522.63,404.05 515.89,409.06 509.29,413.22 502.92,416.56 496.84,419.12 489.96,421.24 484.07,422.34 478.08,422.67 473.31,422.21 468.12,420.75 463.45,418.07 460.12,414.63 457.9,410.4 457.15,407.49 456.9,404.51 457.87,398.62 459.14,395.91 460.64,394.04 462.77,393.1 463.46,393.93" fill="none" stroke="#ffffe0" stroke-width="2"/><polyline id="SvgjsPolyline4737" points="599.89,343.83 590.64,359.27 581.11,373.1 571.35,385.26 560.61,396.57 550.73,405.32 538.14,414.52 525.16,422.02 512.52,427.55 505.11,429.98 497.53,431.82 491.01,432.81 484.42,433.18 477.84,432.77 472.55,431.71 468.03,430.11 463.84,427.79 459.75,424.28 456.62,419.89 454.66,414.87 453.9,408.94 454.74,402.41 455.92,399.01 457.35,396.37 459.24,394.06 461.22,392.72 462.96,392.67 463.57,393.64 463.42,394.2" fill="none" stroke="#ffffe0" stroke-width="2"/></g></svg>
